<svg width="1152" height="455" viewBox="0 0 1152 455" fill="none" xmlns="http://www.w3.org/2000/svg">
<g opacity="0.3">
<path d="M389.204 454.535C383.521 454.535 377.99 454.164 372.674 453.424C361.526 451.871 351.227 448.683 342.061 443.948C332.21 438.86 323.571 431.927 316.38 423.342C301.927 406.086 294.697 385.422 287.703 365.437C286.329 361.513 284.909 357.455 283.467 353.518C273.627 326.684 261.153 303.179 245.336 281.659C213.782 238.732 169.407 202.097 117.005 175.714C56.4039 145.204 -8.75264 130.006 -66.4632 132.92C-100.383 134.633 -145.199 150.928 -165.229 178.756C-177.116 195.271 -178.074 213.599 -167.999 231.755L-168.199 231.832C-173.482 222.31 -175.784 212.764 -175.038 203.459C-174.355 194.924 -171.119 186.58 -165.418 178.661C-156.352 166.064 -141.401 154.9 -122.18 146.373C-104.419 138.496 -84.6375 133.652 -66.4764 132.735C-36.2746 131.212 -4.15356 134.593 28.9941 142.789C59.042 150.219 88.692 161.243 117.12 175.555C169.552 201.952 213.953 238.608 245.525 281.561C261.351 303.095 273.831 326.613 283.678 353.462C285.122 357.399 286.543 361.458 287.914 365.382C294.901 385.353 302.127 406.002 316.56 423.232C330.518 439.897 349.411 449.993 372.712 453.238C404.98 457.732 444.165 448.332 477.528 428.092C525.607 398.925 558.974 356.471 591.245 315.416C596.901 308.219 602.749 300.778 608.54 293.593C623.573 274.935 643.932 250.757 668.128 229.217C692.86 207.201 717.992 191.025 744.963 179.764C761.47 172.871 778.965 168.227 796.962 165.962C813.584 163.868 831.178 163.738 849.255 165.572C880.264 168.72 913.671 177.612 951.387 192.754C1025.65 222.571 1099.83 258.763 1171.87 300.325C1240.35 339.829 1307.51 384.53 1371.48 433.184L1371.33 433.319C1238.72 332.463 1097.4 251.581 951.29 192.918C868.744 159.776 803.214 155.647 745.061 179.927C685.9 204.627 644.572 249.202 608.722 293.693C602.934 300.877 597.086 308.318 591.43 315.514C559.15 356.584 525.772 399.051 477.66 428.238C462.112 437.67 444.622 445.027 427.081 449.513C417.814 451.882 408.603 453.431 399.699 454.118C396.151 454.398 392.649 454.535 389.204 454.535Z" fill="#FFE492"/>
<path d="M394.76 444.302C380.268 444.302 366.845 442.009 354.848 437.484C341.471 432.438 329.927 424.618 320.535 414.245C319.704 413.326 318.88 412.376 318.084 411.419C303.786 394.238 296.234 373.842 288.933 354.117C287.456 350.131 285.93 346.007 284.383 342.006C275.165 318.183 264.065 297.186 250.446 277.819C248.768 275.435 247.031 273.045 245.279 270.717C213.262 228.159 168.526 191.988 115.909 166.113C54.8703 136.124 -10.4709 121.554 -68.0782 125.089C-101.751 127.177 -146.361 143.738 -166.477 171.352C-178.522 187.888 -179.885 206.252 -170.423 224.461L-170.625 224.534C-175.585 214.99 -177.623 205.426 -176.68 196.111C-175.814 187.555 -172.446 179.194 -166.666 171.257C-157.507 158.683 -142.6 147.505 -123.56 138.935C-105.961 131.014 -86.2656 126.032 -68.0979 124.906C-37.9335 123.055 -5.77731 126.114 27.4759 133.995C57.5964 141.135 87.3871 151.888 116.019 165.956C168.667 191.845 213.427 228.038 245.464 270.621C247.216 272.95 248.955 275.341 250.633 277.727C264.26 297.108 275.367 318.115 284.589 341.951C286.139 345.952 287.665 350.076 289.142 354.064C296.441 373.777 303.986 394.158 318.264 411.315C319.058 412.268 319.883 413.218 320.711 414.135C340.119 435.578 366.786 444.302 394.829 444.302C394.983 444.302 395.134 444.302 395.288 444.302C395.112 444.3 394.936 444.302 394.76 444.302ZM400.742 444.174C426.813 443.061 453.715 434.736 476.794 422.351C526.577 395.526 562.357 354.095 596.96 314.029C598.384 312.377 599.809 310.729 601.233 309.081C604.362 305.464 608.07 301.182 611.856 296.865C628.839 277.505 649.392 254.978 673.062 234.703C698.247 213.129 723.408 197.119 749.98 185.758C766.308 178.784 783.563 173.872 801.267 171.157C817.669 168.641 835.004 167.93 852.782 169.043C883.496 170.967 916.521 178.26 953.745 191.341C990.036 204.075 1019.87 216.061 1047.63 229.063C1086.95 247.501 1124.41 268.744 1155.87 287.092C1229 329.872 1300.76 378.448 1369.15 431.473L1369 431.606C1300.62 378.589 1228.87 330.016 1155.74 287.242C1124.29 268.896 1086.84 247.656 1047.52 229.224C1019.77 216.225 989.946 204.243 953.661 191.513C872.573 163.016 807.882 161.238 750.081 185.922C690.091 211.569 647.369 256.692 612.034 296.974C608.246 301.291 604.54 305.572 601.411 309.191C599.987 310.837 598.562 312.487 597.138 314.138C562.524 354.217 526.731 395.663 476.913 422.508C464.56 429.136 451.416 434.402 437.843 438.156C425.208 441.647 412.754 443.666 400.742 444.174Z" fill="#FFE492"/>
<path d="M400.887 434.303C399.144 434.303 397.411 434.272 395.692 434.208C381.213 433.677 367.814 430.916 355.868 426C342.803 420.623 331.483 412.66 322.226 402.328C321.403 401.408 320.583 400.456 319.792 399.499C305.654 382.402 297.788 362.278 290.184 342.82C288.599 338.764 286.959 334.569 285.297 330.499C275.624 306.756 264.231 285.927 250.465 266.821C248.761 264.459 246.998 262.089 245.22 259.78C212.738 217.593 167.642 181.885 114.81 156.518C53.3354 127.05 -12.1905 113.107 -69.6966 117.263C-102.075 119.64 -146.555 135.256 -167.704 163.925C-179.923 180.488 -181.701 198.901 -172.848 217.174L-173.053 217.242C-177.691 207.669 -179.461 198.083 -178.318 188.751C-177.267 180.168 -173.758 171.784 -167.891 163.83C-158.636 151.284 -143.776 140.103 -124.919 131.493C-107.485 123.533 -87.8796 118.416 -69.7163 117.082C-39.5871 114.906 -7.39572 117.639 25.9608 125.206C56.156 132.057 86.0852 142.539 114.92 156.361C167.783 181.745 212.903 217.472 245.404 259.683C247.183 261.994 248.948 264.364 250.652 266.73C264.425 285.847 275.824 306.689 285.501 330.444C287.163 334.516 288.803 338.711 290.388 342.767C297.99 362.215 305.85 382.324 319.97 399.4C320.761 400.357 321.577 401.307 322.399 402.224C360.016 444.204 426.681 439.697 476.06 416.61C527.92 392.149 566.461 351.494 603.732 312.178L604.115 311.775C607.725 307.964 611.458 304.025 615.173 300.135C654.377 259.102 697.468 216.933 755.001 191.749C771.153 184.693 788.171 179.512 805.578 176.35C821.769 173.408 838.84 172.117 856.315 172.511C886.783 173.198 919.425 178.895 956.107 189.926C994.659 201.477 1023.67 212.095 1050.17 224.356C1087.94 241.86 1124.51 263.978 1156.79 283.494C1228.64 327.178 1299.31 376.388 1366.81 429.754L1366.66 429.886C1299.16 376.525 1228.5 327.32 1156.66 283.64C1124.39 264.128 1087.82 242.013 1050.07 224.515C1023.57 212.258 994.571 201.644 956.033 190.095C876.518 166.185 812.672 166.76 755.102 191.908C697.607 217.076 654.533 259.227 615.344 300.245C611.629 304.134 607.896 308.075 604.286 311.884L603.904 312.288C585.33 331.88 566.124 352.139 545.384 370.235C522.077 390.57 499.435 405.791 476.165 416.765C451.82 428.147 425.3 434.303 400.887 434.303Z" fill="#FFE492"/>
<path d="M1364.33 428.163C1297.71 374.458 1228.14 324.621 1157.58 280.037C1154.59 278.162 1151.59 276.279 1148.59 274.39C1118.02 255.167 1086.41 235.289 1052.62 219.804C1019.83 204.824 986.595 195.663 958.411 188.679C880.616 169.281 817.611 172.209 760.13 197.892C701.122 224.335 655.399 268.238 618.662 303.516C616.457 305.634 614.256 307.755 612.051 309.878C610.424 311.445 608.795 313.013 607.166 314.578C586.248 334.686 567.221 352.663 546.198 369.067C522.18 387.806 499.031 401.53 475.422 411.024C453.297 419.923 429.662 424.631 407.678 424.633C403.672 424.633 399.726 424.478 395.848 424.162C381.69 423.009 368.583 419.77 356.892 414.534C344.135 408.821 333.039 400.706 323.909 390.413C323.094 389.49 322.28 388.536 321.493 387.577C307.522 370.57 299.351 350.73 291.45 331.543C289.748 327.411 287.987 323.136 286.206 318.987C276.072 295.319 264.385 274.656 250.482 255.817C248.752 253.473 246.96 251.125 245.158 248.836C212.21 207.019 166.756 171.776 113.71 146.915C51.8007 117.967 -13.9077 104.655 -71.3127 109.426C-110.557 112.753 -150.686 132.093 -168.902 156.455C-181.313 173.053 -183.513 191.525 -175.271 209.875L-175.478 209.939C-179.793 200.331 -181.297 190.716 -179.947 181.36C-178.705 172.746 -175.051 164.335 -169.089 156.359C-159.737 143.85 -144.927 132.669 -126.258 124.027C-108.991 116.035 -89.487 110.784 -71.3347 109.246C-41.2406 106.743 -9.01625 109.152 24.4436 116.405C54.7113 122.968 84.7835 133.178 113.82 146.754C166.899 171.63 212.377 206.893 245.345 248.736C247.149 251.027 248.941 253.376 250.671 255.72C264.583 274.57 276.274 295.244 286.415 318.923C288.196 323.074 289.957 327.347 291.659 331.481C299.555 350.657 307.722 370.484 321.676 387.471C322.463 388.429 323.274 389.38 324.087 390.301C363.358 434.575 430.104 429.045 475.327 410.858C529.283 389.158 570.571 349.473 607.001 314.458C608.63 312.89 610.257 311.323 611.886 309.757C614.089 307.634 616.292 305.513 618.497 303.396C639.467 283.259 660.176 263.691 682.943 245.659C709.124 224.922 734.34 209.245 760.028 197.731C776.011 190.59 792.787 185.14 809.893 181.536C825.88 178.165 842.689 176.294 859.854 175.973C890.126 175.406 922.388 179.506 958.477 188.504C986.669 195.492 1019.92 204.655 1052.72 219.645C1086.54 235.136 1118.15 255.019 1148.72 274.245C1151.73 276.134 1154.72 278.018 1157.71 279.892C1228.29 324.48 1297.86 374.323 1364.49 428.033L1364.33 428.163Z" fill="#FFE492"/>
<path d="M1362 426.441C1295 371.366 1226.53 320.896 1158.49 276.433C1154.42 273.773 1150.26 271.031 1146.23 268.38C1117.39 249.395 1087.56 229.763 1055.16 215.094C1022.81 200.499 989.303 192.833 960.788 187.261C884.885 172.285 822.721 177.565 765.155 203.877C710.248 229.065 667.231 266.941 625.631 303.569L621.062 307.59C617.455 310.767 613.724 314.05 610.046 317.271C568.404 353.689 526.717 387.822 474.679 405.28C462.051 409.516 449.085 412.452 436.136 414.011C422.231 415.682 408.724 415.706 395.989 414.08C382.156 412.314 369.346 408.603 357.914 403.051C345.474 397.009 334.6 388.746 325.6 378.493C324.789 377.565 323.982 376.61 323.202 375.652C309.402 358.746 300.936 339.198 292.749 320.293C290.922 316.074 289.032 311.712 287.123 307.475C276.518 283.88 264.541 263.384 250.507 244.815C248.752 242.494 246.934 240.165 245.103 237.894C211.691 196.448 165.879 161.669 112.616 137.314C50.2685 108.891 -15.6245 96.2046 -72.9306 101.596C-111.816 105.332 -151.763 124.807 -170.072 148.957C-182.689 165.597 -185.324 184.14 -177.696 202.583L-177.905 202.644C-181.897 192.994 -183.13 183.342 -181.572 173.959C-180.134 165.308 -176.329 156.864 -170.261 148.862C-160.808 136.395 -146.05 125.225 -127.579 116.558C-110.484 108.536 -91.0851 103.16 -72.957 101.417C-42.8981 98.5887 -10.6407 100.673 22.9247 107.612C53.2672 113.886 83.4778 123.824 112.719 137.155C166.013 161.523 211.852 196.324 245.283 237.794C247.114 240.066 248.935 242.398 250.689 244.718C264.733 263.296 276.716 283.803 287.326 307.411C289.234 311.648 291.125 316.012 292.951 320.231C301.134 339.125 309.596 358.664 323.38 375.55C324.158 376.504 324.965 377.457 325.774 378.385C364.099 422.044 427.778 420.818 474.593 405.112C526.59 387.668 568.259 353.548 609.883 317.147C613.561 313.926 617.292 310.643 620.9 307.466L625.468 303.445C645.889 285.466 667.003 266.873 689.934 249.577C715.906 229.989 740.476 214.988 765.045 203.716C780.865 196.485 797.404 190.767 814.2 186.722C829.991 182.918 846.538 180.466 863.383 179.434C893.523 177.587 925.398 180.09 960.836 187.082C989.365 192.658 1022.89 200.325 1055.26 214.933C1087.68 229.607 1117.51 249.245 1146.36 268.236C1150.39 270.887 1154.56 273.627 1158.63 276.289C1226.67 320.755 1295.15 371.229 1362.16 426.31L1362 426.441Z" fill="#FFE492"/>
<path d="M1359.67 424.722C1293.25 369.036 1225.87 317.933 1159.41 272.835C1154.42 269.446 1149.3 265.922 1144.34 262.514C1117.06 243.733 1088.84 224.313 1057.71 210.39C1025.51 196.045 991.849 189.934 963.165 185.849C889.366 175.178 828.043 182.811 770.179 209.868C719.681 233.579 678.222 267.184 638.125 299.681C633.906 303.101 629.542 306.637 625.29 310.062C620.298 314.085 616.484 317.142 612.924 319.97C593.862 335.108 571.165 352.538 547.348 367.037C522.108 382.4 498.095 393.032 473.934 399.544C461.229 402.967 448.318 405.127 435.556 405.96C421.854 406.855 408.586 406.197 396.125 404.003C382.625 401.626 370.114 397.444 358.935 391.574C346.813 385.209 336.166 376.798 327.289 366.578C326.489 365.652 325.686 364.695 324.908 363.734C311.291 346.941 302.541 327.694 294.077 309.081C292.114 304.764 290.085 300.301 288.038 295.965C276.956 272.436 264.687 252.108 250.527 233.815C248.746 231.515 246.902 229.207 245.044 226.955C211.169 185.88 164.995 151.565 111.517 127.716C48.7365 99.8149 -17.3412 87.7589 -74.5461 93.7659C-107.096 97.259 -149.609 113.351 -171.21 141.423C-184.053 158.114 -187.136 176.742 -180.121 195.29L-180.329 195.345C-183.999 185.646 -184.957 175.952 -183.181 166.533C-181.541 157.838 -177.577 149.358 -171.395 141.325C-161.841 128.909 -147.138 117.757 -128.871 109.072C-111.948 101.026 -92.6654 95.527 -74.5725 93.585C-44.5488 90.4317 -12.2563 92.1911 21.4102 98.8155C51.8253 104.801 82.1766 114.469 111.62 127.555C165.129 151.417 211.329 185.752 245.224 226.851C247.082 229.103 248.928 231.414 250.709 233.716C264.876 252.019 277.152 272.358 288.241 295.898C290.289 300.235 292.319 304.698 294.282 309.015C302.739 327.619 311.487 346.855 325.088 363.63C325.866 364.589 326.667 365.544 327.467 366.469C359.35 403.179 414.08 415.478 473.866 399.366C528.008 384.776 572.174 352.076 612.773 319.834C616.332 317.006 620.144 313.95 625.136 309.927C629.388 306.501 633.752 302.966 637.971 299.546C657.71 283.548 678.12 267.005 699.891 251.514C724.509 233.996 747.467 220.319 770.073 209.705C785.742 202.379 802.038 196.392 818.515 191.912C834.122 187.668 850.408 184.638 866.92 182.9C896.986 179.74 928.48 180.644 963.202 185.664C991.902 189.753 1025.59 195.866 1057.81 210.224C1088.96 224.156 1117.19 243.582 1144.48 262.368C1149.43 265.775 1154.55 269.3 1159.55 272.689C1226.01 317.792 1293.39 368.899 1359.83 424.589L1359.67 424.722Z" fill="#FFE492"/>
<path d="M1357.34 423.001C1291.49 366.699 1225.2 314.962 1160.32 269.232C1154.8 265.343 1149.14 261.259 1143.65 257.311C1117.54 238.505 1090.53 219.059 1060.25 205.68C1028.03 191.507 994.295 186.985 965.54 184.431C895.087 178.006 832.826 188.284 775.201 215.853C729.318 237.904 689.986 267.403 651.949 295.933C644.266 301.695 636.323 307.654 628.6 313.334C623.876 316.811 619.69 319.864 615.799 322.666C597.704 335.685 573.633 352.378 547.912 366.019C522.067 379.725 497.623 388.814 473.183 393.803C446.527 399.246 419.924 399.286 396.252 393.922C383.09 390.939 370.876 386.287 359.947 380.096C348.148 373.411 337.728 364.854 328.972 354.665C328.178 353.737 327.382 352.778 326.608 351.817C313.185 335.151 304.163 316.221 295.439 297.915C293.329 293.486 291.148 288.908 288.947 284.46C277.379 260.993 264.818 240.829 250.543 222.819C248.736 220.539 246.865 218.251 244.981 216.019C210.642 175.315 164.111 141.462 110.416 118.123C47.2033 90.7461 -19.0591 79.3187 -76.1651 85.9413C-114.866 90.5269 -153.507 109.783 -172.317 133.854C-185.406 150.606 -188.944 169.33 -182.546 188.003L-182.757 188.052C-186.101 178.295 -186.783 168.55 -184.784 159.09C-182.938 150.346 -178.805 141.822 -172.502 133.754C-162.846 121.397 -148.201 110.271 -130.147 101.578C-113.402 93.5157 -94.2404 87.8961 -76.1959 85.7586C-46.2073 82.2801 -13.8796 83.7161 19.8902 90.0245C50.38 95.7209 80.8719 105.119 110.518 117.958C164.242 141.312 210.8 175.183 245.162 215.913C247.046 218.146 248.916 220.435 250.726 222.717C265.007 240.737 277.575 260.91 289.15 284.388C291.35 288.837 293.531 293.417 295.642 297.845C304.36 316.142 313.378 335.064 326.789 351.713C327.562 352.674 328.356 353.629 329.15 354.557C360.486 391.03 414.31 405.635 473.13 393.626C526.754 382.677 573.321 352.984 615.654 322.529C619.543 319.727 623.731 316.676 628.453 313.199C636.174 307.519 644.119 301.561 651.8 295.799C689.846 267.264 729.184 237.758 775.089 215.697C790.619 208.267 806.678 202.014 822.821 197.107C838.26 192.415 854.285 188.803 870.447 186.371C900.506 181.85 931.618 181.157 965.56 184.252C994.335 186.808 1028.1 191.332 1060.36 205.521C1090.66 218.909 1117.67 238.362 1143.8 257.176C1149.28 261.124 1154.95 265.205 1160.47 269.095C1225.35 314.829 1291.64 366.569 1357.5 422.875L1357.34 423.001Z" fill="#FFE492"/>
<path d="M1355.01 421.279C1289.74 364.355 1224.55 311.988 1161.24 265.63C1155.42 261.369 1149.44 256.859 1143.65 252.496C1118.49 233.531 1092.47 213.918 1062.8 200.971C1030.44 186.918 996.679 184.008 967.915 183.014C900.125 180.5 838.729 193.199 780.225 221.838C739.196 242.019 702.621 267.559 667.249 292.257C655.087 300.751 643.598 308.773 631.914 316.605C627.161 319.793 622.832 322.658 618.677 325.36C591.867 342.779 569.562 355.374 548.479 364.995C522.03 377.066 497.157 384.611 472.438 388.06C462.849 389.397 453.295 390.064 443.914 390.064C427.285 390.064 411.195 387.974 396.382 383.834C369.575 376.342 347.463 362.518 330.661 342.745C329.869 341.807 329.08 340.848 328.315 339.891C315.096 323.37 305.821 304.776 296.851 286.791C294.578 282.235 292.23 277.525 289.862 272.945C277.8 249.533 264.943 229.537 250.566 211.814C248.732 209.554 246.835 207.287 244.925 205.074C210.122 164.741 163.229 131.352 109.32 108.519C45.6736 81.6685 -20.7713 70.8677 -77.7784 78.106C-116.64 83.1428 -154.167 102.033 -173.379 126.233C-186.734 143.053 -190.739 161.889 -184.966 180.705L-185.18 180.75C-188.194 170.925 -188.594 161.122 -186.367 151.613C-184.305 142.81 -179.998 134.239 -173.561 126.132C-163.805 113.843 -149.222 102.753 -131.389 94.0606C-114.824 85.9855 -95.7966 80.2563 -77.8113 77.9251C-47.8579 74.1214 -15.4951 75.2322 18.3759 81.2264C48.9404 86.6359 79.5709 95.7633 109.421 108.355C163.361 131.202 210.28 164.609 245.105 204.966C247.015 207.181 248.913 209.448 250.748 211.71C265.135 229.442 277.998 249.449 290.065 272.87C292.432 277.45 294.782 282.162 297.053 286.718C306.019 304.693 315.289 323.281 328.497 339.787C329.262 340.742 330.049 341.702 330.841 342.637C362.217 379.563 413.813 396.053 472.401 387.877C528.173 380.095 577.571 351.834 618.541 325.213C622.693 322.511 627.022 319.649 631.775 316.461C643.458 308.629 654.946 300.608 667.108 292.115C702.485 267.411 739.069 241.867 780.113 221.679C795.526 214.134 811.346 207.612 827.135 202.292C842.427 197.14 858.19 192.947 873.983 189.832C904.104 183.893 934.833 181.602 967.924 182.829C996.712 183.823 1030.51 186.737 1062.9 200.807C1092.6 213.763 1118.62 233.384 1143.8 252.357C1149.59 256.72 1155.57 261.231 1161.38 265.489C1224.7 311.851 1289.9 364.224 1355.17 421.151L1355.01 421.279Z" fill="#FFE492"/>
<path d="M1352.68 419.559C1287.09 361.2 1224.77 309.671 1162.16 262.028C1156.18 257.483 1150.3 252.841 1144.07 247.926C1119.73 228.714 1094.56 208.85 1065.35 196.264C1032.59 182.217 997.339 181.048 970.292 181.599C905.588 182.747 845.059 197.868 785.249 227.828C749.364 245.891 716.232 267.582 684.19 288.561C667.35 299.586 651.445 309.998 635.225 319.88C630.41 322.816 625.937 325.49 621.553 328.057C594.378 343.944 571.339 355.355 549.043 363.971C521.98 374.428 496.679 380.43 471.691 382.319C458.853 383.289 446.102 383.106 433.793 381.776C420.761 380.368 408.217 377.666 396.51 373.747C370.562 365.06 348.976 350.622 332.349 330.831C331.565 329.892 330.782 328.931 330.021 327.973C317.024 311.622 307.516 293.382 298.32 275.743C295.867 271.037 293.33 266.17 290.777 261.438C278.209 238.077 265.063 218.248 250.586 200.817C248.724 198.577 246.8 196.33 244.868 194.138C209.601 154.175 162.351 121.25 108.226 98.9232C58.2688 78.4012 6.75119 67.6936 -40.4905 67.6936C-53.8459 67.6936 -66.8495 68.5486 -79.3914 70.2787C-117.785 75.6791 -155.076 94.6372 -174.4 118.577C-188.039 135.476 -192.531 154.44 -187.389 173.416L-187.604 173.457C-190.288 163.555 -190.4 153.684 -187.938 144.12C-185.656 135.254 -181.163 126.625 -174.585 118.475C-164.727 106.262 -150.213 95.2182 -132.608 86.5348C-115.991 78.3373 -97.6009 72.6537 -79.431 70.0996C-49.5128 65.9708 -17.1148 66.7582 16.8595 72.4363C47.4966 77.5554 78.27 86.4105 108.322 98.7569C162.478 121.097 209.757 154.04 245.046 194.026C246.981 196.218 248.906 198.467 250.768 200.709C265.252 218.149 278.405 237.988 290.98 261.36C293.532 266.091 296.071 270.958 298.525 275.666C307.716 293.298 317.22 311.531 330.206 327.869C330.967 328.825 331.749 329.786 332.532 330.723C363.624 367.731 414.337 386.468 471.674 382.134C529.692 377.748 582.182 350.848 621.43 327.904C625.813 325.337 630.285 322.662 635.1 319.728C651.317 309.85 667.221 299.437 684.058 288.413C716.104 267.432 749.241 245.736 785.139 227.667C815.932 212.242 846.149 201.001 877.521 193.299C907.775 185.871 938.122 181.983 970.292 181.413C988.644 181.038 1003.62 181.689 1017.41 183.457C1035.23 185.741 1050.94 189.875 1065.45 196.098C1094.69 208.695 1119.87 228.57 1144.23 247.791C1150.46 252.705 1156.34 257.346 1162.31 261.891C1224.93 309.536 1287.25 361.068 1352.84 419.431L1352.68 419.559Z" fill="#FFE492"/>
<path d="M1350.35 417.836C1285.36 358.837 1224.1 306.695 1163.07 258.423C1157.04 253.648 1151.08 248.728 1144.78 243.519C1121.16 224.004 1096.75 203.822 1067.89 191.552C1034.86 177.571 999.651 178.13 972.668 180.178C911.607 184.652 851.944 202.196 790.272 233.809C759.886 249.46 730.954 267.372 702.975 284.695C680.857 298.388 659.968 311.322 638.537 323.144C633.694 325.819 628.946 328.377 624.428 330.744C597.201 345.002 572.726 355.53 549.605 362.933C521.92 371.797 496.19 376.259 470.944 376.569C458.098 376.727 445.398 375.762 433.203 373.699C420.42 371.536 408.117 368.155 396.637 363.646C371.58 353.804 350.517 338.752 334.035 318.906C333.261 317.969 332.483 317.006 331.725 316.043C318.972 299.891 309.257 282.036 299.861 264.77C297.203 259.885 294.453 254.832 291.689 249.919C278.607 226.602 265.168 206.94 250.605 189.807C248.717 187.588 246.767 185.361 244.808 183.188C209.077 143.597 161.466 111.136 107.126 89.3151C42.6157 63.5188 -24.2007 53.9749 -81.0099 62.4409C-118.906 68.1866 -155.949 87.194 -175.381 110.862C-189.328 127.851 -194.318 146.957 -189.816 166.118L-190.031 166.152C-192.379 156.164 -192.199 146.217 -189.493 136.587C-186.98 127.648 -182.295 118.957 -175.564 110.758C-165.609 98.6324 -151.168 87.6434 -133.8 78.9783C-117.374 70.7827 -99.1336 65.0022 -81.0494 62.26C-51.1642 57.8078 -18.7332 58.2682 15.3422 63.632C46.054 68.4661 76.9659 77.0509 107.221 89.1488C161.594 110.981 209.231 143.462 244.982 183.077C246.943 185.249 248.895 187.478 250.784 189.7C265.355 206.842 278.798 226.512 291.887 249.839C294.653 254.751 297.401 259.805 300.061 264.692C309.453 281.951 319.163 299.798 331.907 315.939C332.666 316.9 333.444 317.863 334.216 318.798C365.635 356.63 414.192 377.085 470.939 376.383C516.985 375.817 565.719 361.263 624.309 330.585C628.825 328.218 633.571 325.662 638.414 322.987C659.838 311.167 680.727 298.236 702.841 284.543C730.825 267.218 759.76 249.303 790.155 233.648C821.25 217.708 850.981 205.643 881.049 196.759C911.51 187.759 941.472 182.273 972.648 179.989C999.66 177.938 1034.91 177.381 1067.99 191.384C1096.88 203.668 1121.31 223.86 1144.94 243.384C1151.24 248.593 1157.19 253.511 1163.22 258.285C1224.26 306.558 1285.52 358.704 1350.51 417.706L1350.35 417.836Z" fill="#FFE492"/>
<path d="M1348.02 416.114C1283.63 356.474 1223.44 303.714 1163.99 254.822C1157.96 249.858 1152 244.7 1145.69 239.24C1122.74 219.375 1099.01 198.835 1070.44 186.843C1037.1 172.913 1001.95 175.206 975.046 178.759C917.594 186.204 860.48 205.598 795.297 239.795C770.85 252.679 746.96 266.812 723.857 280.479C695.797 297.079 669.292 312.759 641.85 326.415C636.905 328.878 632.012 331.242 627.305 333.438C599.59 346.362 574.358 355.672 550.169 361.898C536.62 365.386 523.245 367.912 510.415 369.409C496.73 371.004 483.199 371.48 470.198 370.826C443.819 369.498 419.113 363.685 396.768 353.549C372.636 342.602 352.099 326.938 335.727 306.988C334.958 306.043 334.186 305.079 333.432 304.121C320.952 288.207 311.063 270.776 301.502 253.921C298.607 248.818 295.615 243.542 292.605 238.408C278.995 215.13 265.264 195.634 250.627 178.806C248.712 176.605 246.733 174.398 244.75 172.248C208.556 133.025 160.586 101.028 106.03 79.7172C41.0892 54.4489 -25.9097 45.5335 -82.6244 54.6115C-143.351 64.4824 -202.526 107.132 -192.237 158.825L-192.455 158.855C-195.029 145.924 -193.521 133.184 -187.975 120.988C-182.909 109.849 -174.597 99.3659 -163.269 89.833C-152.736 80.9687 -140.1 73.3157 -125.713 67.0858C-112.03 61.1611 -97.1449 56.7837 -82.6684 54.4307C-52.8183 49.6532 -20.3521 49.7902 13.8266 54.8399C44.6132 59.3871 75.6658 67.7015 106.123 79.5528C160.709 100.879 208.707 132.894 244.924 172.138C246.909 174.29 248.888 176.497 250.805 178.701C265.448 195.536 279.186 215.042 292.803 238.33C295.813 243.464 298.805 248.74 301.7 253.844C311.259 270.694 321.143 288.117 333.617 304.023C334.369 304.98 335.138 305.945 335.907 306.887C367.373 345.227 415.07 367.869 470.211 370.646C516.892 372.993 568.242 360.773 627.197 333.281C631.902 331.085 636.793 328.723 641.738 326.26C669.174 312.607 695.673 296.929 723.73 280.331C746.835 266.662 770.727 252.527 795.178 239.642C860.387 205.43 917.529 186.028 975.01 178.578C993.086 176.19 1008.05 175.427 1022.11 176.178C1040.08 177.137 1055.92 180.571 1070.54 186.679C1099.14 198.684 1122.88 219.237 1145.84 239.112C1152.15 244.571 1158.11 249.728 1164.14 254.69C1223.6 303.586 1283.79 356.348 1348.18 415.992L1348.02 416.114Z" fill="#FFE492"/>
<path d="M1345.69 414.397C1281.92 354.106 1222.78 300.732 1164.91 251.222C1158.92 246.099 1153 240.734 1146.74 235.05C1124.41 214.806 1101.33 193.871 1072.99 182.137C1038.92 168.089 1002.13 172.673 977.423 177.343C910.363 189.861 850.265 218.964 800.323 245.785C782.373 255.464 764.469 265.717 747.153 275.632C712.415 295.522 679.606 314.308 645.166 329.691C640.101 331.954 635.062 334.123 630.186 336.138C601.93 347.792 575.942 355.882 550.74 360.866C522.169 366.516 494.823 367.938 469.456 365.088C443.396 362.159 418.984 354.881 396.903 343.453C373.743 331.468 353.731 315.192 337.419 295.076C336.658 294.131 335.891 293.165 335.141 292.204C322.971 276.582 312.959 259.63 303.275 243.235C300.103 237.862 296.821 232.308 293.523 226.902C279.178 203.331 265.555 184.556 250.652 167.81C248.711 165.629 246.708 163.444 244.696 161.312C208.033 122.462 159.703 90.9289 104.932 70.122C39.5601 45.3834 -27.6234 37.0946 -84.2414 46.7847C-145.186 57.3535 -203.151 99.4242 -194.661 151.537L-194.879 151.561C-196.985 138.632 -195.162 125.906 -189.464 113.736C-184.241 102.587 -175.88 92.0927 -164.611 82.5488C-154.103 73.6479 -141.532 65.9383 -127.247 59.6299C-113.645 53.6229 -98.7883 49.1195 -84.2854 46.6038C-54.4683 41.5012 -21.9691 41.3149 12.3107 46.0485C43.1721 50.3089 74.3654 58.3528 105.024 69.9557C159.829 90.7736 208.185 122.325 244.866 161.198C246.877 163.332 248.882 165.519 250.825 167.7C265.737 184.453 279.365 203.24 293.716 226.82C297.014 232.226 300.296 237.781 303.469 243.154C313.15 259.544 323.16 276.491 335.321 292.105C336.071 293.066 336.836 294.031 337.597 294.975C369.307 334.079 416.144 358.914 469.482 364.907C517.319 370.282 569.853 360.816 630.087 335.974C634.961 333.96 640 331.794 645.06 329.53C679.492 314.151 712.297 295.368 747.027 275.48C764.344 265.565 782.25 255.311 800.202 245.63C833.785 227.596 861.723 214.272 888.117 203.7C919.189 191.255 948.384 182.575 977.373 177.164C995.043 173.824 1010.45 172.311 1024.46 172.542C1042.51 172.838 1058.41 175.922 1073.08 181.972C1101.46 193.721 1124.56 214.669 1146.9 234.926C1153.16 240.608 1159.08 245.973 1165.06 251.092C1222.94 300.604 1282.08 353.982 1345.85 414.274L1345.69 414.397Z" fill="#FFE492"/>
<path d="M1343.36 412.672C1280.2 351.729 1222.13 297.739 1165.83 247.616C1159.92 242.359 1154.08 236.807 1147.89 230.928C1126.15 210.277 1103.68 188.922 1075.54 177.425C1041.09 163.41 1004.4 169.854 979.802 175.921C919.042 190.776 864.847 219.061 805.349 251.768C794.618 257.689 783.765 263.8 773.268 269.712C732.896 292.447 691.152 315.954 648.479 332.959C643.295 335.027 638.107 337.002 633.061 338.829C604.614 349.118 577.107 356.181 551.305 359.822C522.075 363.947 494.287 363.785 468.706 359.342C443.011 354.879 418.896 346.133 397.031 333.348C374.904 320.41 355.413 303.523 339.101 283.159C338.346 282.212 337.586 281.244 336.841 280.283C325.037 265.026 314.962 248.626 305.219 232.766C301.708 227.052 298.078 221.143 294.431 215.394C279.526 191.847 265.619 173.232 250.665 156.811C248.702 154.656 246.67 152.489 244.63 150.373C207.51 111.889 158.824 80.8201 103.833 60.521C38.0322 36.3123 -29.3338 28.652 -85.8594 38.9523C-144.869 49.8225 -203.905 90.417 -197.088 144.242L-197.306 144.26C-198.944 131.331 -196.807 118.619 -190.957 106.478C-185.577 95.315 -177.166 84.812 -165.959 75.2571C-145.28 57.6308 -116.103 44.3326 -85.9077 38.7714C-56.1258 33.3454 -23.5915 32.8339 10.7917 37.2514C41.7278 41.2268 73.0596 48.9986 103.921 60.353C158.943 80.663 207.657 111.752 244.802 150.255C246.844 152.372 248.875 154.539 250.841 156.696C265.801 173.126 279.715 191.748 294.625 215.304C298.272 221.056 301.903 226.964 305.414 232.679C315.155 248.535 325.229 264.931 337.025 280.181C337.768 281.142 338.529 282.108 339.283 283.054C371.919 323.799 416.687 350.116 468.748 359.161C516.954 367.536 572.205 360.639 632.969 338.661C638.012 336.834 643.196 334.861 648.378 332.795C691.036 315.795 732.775 292.291 773.138 269.561C783.635 263.649 794.489 257.538 805.221 251.617C831.266 237.299 861.571 220.877 891.648 207.165C923.109 192.824 951.922 182.547 979.734 175.748C997.242 171.431 1012.64 169.191 1026.81 168.902C1044.67 168.537 1061.1 171.35 1075.63 177.262C1088.23 182.412 1100.92 190.098 1114.42 200.76C1126.34 210.174 1137.38 220.665 1148.05 230.808C1154.23 236.685 1160.08 242.237 1165.98 247.491C1222.29 297.617 1280.36 351.608 1343.52 412.553L1343.36 412.672Z" fill="#FFE492"/>
<path d="M1341.03 410.952C1278.49 349.352 1221.48 294.747 1166.74 244.016C1160.94 238.645 1155.2 232.925 1149.12 226.871C1127.95 205.79 1106.07 183.991 1078.08 172.72C1051.93 162.221 1020.56 162.805 982.176 174.507C928.508 190.776 880.535 217.988 829.742 246.801C823.418 250.389 816.879 254.097 810.372 257.76C807.824 259.198 805.274 260.64 802.726 262.079C754.33 289.427 704.288 317.706 651.792 336.234C646.485 338.109 641.151 339.89 635.939 341.527C606.867 350.649 578.585 356.455 551.878 358.783C521.973 361.388 493.739 359.645 467.965 353.601C442.67 347.669 418.852 337.457 397.174 323.247C376.161 309.474 357.193 291.979 340.795 271.245C340.048 270.297 339.294 269.327 338.553 268.364C327.198 253.586 317.156 237.847 307.441 222.627C303.508 216.463 299.439 210.088 295.352 203.884C279.871 180.353 265.682 161.899 250.693 145.811C248.702 143.674 246.646 141.529 244.58 139.434C206.989 101.322 157.942 70.7152 102.736 50.924C36.5086 27.2469 -31.0443 20.2132 -87.4754 31.1237C-145.401 42.416 -204.354 83.343 -199.511 136.953L-199.731 136.967C-200.898 124.036 -198.449 111.339 -192.447 99.2281C-186.91 88.0528 -178.45 77.537 -167.302 67.9748C-146.712 50.312 -117.635 36.8164 -87.5259 30.9465C-57.777 25.1953 -25.2097 24.3586 9.27463 28.4619C40.2854 32.1486 71.7601 39.65 102.824 50.7559C158.061 70.5599 207.138 101.183 244.745 139.315C246.811 141.41 248.871 143.559 250.863 145.696C265.858 161.793 280.055 180.253 295.541 203.793C299.63 209.997 303.697 216.373 307.632 222.537C317.343 237.754 327.385 253.489 338.736 268.262C339.476 269.224 340.228 270.193 340.976 271.141C374.319 313.299 418.25 341.75 468.022 353.42C517.154 364.941 573.623 360.88 635.86 341.352C641.068 339.715 646.399 337.935 651.704 336.063C704.182 317.541 754.216 289.268 802.601 261.924C805.151 260.482 807.699 259.043 810.247 257.605C816.754 253.942 823.292 250.233 829.617 246.647C880.42 217.829 928.407 190.61 982.099 174.333C999.44 169.046 1014.84 166.081 1029.16 165.264C1047.1 164.243 1063.59 166.697 1078.18 172.554C1090.71 177.602 1103.24 185.322 1116.49 196.158C1128.17 205.718 1138.91 216.411 1149.29 226.752C1155.37 232.804 1161.11 238.523 1166.9 243.892C1221.65 294.624 1278.66 349.231 1341.19 410.834L1341.03 410.952Z" fill="#FFE492"/>
<path d="M1338.69 409.23C1281.62 351.828 1224.07 295.029 1167.66 240.412C1161.91 234.884 1156.22 228.945 1150.19 222.658C1130.6 202.208 1108.38 179.029 1080.63 168.011C1054.17 157.53 1022.75 159.191 984.55 173.086C939.135 189.554 898.946 213.768 856.396 239.404C843.071 247.432 829.292 255.735 815.393 263.744C791.134 277.755 764.891 292.581 737.382 306.083C707.921 320.545 681.006 331.476 655.098 339.504C649.655 341.19 644.176 342.777 638.81 344.219C609.122 352.19 580.07 356.726 552.461 357.702C521.896 358.78 493.216 355.469 467.213 347.854C419.195 333.619 377.227 303.834 342.477 259.327C341.736 258.377 340.989 257.405 340.252 256.442C329.473 242.316 319.607 227.414 310.066 213.001C305.574 206.218 300.931 199.202 296.26 192.375C280.189 168.85 265.715 150.558 250.709 134.812C248.688 132.693 246.606 130.568 244.516 128.494C206.468 90.7499 157.06 60.6092 101.638 41.324C34.9826 18.1768 -32.7528 11.7734 -89.0915 23.2922C-147.369 35.2751 -204.845 75.6595 -201.936 129.66L-202.156 129.667C-202.853 116.733 -200.087 104.05 -193.938 91.9703C-188.24 80.7804 -179.732 70.2536 -168.648 60.6841C-158.205 51.6681 -145.828 43.7849 -131.862 37.2518C-118.302 30.9105 -103.931 26.1532 -89.1465 23.1132C-59.4305 17.0386 -26.828 15.8767 7.7574 19.6639C38.843 23.0675 70.4562 30.2967 101.722 41.1541C157.177 60.4502 206.613 90.6093 244.683 128.372C246.773 130.447 248.86 132.574 250.88 134.693C265.893 150.449 280.374 168.747 296.451 192.28C301.123 199.109 305.766 206.125 310.257 212.91C319.798 227.321 329.662 242.221 340.437 256.341C341.171 257.306 341.921 258.276 342.659 259.226C377.383 303.699 419.314 333.46 467.285 347.681C516.699 362.15 575.988 360.893 638.742 344.043C644.104 342.602 649.582 341.016 655.021 339.332C712.947 321.386 765.946 292.076 815.266 263.593C829.164 255.583 842.941 247.282 856.266 239.254C898.825 213.613 939.023 189.393 984.46 172.918C1022.71 159.001 1054.2 157.34 1080.72 167.845C1093.15 172.779 1105.49 180.515 1118.45 191.489C1129.88 201.166 1140.29 212.035 1150.37 222.543C1156.39 228.83 1162.08 234.767 1167.82 240.292C1224.24 294.91 1281.79 351.709 1338.86 409.113L1338.69 409.23Z" fill="#FFE492"/>
<path d="M1336.36 407.511C1280.16 349.791 1223.71 292.359 1168.57 236.811C1163.01 231.223 1157.49 225.179 1151.64 218.781C1132.52 197.854 1110.86 174.133 1083.17 163.301C1056.4 152.838 1024.92 155.575 986.924 171.665C947.117 188.498 910.544 212.267 875.176 235.255C857.442 246.781 839.103 258.7 820.416 269.729C790.922 287.154 766.106 300.447 742.317 311.564C712.984 325.271 685.537 335.48 658.411 342.773C652.842 344.272 647.214 345.664 641.685 346.912C612.877 353.41 584.588 356.698 557.525 356.7C556.022 356.7 554.527 356.689 553.032 356.669C521.744 356.245 492.619 351.345 466.467 342.109C453.844 337.625 441.482 331.934 429.727 325.193C418.678 318.857 407.82 311.394 397.454 303.012C378.805 287.933 361.372 269.744 344.163 247.409C343.424 246.448 342.688 245.486 341.956 244.519C331.97 231.342 322.524 217.566 313.389 204.244C308.115 196.555 302.663 188.602 297.172 180.861C280.264 157.013 265.941 139.416 250.726 123.808C248.679 121.709 246.571 119.604 244.454 117.551C205.944 80.181 156.179 50.5043 100.541 31.7253C33.4587 9.10965 -34.4612 3.33471 -90.7076 15.4619C-147.893 27.8266 -205.293 68.5179 -204.359 122.367L-204.579 122.369C-205.014 97.2866 -193.053 73.436 -169.989 53.3963C-159.564 44.3384 -147.253 36.3986 -133.394 29.7924C-119.909 23.3652 -105.567 18.4836 -90.7626 15.2829C-61.0818 8.88311 -28.4442 7.39781 6.24239 10.869C37.4027 13.9876 69.1566 20.9463 100.622 31.5535C156.295 50.3454 206.089 80.0403 244.623 117.432C246.74 119.487 248.853 121.594 250.899 123.693C266.121 139.31 280.451 156.912 297.363 180.77C302.855 188.513 308.309 196.465 313.581 204.155C322.715 217.475 332.159 231.248 342.142 244.422C342.874 245.389 343.609 246.352 344.347 247.311C380.916 294.771 420.89 325.725 466.553 341.94C529.799 364.28 596.668 356.879 641.628 346.736C647.152 345.488 652.776 344.098 658.342 342.6C720.731 325.825 777.661 294.765 820.289 269.581C838.973 258.556 857.31 246.637 875.042 235.112C910.419 212.12 946.998 188.345 986.825 171.504C1003.83 164.304 1019.21 159.883 1033.86 157.99C1051.93 155.655 1068.55 157.387 1083.27 163.138C1095.66 167.989 1107.89 175.786 1120.63 186.974C1131.87 196.833 1142.01 207.935 1151.82 218.674C1157.66 225.07 1163.18 231.111 1168.74 236.696C1223.88 292.244 1280.33 349.676 1336.54 407.396L1336.36 407.511Z" fill="#FFE492"/>
<path d="M1334.03 405.788L1169.49 233.209C1164.12 227.573 1158.78 221.44 1153.13 214.949C1134.48 193.526 1113.35 169.246 1085.72 158.593C1059 148.293 1026.56 152.213 989.301 170.247C953.48 187.583 920.809 210.637 889.214 232.933C868.619 247.466 847.323 262.493 825.442 275.718C759.676 315.468 702.201 338.946 644.565 349.606C620.655 354.028 597.069 356.253 574.194 356.253C567.26 356.253 560.397 356.048 553.606 355.639C521.579 353.71 492.011 347.224 465.724 336.365C441.362 326.298 419.074 312.088 397.596 292.92C380.443 277.614 364.002 259.367 345.854 235.494C336.275 222.896 327 209.806 318.031 197.147C297.73 168.501 276.74 138.879 250.752 112.808C210.891 72.8221 158.569 41.4646 99.4422 22.1247C31.9355 0.0425545 -36.1691 -5.10574 -92.3232 7.62981C-146.69 19.9598 -205.698 58.8406 -206.784 115.074L-207.003 115.07C-206.518 89.935 -194.182 66.0881 -171.332 46.1069C-150.671 28.0403 -122.633 14.3127 -92.3803 7.4526C-62.7325 0.729483 -30.0597 -1.08101 4.72578 2.07411C35.9608 4.90585 67.8555 11.5961 99.5236 21.9548C128.78 31.5243 156.566 44.121 182.111 59.396C207.87 74.7989 231.022 92.7284 250.92 112.688C276.918 138.767 297.915 168.396 318.22 197.05C327.189 209.707 336.464 222.795 346.04 235.392C372.518 270.224 410.063 313.159 465.823 336.197C529.771 362.616 598.293 357.972 644.517 349.424C702.124 338.771 759.573 315.302 825.312 275.566C847.184 262.346 868.478 247.32 889.071 232.79C920.673 210.491 953.352 187.431 989.191 170.086C1026.52 152.022 1059.03 148.097 1085.81 158.425C1098.18 163.195 1110.29 171.06 1122.84 182.473C1133.88 192.519 1143.76 203.866 1153.31 214.839C1158.96 221.33 1164.29 227.459 1169.66 233.094L1334.21 405.673L1334.03 405.788Z" fill="#FFE492"/>
<path d="M1332.71 392.52C1290.81 344.468 1254.86 305.476 1219.57 269.812C1202.45 252.488 1184.95 235.435 1167.58 219.128C1162.33 214.195 1157.12 208.948 1151.61 203.392C1137.76 189.429 1123.44 174.991 1106.96 164.276C1098.11 158.512 1089.59 154.385 1080.91 151.659C1054.28 143.21 1023.04 148.796 988.052 168.266C969.943 178.327 953.455 189.776 939.715 199.649C925.168 210.101 910.819 221.627 896.941 232.773C876.995 248.795 856.369 265.362 834.196 279.59C820.704 288.274 807.028 296.033 793.545 302.653C766.571 315.899 737.617 326.813 707.49 335.092C688.876 340.151 670.172 343.975 651.901 346.456C636.154 348.586 620.378 349.816 605.009 350.11C582.007 350.552 559.596 348.866 538.399 345.093C515.861 341.081 494.532 334.678 475.006 326.058C457.594 318.372 441.148 308.695 424.728 296.471C394.131 273.711 369.726 247.394 351.884 227.009C343.119 216.948 334.56 206.688 326.283 196.766C302.45 168.191 279.939 141.202 251.768 117.161C228.792 97.6824 202.579 80.8728 173.847 67.1963C151.769 56.686 127.756 48.0903 102.476 41.6467C96.4545 40.1139 90.3188 38.6852 84.2445 37.4045C58.0922 31.9 28.6511 28.3155 -3.25891 26.7499C-35.4305 25.1348 -63.2646 26.5325 -88.3463 31.0267C-102.526 33.5479 -116.264 37.5032 -129.184 42.7812C-174.797 61.4159 -204.086 92.6985 -207.533 126.464L-207.808 126.444C-206.889 117.443 -204.192 108.576 -199.793 100.088C-195.613 92.0262 -189.873 84.2508 -182.733 76.9778C-169.241 63.2392 -150.766 51.3422 -129.305 42.5748C-116.365 37.2876 -102.605 33.3268 -88.4035 30.802C-63.2954 26.3041 -35.4393 24.9047 -3.24133 26.5215C28.6862 28.0872 58.1428 31.6753 84.3127 37.1835C90.3935 38.466 96.5315 39.8946 102.557 41.4293C127.857 47.8765 151.89 56.4796 173.986 66.999C202.737 80.6846 228.973 97.5088 251.959 117C280.147 141.056 302.664 168.052 326.505 196.635C334.78 206.557 343.339 216.815 352.101 226.874C369.935 247.25 394.329 273.554 424.909 296.299C441.311 308.511 457.74 318.179 475.131 325.855C513.346 342.724 557.04 350.808 605 349.882C620.356 349.587 636.121 348.358 651.855 346.229C670.113 343.748 688.804 339.928 707.402 334.873C737.512 326.599 766.447 315.692 793.404 302.454C806.878 295.839 820.546 288.084 834.027 279.408C856.187 265.187 876.808 248.624 896.747 232.607C910.628 221.459 924.979 209.929 939.533 199.474C953.28 189.595 969.776 178.142 987.898 168.074C1003.48 159.405 1018.56 153.417 1032.73 150.273C1050.14 146.41 1066.39 146.805 1081.01 151.445C1089.71 154.18 1098.25 158.318 1107.12 164.095C1123.63 174.827 1137.96 189.274 1151.82 203.246C1157.33 208.8 1162.54 214.047 1167.79 218.976C1185.16 235.285 1202.66 252.34 1219.79 269.668C1255.08 305.335 1291.03 344.331 1332.93 392.387L1332.71 392.52Z" fill="#FFE492"/>
<path d="M1331.38 379.251C1292.53 330.386 1256.07 289.495 1219.92 254.245C1202.28 237.026 1184.03 220.474 1165.68 205.049C1160.8 200.957 1156 196.704 1150.9 192.202C1135.66 178.721 1119.89 164.782 1102.23 155.137C1093.31 150.247 1084.77 146.841 1076.11 144.726C1042.93 136.621 1009.23 151.975 986.803 166.282C970.911 176.388 956.397 187.816 941.696 199.612C928.829 209.938 916.722 221.046 903.906 232.804C884.883 250.258 865.211 268.307 842.95 283.461C829.74 292.503 815.953 300.32 801.974 306.696C775.934 318.575 747.418 327.799 714.798 334.898C696.542 338.87 677.847 341.7 659.231 343.306C643.523 344.645 627.844 345.124 612.627 344.724C589.987 344.135 567.858 341.49 546.85 336.862C524.787 332.001 503.735 324.898 484.281 315.75C467.237 307.737 450.779 297.795 433.968 285.357C403.437 262.8 377.282 237.793 357.91 218.526C350.738 211.394 343.682 204.218 336.855 197.276C309.672 169.63 283.997 143.516 252.784 121.516C229.456 105.074 203.267 91.1708 174.947 80.1946C153.519 71.8894 130.807 65.6668 105.516 61.1708C99.6796 60.1349 93.7417 59.2013 87.8697 58.3956C62.0779 54.8751 34.5516 53.5433 1.24779 52.1658C-22.7589 51.1226 -54.1852 50.4357 -84.376 54.4221C-98.6745 56.2746 -112.496 59.4918 -125.46 63.9806C-171.103 79.789 -202.066 107.405 -208.287 137.856L-208.613 137.811C-206.964 129.736 -203.622 121.816 -198.687 114.269C-193.982 107.078 -187.8 100.183 -180.315 93.7706C-166.089 81.5886 -147.165 71.1988 -125.588 63.7266C-112.599 59.2287 -98.7515 56.006 -84.4288 54.1498C-54.2094 50.158 -22.7589 50.8468 1.26317 51.8899C34.5779 53.2674 62.1131 54.5993 87.9225 58.1216C93.7988 58.9291 99.7411 59.8627 105.585 60.8985C130.899 65.4001 153.633 71.6281 175.085 79.9425C203.434 90.9297 229.645 104.844 252.997 121.302C284.232 143.319 309.918 169.44 337.111 197.096C343.934 204.037 350.991 211.213 358.162 218.344C377.531 237.603 403.674 262.601 434.188 285.147C450.979 297.572 467.419 307.504 484.444 315.507C522.696 333.494 565.829 343.229 612.638 344.446C627.842 344.844 643.506 344.367 659.198 343.028C677.796 341.424 696.476 338.598 714.714 334.628C747.308 327.536 775.799 318.319 801.818 306.451C815.78 300.083 829.549 292.276 842.743 283.244C864.985 268.102 884.647 250.061 903.664 232.616C916.485 220.852 928.594 209.743 941.47 199.411C956.177 187.607 970.698 176.176 986.605 166.059C1001.15 156.783 1015.49 150.111 1029.23 146.224C1045.9 141.51 1061.71 140.916 1076.2 144.457C1084.9 146.582 1093.47 149.998 1102.41 154.903C1120.1 164.566 1135.88 178.518 1151.15 192.01C1156.23 196.51 1161.05 200.761 1165.91 204.852C1184.28 220.282 1202.53 236.84 1220.17 254.064C1256.34 289.324 1292.8 330.222 1331.66 379.097L1331.38 379.251Z" fill="#FFE492"/>
<path d="M1330.06 365.978C1293.7 315.637 1257.78 273.996 1220.26 238.676C1202.12 221.563 1183.11 205.513 1163.77 190.969C1159.64 187.86 1155.38 184.56 1151.26 181.37C1134.27 168.191 1116.69 154.564 1097.51 145.997C1088.5 141.949 1079.93 139.263 1071.3 137.789C1038.2 132.127 1006.4 149.078 985.557 164.292C971.428 174.563 958.512 186.204 946.021 197.464L943.682 199.572C932.34 209.787 921.702 220.989 910.437 232.852C892.5 251.74 873.955 271.27 851.704 287.329C838.758 296.741 824.862 304.617 810.401 310.737C785.187 321.409 757.127 329.023 722.099 334.701C703.987 337.637 685.3 339.472 666.556 340.151C650.888 340.697 635.306 340.423 620.238 339.333C574.621 336.046 531.998 324.642 493.552 305.439C476.932 297.138 460.464 286.934 443.208 274.241C414.007 252.805 388.035 230.773 363.938 210.042C360.706 207.264 357.51 204.503 354.338 201.764C321.425 173.357 290.34 146.525 253.806 125.874C229.956 112.391 203.792 101.396 176.046 93.1935C155.676 87.1719 133.599 83.0832 108.559 80.6936C102.916 80.1583 97.176 79.718 91.4975 79.3855C77.2122 78.5634 62.0607 78.43 46.0189 78.2893C33.134 78.1761 19.8116 78.0591 5.75275 77.5823C-21.3999 76.583 -52.1733 75.4521 -80.4097 77.8198C-94.9786 79.042 -108.884 81.5193 -121.74 85.1842C-167.366 98.1919 -200.003 122.145 -209.045 149.258L-209.417 149.173C-207.034 142.024 -203.05 135.05 -197.579 128.446C-192.346 122.13 -185.725 116.112 -177.898 110.56C-162.929 99.9422 -143.553 91.0633 -121.867 84.8809C-108.982 81.2069 -95.0489 78.7241 -80.4514 77.5001C-52.1864 75.1306 -21.3977 76.2633 5.76593 77.2626C19.816 77.7376 33.1384 77.8563 46.0189 77.9696C62.0673 78.1103 77.2232 78.2437 91.5216 79.0676C97.2046 79.4019 102.951 79.8422 108.599 80.3775C133.67 82.769 155.772 86.8631 176.172 92.8938C203.951 101.106 230.143 112.113 254.02 125.611C290.586 146.281 321.687 173.125 354.612 201.545C357.785 204.284 360.983 207.043 364.213 209.823C388.305 230.55 414.269 252.577 443.461 274.005C460.699 286.684 477.15 296.878 493.75 305.169C532.145 324.348 574.713 335.735 620.271 339.018C635.321 340.107 650.888 340.381 666.539 339.835C685.263 339.155 703.932 337.323 722.024 334.391C757.017 328.718 785.044 321.113 810.225 310.456C824.655 304.349 838.525 296.487 851.449 287.091C873.671 271.053 892.206 251.534 910.132 232.656C921.401 220.788 932.046 209.58 943.396 199.358L945.735 197.25C958.233 185.985 971.155 174.337 985.3 164.055C1006.21 148.791 1038.12 131.791 1071.38 137.478C1080.04 138.96 1088.65 141.655 1097.69 145.72C1116.92 154.304 1134.51 167.946 1151.52 181.14C1155.64 184.33 1159.89 187.63 1164.02 190.737C1183.37 205.289 1202.39 221.347 1220.54 238.469C1258.08 273.804 1294.01 315.46 1330.38 365.818L1330.06 365.978Z" fill="#FFE492"/>
<path d="M1328.73 352.704C1295.35 301.603 1258.97 258 1220.6 223.109C1201.95 206.104 1182.19 190.555 1161.87 176.893C1158.93 174.92 1155.93 172.872 1153.02 170.892C1133.81 157.809 1113.95 144.279 1092.8 136.861C1083.71 133.644 1075.12 131.68 1066.51 130.854C1033.5 127.69 1003.59 146.21 984.315 162.303C972.344 172.245 961.539 183.302 951.09 193.995C949.283 195.846 947.476 197.693 945.667 199.533C935.728 209.639 926.435 220.93 916.597 232.881C899.872 253.201 882.577 274.21 860.461 291.201C847.472 301.178 833.855 308.891 818.827 314.785C787.394 327.111 755.981 331.673 729.4 334.512C711.421 336.43 692.744 337.271 673.881 337.004C658.261 336.757 642.774 335.729 627.851 333.949C583.603 328.686 541.539 315.627 502.827 295.134C486.719 286.61 470.242 276.141 452.45 263.132C434.478 250.022 417.731 237.407 401.533 225.206C390.525 216.914 380.127 209.082 369.973 201.568C331.588 173.163 296.429 148.188 254.837 130.237C230.474 119.723 204.337 111.633 177.152 106.194C157.667 102.296 136.839 100.398 111.608 100.217C106.165 100.184 100.621 100.237 95.1312 100.376C86.7926 100.6 78.166 101.07 69.036 101.569C51.5146 102.524 31.652 103.608 10.257 103.001C2.10968 102.769 -6.20253 102.442 -14.2421 102.124C-34.9204 101.307 -56.3022 100.463 -76.4462 101.218C-91.2394 101.773 -105.23 103.513 -118.025 106.388C-163.574 116.628 -197.884 136.92 -209.809 160.668L-210.215 160.527C-207.094 154.309 -202.468 148.283 -196.469 142.618C-190.707 137.177 -183.645 132.038 -175.485 127.345C-159.76 118.302 -139.932 110.934 -118.144 106.036C-105.318 103.153 -91.2965 101.408 -76.4704 100.853C-56.3044 100.096 -34.9138 100.942 -14.2245 101.759C-6.18713 102.077 2.12508 102.404 10.2702 102.636C31.6454 103.242 51.4926 102.161 69.0052 101.205C78.1396 100.706 86.7684 100.237 95.1158 100.012C100.612 99.8733 106.161 99.8203 111.61 99.8532C136.877 100.032 157.735 101.936 177.253 105.84C204.471 111.286 230.644 119.385 255.037 129.914C273.825 138.021 292.863 148.294 313.24 161.317C331.483 172.974 349.228 185.73 370.263 201.296C380.417 208.812 390.816 216.644 401.825 224.936C418.021 237.134 434.768 249.749 452.736 262.858C470.51 275.855 486.97 286.312 503.058 294.827C541.717 315.293 583.722 328.333 627.908 333.589C642.813 335.367 658.281 336.394 673.883 336.64C692.724 336.907 711.382 336.068 729.338 334.15C755.887 331.317 787.258 326.76 818.636 314.456C833.622 308.579 847.204 300.885 860.157 290.934C882.236 273.973 899.518 252.979 916.23 232.677C926.074 220.718 935.372 209.422 945.322 199.304C947.131 197.464 948.936 195.617 950.743 193.769C961.198 183.068 972.01 172.004 983.996 162.049C996.538 151.579 1009.41 143.524 1022.24 138.109C1037.44 131.695 1052.35 129.133 1066.55 130.496C1075.2 131.326 1083.84 133.299 1092.96 136.529C1114.17 143.966 1134.06 157.513 1153.29 170.612C1156.2 172.593 1159.2 174.641 1162.14 176.612C1182.47 190.285 1202.25 205.848 1220.92 222.866C1241.29 241.393 1261.24 262.501 1280.21 285.605C1296.98 306.024 1313.43 328.543 1329.1 352.533L1328.73 352.704Z" fill="#FFE492"/>
<path d="M1327.4 339.43C1296.51 286.864 1260.69 242.491 1220.95 207.544C1201.79 190.646 1181.27 175.6 1159.97 162.819C1158.96 162.21 1157.95 161.602 1156.93 160.992C1134.78 147.684 1111.88 133.924 1088.09 127.729C1078.88 125.328 1070.25 124.084 1061.73 123.923C1028.85 123.306 1000.81 143.373 983.079 160.314C972.646 170.225 963.384 181.088 954.427 191.593C952.214 194.191 949.923 196.876 947.663 199.493C939.052 209.457 931.047 220.785 922.575 232.781C907.161 254.6 891.225 277.161 869.224 295.072C856.495 305.435 842.768 313.206 827.258 318.833C796.702 329.917 765.676 332.828 736.701 334.322C718.834 335.243 700.163 335.086 681.206 333.856C665.637 332.815 650.248 331.034 635.464 328.564C592.722 321.438 551.216 306.724 512.104 284.829C496.441 276.061 480.423 265.637 461.699 252.022C426.113 226.219 399.689 208.044 376.02 193.095C328.946 163.361 293.017 145.868 255.888 134.603C231.031 127.062 204.92 121.879 178.277 119.197C159.793 117.337 140.177 117.503 114.675 119.741C109.45 120.205 104.103 120.752 98.7829 121.367C93.7573 121.957 88.6526 122.633 83.2467 123.348C63.2873 125.988 40.6634 128.98 14.7705 128.421C1.12274 128.127 -12.8174 127.321 -26.2981 126.543C-41.6188 125.659 -57.4606 124.744 -72.4801 124.619C-87.5393 124.495 -101.616 125.496 -114.307 127.597C-159.704 135.108 -195.692 151.742 -210.574 172.092L-210.996 171.878C-207.131 166.591 -201.863 161.514 -195.341 156.788C-189.044 152.224 -181.548 147.966 -173.058 144.127C-156.565 136.67 -136.283 130.813 -114.404 127.193C-101.677 125.089 -87.5701 124.084 -72.4758 124.208C-57.443 124.332 -41.5924 125.248 -26.2651 126.134C-12.7888 126.912 1.14471 127.718 14.7815 128.012C40.6282 128.569 63.2279 125.58 83.1653 122.944C88.5734 122.228 93.6826 121.554 98.7103 120.962C104.037 120.346 109.388 119.8 114.618 119.334C140.159 117.094 159.809 116.926 178.332 118.791C205.012 121.477 231.16 126.667 256.053 134.22C293.233 145.499 329.199 163.01 376.315 192.769C399.992 207.725 426.426 225.904 462.02 251.715C480.731 265.319 496.731 275.732 512.377 284.491C551.436 306.355 592.881 321.049 635.559 328.163C650.323 330.63 665.694 332.407 681.242 333.449C700.177 334.676 718.823 334.834 736.668 333.915C765.599 332.422 796.573 329.519 827.058 318.461C842.511 312.856 856.189 305.109 868.874 294.784C890.827 276.911 906.748 254.374 922.144 232.578C930.623 220.575 938.632 209.237 947.256 199.259C949.516 196.644 951.807 193.959 954.021 191.361C962.984 180.847 972.252 169.977 982.703 160.049C994.274 148.992 1006.4 140.247 1018.76 134.054C1033.23 126.799 1047.69 123.256 1061.74 123.518C1070.31 123.678 1078.98 124.93 1088.24 127.341C1112.1 133.558 1135.04 147.337 1157.22 160.665C1158.23 161.275 1159.25 161.885 1160.26 162.492C1181.59 175.287 1202.12 190.352 1221.31 207.268C1261.08 242.246 1296.92 286.654 1327.84 339.257L1327.4 339.43Z" fill="#FFE492"/>
<path d="M747.64 334.132C746.407 334.132 745.191 334.13 743.995 334.125C726.221 334.063 707.557 332.912 688.525 330.701C673.013 328.865 657.721 326.331 643.073 323.172C622.144 318.667 601.14 312.193 580.64 303.929C560.843 295.949 540.906 286.055 521.38 274.518C502.247 263.214 484.376 250.619 470.944 240.909C439.515 218.252 409.612 199.314 382.066 184.62C337.452 160.822 297.693 146.314 256.941 138.965C232.356 134.531 205.98 132.192 180.584 132.192C180.19 132.192 179.799 132.192 179.405 132.194C157.588 132.256 136.875 135.625 117.744 139.257C112.765 140.209 107.614 141.248 102.435 142.35C99.5964 142.96 96.7539 143.588 93.7465 144.253C72.534 148.951 48.4899 154.272 19.2796 153.836C1.49004 153.569 -16.6799 152.038 -34.2518 150.556C-45.5978 149.599 -57.3285 148.611 -68.5184 148.013C-83.9007 147.193 -98.0563 147.456 -110.596 148.799C-155.751 153.629 -193.417 166.608 -211.354 183.518L-211.767 183.217C-202.567 174.544 -188.728 167.035 -170.635 160.897C-153.355 155.036 -132.618 150.695 -110.666 148.348C-98.0937 147.003 -83.9007 146.736 -68.4833 147.56C-57.2823 148.158 -45.545 149.148 -34.1946 150.105C-16.6337 151.587 1.52521 153.118 19.2906 153.383C48.4261 153.819 72.4284 148.505 93.6058 143.817C96.6154 143.15 99.4579 142.522 102.298 141.911C107.482 140.81 112.637 139.768 117.621 138.817C136.785 135.179 157.533 131.805 179.403 131.741C205.204 131.666 232.053 134.012 257.058 138.522C278.09 142.317 298.48 147.902 319.389 155.597C339.527 163.009 360.126 172.377 382.361 184.24C409.929 198.945 439.854 217.897 471.302 240.569C484.723 250.274 502.581 262.86 521.694 274.15C561.316 297.561 602.2 313.906 643.209 322.736C657.837 325.891 673.11 328.421 688.6 330.256C707.607 332.462 726.245 333.613 743.995 333.674C771.77 333.769 804.021 332.99 835.476 322.458C851.397 317.127 865.17 309.332 877.584 298.628C899.386 279.828 913.838 255.7 927.818 232.365C935.009 220.362 941.8 209.024 949.184 199.21C951.55 196.065 953.937 192.826 956.246 189.693C964.046 179.108 972.109 168.164 981.4 158.049C992.018 146.411 1003.41 136.971 1015.26 129.992C1029.01 121.901 1043.01 117.374 1056.9 116.537C1065.47 116.02 1074.17 116.548 1083.5 118.152C1108.43 122.438 1133.14 134.89 1158.37 148.368C1180.37 160.119 1202.26 175.09 1221.69 191.666C1243.26 210.025 1263.53 231.563 1281.93 255.68C1298.33 277.167 1313.35 300.818 1326.57 325.979L1326.07 326.161C1297.67 272.128 1262.42 226.984 1221.29 191.986C1201.9 175.434 1180.04 160.484 1158.08 148.753C1132.89 135.3 1108.23 122.871 1083.39 118.6C1074.11 117.005 1065.46 116.48 1056.94 116.994C1031.42 118.534 1004.75 133.212 981.837 158.326C972.565 168.424 964.507 179.358 956.714 189.932C954.406 193.067 952.016 196.308 949.65 199.452C942.279 209.249 935.493 220.577 928.31 232.569C921.451 244.019 914.359 255.859 906.221 267.241C896.994 280.145 887.758 290.514 877.982 298.946C865.513 309.697 851.678 317.527 835.682 322.884C821.575 327.608 806.413 330.731 789.329 332.433C774.861 333.867 760.33 334.132 747.64 334.132Z" fill="#FFE492"/>
<path d="M782.894 335.048C771.684 335.048 760.917 334.493 751.283 333.93C733.57 332.896 714.915 330.749 695.837 327.548C680.391 324.919 665.195 321.635 650.673 317.782C610.906 307.253 571.644 289.727 530.646 264.207C512.766 253.079 495.911 241.105 480.183 229.796C449.133 207.535 418.157 189.485 388.112 176.145C343.924 156.525 302.58 146.095 258.001 143.322C232.6 141.742 205.815 142.387 180.538 145.186C159.38 147.528 139.434 153.18 120.813 158.767C116.155 160.172 111.2 161.707 106.088 163.327C104.811 163.735 103.523 164.149 102.217 164.568C80.7713 171.459 56.5052 179.256 25.3625 179.256C24.8371 179.256 24.3139 179.254 23.784 179.249C2.71445 179.072 -18.797 176.572 -39.6028 174.154C-47.8513 173.194 -56.3811 172.204 -64.5658 171.402C-80.5527 169.838 -94.3983 169.376 -106.896 169.994C-152.353 172.241 -190.722 181.332 -212.161 194.94L-212.528 194.54C-201.929 187.813 -186.604 181.973 -168.214 177.65C-150.126 173.399 -128.935 170.578 -106.934 169.491C-94.4005 168.872 -80.5197 169.334 -64.4977 170.902C-56.3042 171.704 -47.7721 172.696 -39.5215 173.653C-18.7355 176.068 2.75621 178.566 23.7862 178.743C55.5775 179.013 80.2393 171.086 101.995 164.094C103.298 163.676 104.589 163.261 105.866 162.852C110.982 161.23 115.939 159.695 120.602 158.29C139.254 152.693 159.237 147.033 180.452 144.683C205.769 141.881 232.598 141.234 258.04 142.816C280.132 144.19 301.195 147.435 322.432 152.733C344.304 158.19 365.879 165.7 388.391 175.697C418.474 189.056 449.489 207.128 480.573 229.411C496.293 240.716 513.138 252.682 531.002 263.799C571.945 289.285 611.147 306.785 650.851 317.297C665.351 321.143 680.527 324.424 695.951 327.05C715.003 330.247 733.632 332.392 751.318 333.422C781.08 335.158 812.742 336.049 843.889 326.445C860.278 321.39 874.148 313.545 886.287 302.461C907.916 282.717 921.377 255.786 933.255 232.025C939.23 220.07 944.875 208.778 951.103 199.151C953.35 195.678 955.612 192.089 957.8 188.617C964.641 177.756 971.716 166.526 980.089 156.038C989.778 143.819 1000.44 133.685 1011.77 125.917C1024.78 116.996 1038.34 111.486 1052.06 109.544C1060.63 108.329 1069.37 108.135 1078.75 108.947C1104.97 111.217 1131.6 122.438 1156.48 134.228C1179.45 145.113 1202.12 159.575 1222.06 176.05C1244.24 194.323 1264.67 216.076 1282.79 240.701C1298.99 262.723 1313.29 286.941 1325.3 312.686L1324.73 312.867C1299.22 258.143 1263.56 210.955 1221.64 176.404C1201.74 159.96 1179.11 145.525 1156.18 134.662C1131.36 122.901 1104.8 111.707 1078.69 109.445C1069.36 108.638 1060.69 108.831 1052.16 110.037C1026.83 113.624 1001.41 130.057 980.597 156.312C972.239 166.778 965.173 177.997 958.338 188.848C956.151 192.321 953.889 195.91 951.64 199.387C945.425 208.991 939.786 220.273 933.815 232.215C921.917 256.013 908.434 282.988 886.736 302.797C874.528 313.941 860.582 321.83 844.1 326.914C829.797 331.325 814.369 333.879 796.929 334.717C792.213 334.955 787.517 335.048 782.894 335.048Z" fill="#FFE492"/>
<path d="M805.021 337.025C804.861 337.025 804.702 337.025 804.542 337.025C788.7 336.992 773.146 335.381 758.571 333.733C740.885 331.734 722.24 328.59 703.151 324.392C687.775 320.974 672.677 316.934 658.277 312.389C620.099 300.355 582.491 281.769 539.919 253.896C524.587 243.861 509.499 233.054 494.906 222.606C493.082 221.298 491.255 219.992 489.428 218.685C458.217 196.43 426.166 179.266 394.168 167.672C350.352 151.798 306.161 145.257 259.071 147.678C233.251 149.006 206.49 152.636 181.681 158.176C162.106 162.547 144.664 169.561 123.893 178.275C119.683 180.049 115.187 181.964 109.749 184.303L109.445 184.434C98.9521 188.976 87.0587 194.122 73.7188 198.036C58.398 202.53 43.5345 204.693 28.2929 204.667C4.52588 204.618 -19.7292 200.942 -43.1841 197.385C-48.9308 196.514 -54.8753 195.613 -60.6131 194.798C-77.0683 192.465 -90.9974 191.287 -103.196 191.197C-148.114 190.869 -188.13 196.4 -212.981 206.372L-213.267 205.879C-201.094 200.993 -184.674 197.029 -165.783 194.413C-146.857 191.791 -125.211 190.49 -103.19 190.651C-90.9556 190.741 -76.9913 191.921 -60.501 194.259C-54.7588 195.074 -48.8142 195.975 -43.0654 196.846C-19.6391 200.398 4.58524 204.07 28.2951 204.119C28.4007 204.119 28.5084 204.119 28.6139 204.119C62.5288 204.119 88.3668 192.938 109.142 183.948L109.447 183.817C114.888 181.476 119.384 179.562 123.596 177.788C144.402 169.059 161.875 162.032 181.511 157.648C206.362 152.097 233.167 148.462 259.032 147.132C282.076 145.948 303.811 146.85 325.486 149.894C348.841 153.173 371.395 158.824 394.432 167.171C426.492 178.787 458.597 195.978 489.859 218.271C491.686 219.577 493.512 220.885 495.337 222.193C509.924 232.638 525.007 243.44 540.326 253.468C582.843 281.307 620.396 299.867 658.51 311.881C672.89 316.421 687.967 320.453 703.32 323.868C722.383 328.06 741.001 331.199 758.659 333.194C790.287 336.771 821.252 339.252 852.316 330.454C869.173 325.678 883.137 317.784 895.002 306.318C916.437 285.606 928.146 256.907 938.478 231.584C943.315 219.729 947.883 208.529 953.036 199.119C955.019 195.498 957.008 191.753 958.932 188.13C964.947 176.803 971.166 165.092 978.792 154.05C987.571 141.245 997.492 130.415 1008.28 121.862C1020.57 112.113 1033.68 105.624 1047.22 102.576C1055.62 100.687 1064.19 99.7666 1073.41 99.7666C1073.61 99.7666 1073.81 99.7666 1074.01 99.7684C1102.64 99.8927 1132.11 110.704 1154.59 120.11C1178.53 130.13 1202 144.081 1222.44 160.454C1245.22 178.643 1265.82 200.61 1283.65 225.747C1299.65 248.304 1313.24 273.09 1324.03 299.419L1323.41 299.597C1307.35 260.42 1276.72 204.549 1221.99 160.85C1201.59 144.514 1178.18 130.596 1154.29 120.599C1131.88 111.22 1102.5 100.439 1074.01 100.317C1064.62 100.271 1055.92 101.188 1047.4 103.106C1022.3 108.753 998.136 126.942 979.364 154.323C971.755 165.339 965.543 177.037 959.534 188.351C957.611 191.976 955.619 195.723 953.636 199.345C948.496 208.732 943.932 219.917 939.102 231.759C928.752 257.128 917.021 285.882 895.503 306.674C883.559 318.217 869.501 326.164 852.529 330.971C838.145 335.043 822.597 337.025 805.021 337.025Z" fill="#FFE492"/>
<path d="M822.615 339.597C819.203 339.597 815.716 339.506 812.146 339.323C796.52 338.525 781.333 336.13 765.856 333.535C747.915 330.528 729.796 326.505 710.463 321.237C695.166 317.031 680.167 312.241 665.879 306.996C629.634 293.71 593.646 274.153 549.192 243.585C538.151 235.994 527.115 228.032 516.442 220.331C510.632 216.14 504.626 211.805 498.674 207.572C467.092 185.166 433.971 168.892 400.229 159.198C355.648 146.39 309.828 144.044 260.149 152.028C233.902 156.246 207.165 162.861 182.831 171.158C163.282 177.822 146.253 187.182 128.224 197.091L126.978 197.776C124.161 199.329 121.315 200.904 118.432 202.497C116.773 203.416 115.102 204.34 113.416 205.272C102.903 211.113 91.548 217.205 78.5268 221.895C63.4083 227.339 48.4547 230.018 32.8064 230.083C6.75516 230.189 -19.817 225.158 -45.5121 220.287C-49.1791 219.591 -52.9735 218.873 -56.6559 218.192C-73.92 214.995 -87.5304 213.155 -99.4942 212.399C-143.643 209.609 -185.307 211.575 -213.807 217.794L-213.99 217.22C-185.415 210.985 -143.665 209.012 -99.4392 211.807C-87.4425 212.565 -73.7969 214.41 -56.4998 217.613C-52.8152 218.296 -49.0208 219.014 -45.3516 219.71C-19.9709 224.52 6.26492 229.492 31.971 229.492C32.248 229.492 32.525 229.492 32.8042 229.49C66.053 229.351 89.7211 217.721 113.022 204.779C114.708 203.847 116.379 202.922 118.039 202.004C120.921 200.409 123.766 198.836 126.584 197.281L127.831 196.596C145.891 186.67 162.948 177.294 182.56 170.608C206.938 162.295 233.722 155.669 260.015 151.443C309.82 143.439 355.762 145.792 400.465 158.636C434.289 168.355 467.488 184.666 499.141 207.121C505.092 211.356 511.1 215.689 516.91 219.882C527.579 227.581 538.613 235.541 549.647 243.126C594.048 273.66 629.986 293.189 666.167 306.453C680.435 311.689 695.413 316.474 710.687 320.672C729.991 325.934 748.084 329.951 765.999 332.953C793.194 337.511 827.038 343.185 860.742 334.445C878.07 329.953 892.127 322.009 903.715 310.16C924.942 288.456 934.785 257.93 943.471 230.999C947.243 219.299 950.807 208.248 954.966 199.077C956.586 195.503 958.211 191.807 959.781 188.232C965.048 176.242 970.496 163.844 977.491 152.053C985.381 138.653 994.564 127.127 1004.78 117.795C1016.37 107.22 1029.02 99.7536 1042.38 95.601C1050.96 92.9355 1059.75 91.2931 1069.26 90.5788C1081.99 89.6215 1095.55 90.6445 1110.69 93.6992C1123.51 96.2861 1137.25 100.302 1152.7 105.978C1177.62 115.133 1201.87 128.574 1222.83 144.846C1246.21 162.949 1266.97 185.134 1284.51 210.78C1300.31 233.874 1313.18 259.229 1322.77 286.141L1322.08 286.309C1301.84 229.492 1266.42 179.406 1222.34 145.281C1201.43 129.052 1177.25 115.65 1152.41 106.522C1119.12 94.2929 1092.72 89.4132 1069.32 91.1707C1059.88 91.8796 1051.15 93.511 1042.63 96.1564C1010.83 106.035 990.002 132.149 978.131 152.315C971.153 164.076 965.712 176.459 960.451 188.435C958.879 192.012 957.255 195.71 955.634 199.285C951.488 208.429 947.929 219.467 944.161 231.152C935.457 258.142 925.593 288.732 904.269 310.534C892.588 322.477 878.42 330.484 860.953 335.013C849.115 338.083 836.489 339.597 822.615 339.597Z" fill="#FFE492"/>
<path d="M837.859 342.547C814.611 342.547 792.259 337.583 773.138 333.337C755.148 329.344 737.037 324.352 717.77 318.081C702.56 313.093 687.657 307.55 673.477 301.603C630.97 283.798 593.076 258.241 558.46 233.274C551.392 228.177 544.252 222.923 537.349 217.842C527.764 210.787 517.851 203.492 507.919 196.462C475.864 173.835 441.672 158.447 406.295 150.724C360.53 140.736 313.078 142.584 261.226 156.373C234.528 163.473 207.818 173.073 183.98 184.137C165.595 192.669 150.039 203.44 133.571 214.844C132.403 215.652 131.234 216.463 130.057 217.274L129.42 217.716C125.417 220.491 121.277 223.36 117.08 226.239C107.025 233.168 95.9513 240.335 83.1433 245.811C68.2755 252.167 53.2867 255.336 37.3152 255.501C9.28102 255.791 -19.2918 249.242 -46.9214 242.908C-48.8582 242.464 -50.7862 242.022 -52.7054 241.585C-70.9259 237.431 -84.2175 234.968 -95.7987 233.598C-138.839 228.508 -182.157 226.907 -214.645 229.208L-214.711 228.57C-182.17 226.264 -138.789 227.867 -95.691 232.964C-84.0768 234.338 -70.7566 236.806 -52.5032 240.968C-50.584 241.404 -48.656 241.846 -46.717 242.292C-19.1401 248.613 9.37776 255.146 37.3042 254.861C71.9886 254.503 96.4152 239.645 116.588 225.746C120.785 222.866 124.924 219.998 128.927 217.225L129.565 216.783C130.741 215.97 131.911 215.16 133.078 214.353C149.575 202.929 165.157 192.139 183.604 183.578C207.486 172.494 234.247 162.877 260.991 155.765C285.573 149.228 308.663 145.454 331.577 144.226C357.138 142.858 382.341 144.836 406.488 150.107C441.977 157.853 476.27 173.285 508.416 195.974C518.355 203.008 528.269 210.304 537.857 217.362C544.76 222.442 551.896 227.695 558.961 232.79C593.542 257.73 631.39 283.259 673.82 301.032C687.98 306.969 702.861 312.505 718.05 317.485C737.288 323.748 755.37 328.732 773.333 332.72C800.914 338.844 835.24 346.466 869.158 338.445C886.956 334.236 901.105 326.243 912.416 314.01C933.424 291.285 941.285 258.881 948.221 230.289C951.009 218.801 953.641 207.951 956.885 199.041C958.086 195.745 959.29 192.34 960.456 189.046C965.015 176.163 969.731 162.839 976.179 150.063C983.194 136.056 991.638 123.83 1001.28 113.729C1012.15 102.331 1024.35 93.8866 1037.53 88.6305C1046.09 85.2178 1054.91 82.8519 1064.5 81.3958C1077.42 79.4355 1091.75 79.5013 1107.1 81.5913C1120.54 83.4219 1135.24 86.873 1150.79 91.8514C1176.68 100.14 1201.72 113.069 1223.19 129.241C1247.19 147.26 1268.1 169.659 1285.36 195.817C1300.95 219.448 1313.11 245.372 1321.49 272.868L1320.75 273.025C1302.99 214.764 1268.16 163.869 1222.68 129.716C1201.27 113.597 1176.32 100.71 1150.52 92.4488C1117.07 81.7411 1088.98 78.3303 1064.64 82.0261C1055.12 83.4712 1046.36 85.8207 1037.86 89.2078C1006.5 101.713 987.393 129.336 976.889 150.31C970.456 163.052 965.747 176.358 961.194 189.225C960.029 192.519 958.822 195.926 957.622 199.226C954.388 208.106 951.759 218.942 948.975 230.415C945.638 244.17 941.857 259.759 936.368 274.375C930.078 291.121 922.443 304.212 913.027 314.399C907.582 320.289 901.325 325.302 894.428 329.3C887.011 333.599 878.58 336.883 869.369 339.061C858.829 341.555 848.253 342.547 837.859 342.547Z" fill="#FFE492"/>
<path d="M851.599 345.782C843.913 345.782 835.861 345.16 827.355 343.92C810.603 341.477 794.568 337.045 780.419 333.137C762.585 328.21 743.965 322.081 725.078 314.921C709.964 309.159 695.158 302.863 681.075 296.206C640.652 277.12 605.827 251.742 567.729 222.96C564.343 220.403 560.905 217.794 557.581 215.269C544.489 205.332 530.954 195.058 517.163 185.349C484.576 162.458 449.316 147.957 412.36 142.25C365.745 135.05 315.256 141.262 262.303 160.715C235.131 170.697 208.444 183.281 185.13 197.109C167.576 207.521 153.126 219.796 137.827 232.793C136.273 234.114 134.712 235.438 133.142 236.768C129.235 240.082 125.028 243.64 120.747 247.2C111.771 254.692 100.832 263.23 87.7624 269.721C73.132 276.988 58.1058 280.651 41.8287 280.916C12.0314 281.404 -18.3001 273.205 -47.6335 265.276L-48.7503 264.974C-63.1126 261.094 -78.3058 257.173 -92.0986 254.793C-134.141 247.538 -177.958 242.501 -215.474 240.61L-215.423 239.927C-177.868 241.82 -134.011 246.86 -91.9316 254.122C-78.0992 256.51 -62.8795 260.436 -48.4953 264.322L-47.3785 264.624C-18.1088 272.534 12.1611 280.713 41.8134 280.229C76.058 279.67 99.7086 263.791 120.165 246.712C124.445 243.154 128.648 239.596 132.555 236.284C134.125 234.956 135.686 233.63 137.24 232.311C152.565 219.292 167.042 206.995 184.653 196.548C208.011 182.693 234.748 170.085 261.971 160.085C286.816 150.959 311.264 144.671 334.633 141.397C361.335 137.657 387.538 137.716 412.514 141.572C449.61 147.302 485 161.853 517.697 184.823C531.499 194.541 545.041 204.819 558.139 214.761C561.463 217.284 564.902 219.893 568.287 222.451C606.348 251.205 641.136 276.555 681.486 295.608C695.549 302.255 710.333 308.541 725.425 314.296C744.286 321.445 762.875 327.565 780.683 332.485C808.596 340.198 843.335 349.795 877.591 342.442C895.862 338.52 910.103 330.479 921.13 317.859C941.908 294.081 947.92 258.242 952.752 229.444C954.634 218.227 956.411 207.632 958.82 199.009C959.578 196.291 960.346 193.49 961.087 190.781C964.934 176.706 968.915 162.151 974.884 148.076C984.102 126.173 1001.61 96.8728 1032.69 81.6672C1041.27 77.4689 1050.12 74.3777 1059.75 72.2183C1084.94 66.4872 1114.94 68.3415 1148.9 77.7265C1175.76 85.1493 1201.59 97.567 1223.58 113.639C1248.18 131.572 1269.26 154.186 1286.23 180.857C1294.01 193.09 1300.89 206.156 1306.68 219.692C1312.2 232.621 1316.76 246.047 1320.23 259.598L1319.42 259.74C1304.15 200.032 1269.92 148.328 1223.03 114.152C1201.12 98.1407 1175.4 85.7705 1148.64 78.375C1114.84 69.0321 1085 67.1833 1059.96 72.8778C1050.41 75.0208 1041.62 78.0882 1033.1 82.2555C1002.24 97.3551 984.834 126.506 975.662 148.301C969.707 162.339 965.734 176.874 961.889 190.931C961.148 193.64 960.383 196.443 959.623 199.163C957.222 207.757 955.446 218.336 953.568 229.537C951.137 244.029 948.382 260.453 943.673 275.954C938.263 293.767 931.107 307.606 921.797 318.261C916.485 324.339 910.273 329.465 903.334 333.495C895.86 337.838 887.266 341.072 877.795 343.103C869.483 344.89 860.802 345.782 851.599 345.782Z" fill="#FFE492"/>
<path d="M864.261 349.199C855.05 349.199 845.335 348.207 834.958 346.217C818.145 342.996 801.969 337.651 787.697 332.933C769.729 326.996 751.12 319.873 732.385 311.759C717.37 305.228 702.662 298.18 688.672 290.808C650.173 270.538 617.153 244.413 582.194 216.757C580.464 215.388 578.733 214.018 576.999 212.648C560.742 199.801 543.933 186.516 526.409 174.239C493.255 151.057 456.926 137.442 418.432 133.774C370.08 129.164 317.914 139.689 263.38 165.053C236.102 177.739 208.721 193.73 186.279 210.079C169.334 222.424 155.743 236.314 141.355 251.021C139.651 252.762 137.943 254.509 136.221 256.259C132.783 259.761 128.692 263.914 124.409 268.161C116.477 276.048 105.67 286.071 92.3784 293.61C77.981 301.779 62.9219 305.942 46.3393 306.335C32.7091 306.618 17.6676 304.87 0.352844 300.988C-14.5128 297.655 -28.8926 293.3 -44.8047 288.367C-59.3297 283.809 -74.6592 279.101 -88.4125 275.991C-129.151 266.78 -172.183 258.714 -216.31 252.013L-216.151 251.295C-171.998 257.998 -128.942 266.071 -88.1817 275.286C-74.391 278.405 -59.0395 283.12 -44.497 287.682C-17.8258 295.953 15.368 306.249 46.3151 305.604C81.6964 304.764 104.435 286.885 123.734 267.69C128.015 263.446 132.104 259.295 135.54 255.795C137.261 254.045 138.969 252.298 140.671 250.559C155.084 235.828 168.699 221.914 185.699 209.529C208.186 193.147 235.62 177.125 262.951 164.415C317.65 138.975 369.996 128.423 418.533 133.049C437.142 134.822 455.422 138.942 472.86 145.293C491.571 152.105 509.778 161.658 526.976 173.681C544.52 185.971 561.34 199.264 577.606 212.12C579.34 213.492 581.073 214.86 582.803 216.229C617.729 243.861 650.721 269.961 689.144 290.192C703.115 297.553 717.801 304.592 732.794 311.112C751.502 319.213 770.083 326.327 788.025 332.256C816.222 341.573 851.315 353.168 886.014 346.444C904.811 342.801 919.147 334.711 929.835 321.714C950.428 296.89 954.095 258.968 957.043 228.498C958.098 217.601 959.094 207.308 960.745 198.984C961.086 197.267 961.427 195.541 961.767 193.805C964.85 178.128 968.037 161.916 973.58 146.095C981.49 123.338 997.322 92.4815 1027.84 74.7091C1036.35 69.7508 1045.23 65.9361 1054.99 63.0459C1068.56 58.992 1083.68 57.0865 1099.92 57.3788C1114.76 57.6455 1130.6 59.741 1147 63.605C1174.83 70.1582 1201.44 82.0643 1223.95 98.0354C1249.16 115.881 1270.4 138.714 1287.08 165.897C1294.74 178.369 1301.37 191.704 1306.78 205.53C1311.97 218.772 1316.07 232.5 1318.96 246.331L1318.09 246.455C1305.5 186.183 1270.98 132.289 1223.38 98.5908C1200.96 82.6891 1174.47 70.8323 1146.76 64.3047C1112.59 56.2552 1080.96 56.0579 1055.28 63.731C1045.6 66.5993 1036.78 70.3847 1028.34 75.3047C998.035 92.9547 982.292 123.653 974.422 146.296C968.895 162.075 965.711 178.263 962.634 193.92C962.293 195.656 961.952 197.384 961.611 199.101C959.965 207.394 958.971 217.674 957.918 228.555C954.961 259.112 951.283 297.144 930.559 322.127C925.406 328.392 919.244 333.635 912.246 337.707C904.716 342.088 895.958 345.267 886.214 347.156C879.18 348.515 871.894 349.199 864.261 349.199Z" fill="#FFE492"/>
<path d="M876.16 352.755C865.664 352.755 854.545 351.345 842.561 348.513C825.607 344.507 809.33 338.249 794.972 332.73C776.826 325.755 758.226 317.634 739.687 308.598C724.779 301.309 710.171 293.506 696.263 285.411C662.019 265.483 632.751 241.069 601.765 215.222C596.699 210.996 591.461 206.628 586.264 202.333C567.995 187.242 552.395 174.799 535.649 163.127C501.904 139.638 464.509 126.91 424.5 125.295C374.227 123.265 320.376 138.1 264.449 169.386C236.665 184.929 209.308 203.984 187.419 223.043C170.928 237.401 158.037 253.03 144.389 269.577C142.698 271.627 141.001 273.684 139.293 275.743C136.25 279.417 132.223 284.258 128.066 289.112C110.571 309.588 87.7139 330.669 50.8443 331.747C49.6945 331.778 48.5404 331.793 47.3884 331.793C18.598 331.793 -10.7948 322.324 -40.8647 311.751L-42.7422 311.086C-57.6364 305.803 -71.7063 300.814 -84.7297 297.182C-133.809 283.494 -181.275 271.941 -217.145 263.405L-216.887 262.658C-181.009 271.197 -133.53 282.753 -84.4329 296.445C-71.3743 300.086 -57.2891 305.083 -42.375 310.372L-40.4998 311.037C-9.32848 321.997 21.113 331.773 50.8113 330.973C87.272 329.906 109.938 308.987 127.303 288.665C131.458 283.814 135.481 278.976 138.524 275.304C140.232 273.243 141.927 271.188 143.617 269.138C157.287 252.566 170.198 236.911 186.741 222.508C208.675 203.409 236.087 184.315 263.926 168.741C289.764 154.286 315.61 143.188 340.747 135.75C369.588 127.216 397.783 123.438 424.544 124.518C464.759 126.14 502.344 138.931 536.247 162.529C553.017 174.22 568.632 186.676 586.919 201.779C592.118 206.074 597.357 210.444 602.424 214.67C633.38 240.492 662.619 264.881 696.798 284.769C710.685 292.855 725.271 300.646 740.157 307.924C758.67 316.949 777.242 325.057 795.361 332.021C823.804 342.956 859.203 356.562 894.435 350.437C913.693 347.088 928.119 338.951 938.535 325.561C958.868 299.606 960.091 259.55 961.073 227.365C961.394 216.864 961.698 206.944 962.667 198.951L962.689 198.768C964.863 180.87 967.112 162.363 972.268 144.103C976.733 128.176 982.952 113.856 990.75 101.539C999.543 87.6524 1010.39 76.2816 1022.98 67.7406C1031.4 62.026 1040.32 57.4861 1050.22 53.8632C1076.99 44.0179 1109.8 42.4979 1145.09 49.4713C1159.3 52.2775 1173.31 56.5287 1186.74 62.1045C1200.25 67.7132 1212.89 74.5515 1224.32 82.4255C1250.14 100.185 1271.55 123.234 1287.94 150.932C1302.67 175.828 1312.96 204.227 1317.68 233.058L1316.76 233.162C1306.64 171.456 1272.74 116.732 1223.73 83.0229C1200.81 67.2346 1173.54 55.893 1144.88 50.2313C1109.79 43.2981 1077.19 44.8016 1050.6 54.5794C1040.77 58.1748 1031.93 62.6782 1023.57 68.3472C1000.06 84.2945 982.638 110.553 973.18 144.284C968.038 162.496 965.793 180.978 963.621 198.851L963.599 199.033C962.632 206.997 962.329 216.903 962.008 227.389C961.021 259.673 959.794 299.849 939.318 325.987C934.297 332.443 928.178 337.8 921.139 341.907C913.548 346.335 904.629 349.461 894.626 351.202C888.669 352.236 882.528 352.755 876.16 352.755Z" fill="#FFE492"/>
<path d="M51.5277 357.231C38.6538 357.231 24.6345 355.147 8.81253 350.89C-6.90834 346.661 -22.4555 340.822 -36.9167 335.144C-39.535 334.11 -42.1335 333.077 -44.7145 332.052C-57.562 326.95 -69.6972 322.13 -81.0389 318.376C-126.262 303.412 -169.369 289.962 -211.057 276.958L-217.965 274.802L-217.618 274.033L-210.71 276.188C-169.019 289.196 -125.906 302.646 -80.6739 317.614C-69.3015 321.378 -57.1509 326.203 -44.288 331.313C-41.7092 332.337 -39.1107 333.37 -36.4946 334.402C-6.80942 346.058 24.729 357.354 55.3177 356.347C92.9194 355.046 115.453 330.704 130.882 309.645C134.834 304.259 138.642 298.892 141.518 294.818C143.105 292.572 144.681 290.329 146.253 288.091C159.29 269.538 171.603 252.014 187.796 235.492C209.172 213.685 236.557 191.517 264.912 173.074C291.219 155.963 317.764 142.444 343.816 132.893C373.696 121.937 402.883 116.251 430.563 115.994C472.214 115.479 510.899 127.386 545.529 151.383C564.725 164.702 581.937 179.109 596.244 191.446C604.029 198.16 611.813 205.042 619.343 211.698C645.994 235.26 673.553 259.622 704.461 279.355C718.267 288.171 732.759 296.714 747.53 304.743C765.81 314.658 784.373 323.76 802.708 331.795C831.367 344.353 867.031 359.983 902.863 354.436C922.585 351.383 937.101 343.199 947.243 329.414C967.305 302.283 965.951 260.033 964.861 226.085C964.54 216.046 964.234 206.562 964.601 198.927C965.426 181.716 966.668 161.713 970.97 142.121C974.595 125.519 980.069 110.5 987.241 97.4814C995.353 82.7545 1005.75 70.408 1018.13 60.7838C1026.34 54.4059 1035.54 48.9927 1045.47 44.6921C1059.64 38.5353 1075.54 34.6641 1092.73 33.1879C1108.83 31.8049 1125.81 32.532 1143.19 35.3474C1157.85 37.7224 1172.29 41.6284 1186.13 46.9593C1200.05 52.3232 1213.03 59.0061 1224.7 66.8218C1238.16 75.8213 1250.53 86.4485 1261.48 98.4095C1271.85 109.742 1281.04 122.381 1288.8 135.973C1303.32 161.402 1312.87 190.388 1316.42 219.793L1315.43 219.875C1307.8 156.731 1274.51 101.179 1224.08 67.463C1200.99 52.0035 1172.19 40.8848 1143 36.1549C1106.9 30.3068 1073.34 33.5113 1045.93 45.4211C1036.07 49.687 1026.95 55.0581 1018.81 61.3848C995.469 79.519 979.7 106.731 971.942 142.269C967.648 161.808 966.411 181.776 965.589 198.96C965.224 206.568 965.527 216.037 965.85 226.063C966.387 242.81 966.995 261.794 964.955 280.146C962.588 301.44 957.07 317.696 948.087 329.844C943.198 336.49 937.126 341.962 930.042 346.105C922.392 350.581 913.308 353.656 903.046 355.244C897.869 356.046 892.696 356.409 887.554 356.409C856.76 356.409 826.921 343.332 802.248 332.52C783.887 324.473 765.295 315.358 746.991 305.429C732.198 297.388 717.687 288.833 703.861 280.003C672.889 260.23 645.302 235.842 618.624 212.259C611.096 205.605 603.314 198.725 595.534 192.014C581.246 179.692 564.059 165.305 544.898 152.012C510.455 128.143 471.996 116.304 430.578 116.812C365.534 117.419 304.919 148.091 265.523 173.718C237.225 192.124 209.895 214.244 188.566 236.007C172.421 252.48 160.125 269.977 147.108 288.5C145.536 290.738 143.958 292.982 142.371 295.229C139.493 299.305 135.683 304.676 131.728 310.067C125.251 318.908 115.084 331.777 101.616 341.423C95.076 346.107 88.1159 349.788 80.9293 352.366C72.916 355.24 64.3115 356.855 55.3595 357.164C54.091 357.209 52.8138 357.231 51.5277 357.231Z" fill="#FFE492"/>
<path d="M55.6611 382.664C42.7718 382.664 28.7811 380.418 13.0427 375.836C-3.25195 371.094 -19.3619 364.425 -32.9701 358.526C-37.1515 356.71 -41.3241 354.869 -45.3604 353.087C-56.6426 348.109 -67.3005 343.405 -77.3495 339.564C-113.436 325.771 -149.288 312.305 -183.962 299.281C-195.431 294.973 -207.289 290.519 -218.782 286.192L-218.351 285.401C-206.858 289.728 -195 294.182 -183.531 298.49C-148.857 311.514 -113.001 324.982 -76.912 338.777C-66.8367 342.628 -56.1656 347.336 -44.8701 352.322C-40.836 354.103 -36.6635 355.943 -32.4865 357.759C-4.26323 369.988 28.4733 382.934 59.8205 381.716C98.3081 380.185 119.925 353.604 134.461 330.62C138.187 324.732 141.791 318.82 144.512 314.327C145.91 312.022 147.3 309.718 148.687 307.42C161.156 286.748 172.933 267.223 188.854 248.474C209.561 224.088 236.925 198.849 265.9 177.406C306.252 147.672 368.618 111.404 436.58 107.471C479.801 104.902 519.581 115.926 554.811 140.239C570.639 151.167 586.292 163.773 605.568 181.116C615.309 189.88 624.976 198.964 634.323 207.746C658.644 230.595 683.79 254.223 712.125 273.945C725.852 283.501 740.245 292.795 754.904 301.568C772.654 312.181 791.211 322.276 810.056 331.575C839.002 345.772 875.027 363.444 911.29 358.442C931.173 355.757 946.197 347.289 955.949 333.276C975.735 304.917 971.49 258.52 968.388 224.643C967.517 215.136 966.695 206.156 966.534 198.913C966.174 182.814 966.204 161.586 969.671 140.147C975.655 102.997 990.33 73.9557 1013.29 53.8357C1021.33 46.7472 1030.56 40.5886 1040.71 35.5298C1055.15 28.3244 1071.44 23.4775 1089.14 21.1263C1105.81 18.912 1123.35 18.9467 1141.29 21.2304C1156.42 23.1998 1171.3 26.7697 1185.51 31.8376C1199.86 36.9566 1213.18 43.4788 1225.08 51.2232C1238.84 60.1715 1251.41 70.8353 1262.44 82.9205C1272.89 94.3735 1282.05 107.191 1289.66 121.021C1303.95 146.986 1312.77 176.556 1315.15 206.536L1314.11 206.593C1308.97 142.007 1276.29 85.6262 1224.44 51.9083C1200.93 36.6113 1171.34 26.0206 1141.13 22.0891C1103.88 17.3482 1069.35 22.2535 1041.25 36.2752C1031.19 41.292 1022.03 47.4012 1014.05 54.4331C991.244 74.4197 976.662 103.296 970.709 140.264C967.251 161.645 967.222 182.83 967.581 198.898C967.743 206.116 968.563 215.085 969.432 224.579C971.034 242.09 972.85 261.94 971.813 281.318C970.601 303.883 965.71 321.021 956.855 333.713C952.091 340.558 946.067 346.149 938.946 350.329C931.228 354.861 921.981 357.879 911.464 359.301C895.152 361.55 877.595 359.529 857.79 353.122C840.574 347.552 824.079 339.462 809.528 332.326C790.654 323.014 772.074 312.904 754.297 302.277C739.616 293.491 725.203 284.185 711.457 274.615C683.062 254.853 657.888 231.2 633.543 208.327C624.199 199.546 614.535 190.468 604.803 181.712C585.56 164.4 569.936 151.818 554.145 140.915C519.124 116.741 479.597 105.783 436.651 108.335C368.981 112.254 306.821 148.411 266.59 178.054C237.672 199.453 210.366 224.639 189.703 248.974C173.826 267.671 162.067 287.168 149.617 307.809C148.23 310.109 146.84 312.413 145.442 314.718C142.718 319.214 139.113 325.132 135.382 331.025C120.719 354.215 98.8842 381.032 59.8667 382.583C58.4795 382.636 57.0747 382.664 55.6611 382.664Z" fill="#FFE492"/>
<path d="M59.8777 408.1C24.6591 408.1 -12.2941 390.125 -45.0526 374.188C-55.1192 369.292 -64.6273 364.666 -73.6628 360.755L-219.6 297.585L-219.092 296.776L-73.155 359.946C-64.0953 363.866 -54.5762 368.498 -44.4964 373.401C-10.4716 389.953 28.0952 408.714 64.3228 407.088C103.659 405.325 124.381 376.507 138.04 351.6C142.507 343.454 146.821 335.165 150.993 327.149C162.405 305.225 174.204 282.555 189.907 261.456C202.377 244.703 217.867 227.133 234.702 210.649C253.171 192.564 272.946 175.972 293.472 161.334C316.105 145.197 339.118 131.847 361.869 121.659C387.035 110.39 411.826 103.033 435.56 99.7902C483.105 93.2955 526.348 103.152 564.084 129.089C595.444 150.641 622.098 177.292 647.874 203.067C670.311 225.502 693.511 248.698 719.782 268.528C750.127 291.43 782.969 312.566 817.398 331.345C846.406 347.168 882.509 366.862 919.717 362.436C951.141 358.698 969.311 341.225 975.26 309.016C980.321 281.62 975.506 249.12 971.639 223.008C970.32 214.109 969.076 205.703 968.464 198.887C965.092 161.31 967.242 130.291 975.036 104.058C979.898 87.6904 987.074 73.1006 996.362 60.6938C1006.74 46.8347 1020.06 35.2812 1035.95 26.3548C1049.7 18.6323 1065.2 13.0236 1082.01 9.684C1098.02 6.50514 1114.87 5.44004 1132.11 6.51793C1165.99 8.63717 1199.14 18.9703 1225.45 35.6119C1239.51 44.5072 1252.27 55.2094 1263.39 67.4188C1273.92 78.9906 1283.05 91.9892 1290.52 106.057C1304.58 132.556 1312.66 162.714 1313.87 193.265L1312.77 193.296C1310.18 128.236 1277.29 69.56 1224.78 36.3408C1169.02 1.0627 1089.86 -2.81953 1036.56 27.113C983.766 56.7641 961.847 112.93 969.557 198.819C970.166 205.614 971.41 214.008 972.727 222.896C976.603 249.065 981.429 281.634 976.344 309.155C973.574 324.145 968.007 336.192 959.801 344.963C955.184 349.894 949.62 353.924 943.26 356.939C936.491 360.147 928.623 362.301 919.871 363.342C916.294 363.768 912.656 363.981 908.956 363.981C895.473 363.981 881.111 361.148 865.374 355.408C847.646 348.94 830.538 339.608 816.792 332.111C782.316 313.304 749.428 292.141 719.039 269.206C692.709 249.334 669.485 226.11 647.023 203.651C621.28 177.91 594.659 151.292 563.378 129.794C525.895 104.034 482.949 94.2418 435.732 100.693C340.219 113.741 241.832 193.424 190.835 261.938C175.173 282.979 163.39 305.618 151.993 327.512C147.819 335.532 143.503 343.827 139.032 351.98C129.963 368.516 121.007 380.356 110.846 389.239C104.503 394.782 97.6222 399.152 90.3939 402.226C82.3564 405.645 73.6024 407.589 64.3734 408.003C62.8829 408.067 61.3814 408.1 59.8777 408.1Z" fill="#FFE492"/>
</g>
</svg>
