<svg width="299" height="49" viewBox="0 0 299 49" fill="none" xmlns="http://www.w3.org/2000/svg">
<path d="M280.718 31.2626C280.309 31.2932 279.895 31.3143 279.494 31.3602C279.234 31.3889 279.122 31.3047 278.949 31.2607C278.891 31.2453 278.829 31.2147 278.775 31.2185C278.37 31.2492 277.965 31.2836 277.56 31.3181C277.436 31.3928 277.357 31.4923 277.167 31.5287C276.981 31.5631 276.762 31.5632 276.555 31.5804C276.283 31.6014 276.01 31.6225 275.737 31.6417C275.601 31.6512 275.489 31.6876 275.444 31.7565C275.435 31.768 275.526 31.7967 275.576 31.814C275.741 31.8714 275.902 31.9365 276.084 31.9805C276.258 32.0226 276.473 31.9537 276.659 32.0073C277.076 32.1279 277.08 32.126 277.399 32.1031C277.672 32.082 277.944 32.059 278.217 32.0437C278.271 32.0399 278.333 32.0686 278.391 32.0839C278.564 32.126 278.676 32.2218 278.932 32.1854C279.126 32.1567 279.341 32.1509 279.544 32.1356C279.713 32.1911 279.871 32.2543 280.052 32.2983C280.222 32.3405 280.272 32.373 280.181 32.4285C280.098 32.4802 279.982 32.5013 279.829 32.5051C279.693 32.507 279.556 32.5243 279.42 32.5338C279.35 32.5396 279.284 32.5434 279.217 32.5492C278.957 32.5702 278.957 32.5702 278.482 32.4477C278.296 32.3998 278.085 32.4668 277.907 32.4209C277.787 32.3902 277.684 32.3443 277.568 32.3118C277.519 32.2984 277.44 32.2964 277.378 32.3003C277.171 32.3137 276.965 32.3232 276.766 32.3481C276.626 32.3654 276.543 32.419 276.56 32.4726C276.564 32.4936 276.663 32.5243 276.721 32.5262C276.853 32.53 276.994 32.5032 277.122 32.5166C277.246 32.53 277.374 32.5683 277.465 32.6104C277.651 32.6985 277.862 32.62 278.039 32.643C278.225 32.6679 278.378 32.7445 278.556 32.7904C278.601 32.8019 278.688 32.7827 278.759 32.777C278.961 32.7636 279.164 32.7521 279.366 32.7387C279.536 32.7942 279.718 32.844 279.871 32.9072C280.147 33.0221 280.445 33.0661 280.805 33.0106C281.007 32.9799 281.206 32.9914 281.367 33.0661C281.532 33.1427 281.722 33.135 281.933 33.1197C282.127 33.1044 282.326 33.0623 282.524 33.1159C282.954 33.2346 282.958 33.2403 283.467 33.1944C283.62 33.181 283.735 33.1771 283.851 33.2212C283.959 33.2614 284.074 33.2958 284.186 33.3341C284.389 33.3207 284.595 33.3073 284.798 33.292C285.058 33.271 285.203 33.2978 285.265 33.405C285.302 33.4701 285.319 33.5294 285.409 33.5735C285.517 33.6271 285.633 33.6251 285.79 33.6098C285.939 33.5964 286.046 33.5754 286.108 33.5064C286.133 33.4777 286.182 33.4509 286.228 33.4279C286.265 33.4107 286.323 33.3839 286.356 33.3877C286.418 33.3954 286.501 33.4164 286.521 33.4413C286.724 33.673 286.724 33.6749 286.931 33.7419C287.158 33.8166 287.394 33.8836 287.6 33.9678C287.786 34.0425 287.972 34.01 288.175 34.01C288.328 34.01 288.427 34.0598 288.415 34.1095C288.406 34.1383 288.348 34.1804 288.299 34.1842C287.894 34.2225 287.485 34.255 287.075 34.2818C287.026 34.2857 286.964 34.2512 286.906 34.234C286.79 34.1995 286.687 34.1459 286.563 34.1344C286.439 34.1229 286.294 34.1516 286.158 34.1612C286.021 34.1708 285.877 34.1957 285.753 34.1804C285.629 34.1651 285.529 34.1095 285.414 34.0732C285.36 34.0559 285.285 34.031 285.24 34.0368C284.938 34.0827 284.715 34.0195 284.5 33.9353C284.455 33.9181 284.376 33.9066 284.318 33.9104C283.839 33.943 283.363 33.9812 282.884 34.0176C282.69 34.0329 282.533 33.9659 282.491 33.853C282.47 33.7898 282.429 33.7266 282.429 33.6634C282.429 33.5486 282.202 33.4854 282.037 33.4988C281.764 33.5179 281.487 33.5332 281.218 33.562C280.999 33.5849 280.813 33.562 280.664 33.493C280.491 33.4145 280.292 33.4299 280.094 33.4509C279.945 33.4662 279.904 33.5294 279.912 33.6883C279.92 33.8166 279.85 33.8568 279.581 33.8779C279.242 33.9047 278.899 33.9315 278.556 33.9525C278.502 33.9564 278.44 33.9238 278.387 33.9066C278.271 33.8721 278.167 33.8166 278.043 33.8051C277.919 33.7917 277.775 33.8204 277.638 33.8319C277.502 33.8415 277.357 33.8683 277.233 33.8549C277.109 33.8415 277.006 33.7841 276.894 33.7477C276.841 33.7305 276.774 33.7055 276.721 33.7094C276.448 33.7247 276.175 33.7477 275.902 33.7687C275.596 33.7917 275.596 33.7917 275.162 33.673C274.964 33.6194 274.766 33.6615 274.571 33.6768C274.365 33.6922 274.17 33.6998 274.009 33.6232C273.902 33.5735 273.782 33.5428 273.654 33.5524C273.311 33.5754 272.972 33.6041 272.629 33.6271C272.571 33.6309 272.492 33.6213 272.447 33.6041C272.228 33.5237 272.013 33.4605 271.707 33.5007C271.442 33.5352 271.157 33.5371 270.892 33.5696C270.748 33.5869 270.682 33.6481 270.711 33.696C270.727 33.7209 270.814 33.7496 270.872 33.7496C271.004 33.7515 271.149 33.7228 271.273 33.7343C271.529 33.7572 271.657 33.9181 271.992 33.874C272.19 33.8472 272.397 33.8377 272.604 33.83C272.657 33.8281 272.715 33.8645 272.773 33.8836C272.939 33.9353 273.083 34.0023 273.323 33.9678C273.521 33.941 273.732 33.9334 273.935 33.9181C274.257 33.8932 274.257 33.8951 274.675 34.0119C274.873 34.0674 275.071 34.0234 275.266 34.01C275.41 34.0004 275.547 33.9813 275.663 34.0081C275.84 34.0483 275.968 34.1402 276.188 34.1344C276.394 34.1287 276.597 34.1019 276.803 34.0923C276.932 34.0865 277.051 34.1172 277.155 34.1689C277.262 34.2206 277.378 34.2435 277.518 34.2321C277.721 34.2167 277.928 34.1976 278.134 34.188C278.192 34.1861 278.258 34.2033 278.312 34.2187C278.428 34.2531 278.539 34.2933 278.651 34.3297C278.854 34.3182 279.06 34.3144 279.259 34.2914C279.412 34.2742 279.519 34.2818 279.643 34.3201C279.8 34.3718 279.928 34.4637 280.185 34.4197C280.313 34.3986 280.462 34.4044 280.59 34.3852C280.747 34.3603 280.854 34.3699 280.966 34.4273C281.177 34.5365 281.441 34.5384 281.714 34.4963C282.012 34.4503 282.235 34.5039 282.458 34.5882C282.694 34.6763 282.694 34.6743 282.876 34.8868C282.929 34.9481 283.082 34.9768 283.21 34.9653C283.425 34.9462 283.611 34.9558 283.768 35.0285C283.934 35.107 284.132 35.0974 284.335 35.0764C284.603 35.0477 284.872 35.0228 285.091 35.1338C285.199 35.1874 285.314 35.2008 285.459 35.1874C285.868 35.153 286.282 35.1319 286.683 35.0898C286.927 35.063 287.067 35.1242 287.232 35.1759C287.456 35.2468 287.699 35.31 287.699 35.4612C287.699 35.4861 287.757 35.5148 287.807 35.534C287.914 35.5742 288.03 35.6086 288.142 35.6469C288.307 35.7044 288.468 35.7522 288.696 35.7216C288.894 35.6967 289.105 35.689 289.307 35.6718C289.51 35.6546 289.696 35.645 289.878 35.7178C290.089 35.8001 290.312 35.8786 290.552 35.9399C290.721 35.9839 290.944 35.9092 291.126 35.9686C291.238 36.005 291.345 36.0471 291.465 36.0777C291.515 36.0911 291.593 36.0815 291.659 36.0777C291.796 36.07 291.936 36.0643 292.069 36.0452C292.222 36.0241 292.337 36.0279 292.453 36.072C292.561 36.1122 292.668 36.1677 292.792 36.1792C292.978 36.1964 293.185 36.1198 293.371 36.2079C293.466 36.2519 293.586 36.2941 293.71 36.3075C293.834 36.3209 293.978 36.2921 294.111 36.294C294.168 36.294 294.239 36.3247 294.272 36.3496C294.292 36.363 294.264 36.3993 294.235 36.4185C294.197 36.4415 294.144 36.4721 294.09 36.4759C293.681 36.5104 293.272 36.5391 292.862 36.5717C292.618 36.5908 292.618 36.5908 292.126 36.4702C292.011 36.4415 291.883 36.4472 291.738 36.4606C291.544 36.4778 291.345 36.5104 291.143 36.4759C290.878 36.3457 290.552 36.3342 290.204 36.384C290.06 36.4051 289.927 36.4051 289.82 36.3687C289.593 36.296 289.353 36.229 289.15 36.1428C288.993 36.0758 288.919 36.07 288.853 36.1619C288.832 36.1907 288.811 36.2213 288.816 36.2481C288.84 36.3438 288.886 36.4376 288.911 36.5334C288.919 36.5602 288.886 36.5908 288.865 36.6195C288.799 36.6999 288.712 36.6942 288.568 36.6272C288.423 36.5602 288.249 36.5161 288.018 36.5468C287.819 36.5736 287.604 36.5698 287.406 36.5985C287.1 36.6406 286.885 36.5793 286.666 36.497C286.621 36.4798 286.542 36.4702 286.484 36.474C285.868 36.5181 285.257 36.5678 284.641 36.6119C284.508 36.6214 284.388 36.5927 284.285 36.541C284.178 36.4893 284.058 36.4625 283.926 36.4721C283.38 36.5123 282.834 36.5487 282.289 36.5985C282.065 36.6195 281.888 36.5946 281.735 36.5276C281.619 36.4778 281.512 36.4625 281.367 36.4683C281.21 36.474 281.098 36.4932 281.02 36.5487C280.945 36.6023 280.999 36.6348 281.164 36.677C281.342 36.7229 281.507 36.7823 281.677 36.8359C281.813 36.8282 281.95 36.8129 282.082 36.8148C282.14 36.8148 282.194 36.8493 282.251 36.8684C282.417 36.9239 282.57 36.9795 282.805 36.9488C283.004 36.922 283.215 36.9163 283.417 36.899C283.698 36.878 283.698 36.878 284.153 36.9986C284.269 37.0292 284.393 37.0273 284.541 37.0101C284.67 36.9967 284.802 37.0235 284.893 37.0809C284.93 37.1039 284.918 37.1422 284.839 37.2686C284.839 37.3624 284.926 37.3203 284.955 37.259C285 37.1709 284.913 37.1422 284.748 37.1901C284.632 37.2245 284.575 37.2743 284.603 37.3145C284.62 37.3356 284.699 37.3624 284.839 37.2686C285.203 37.1537 285.48 37.1403 285.744 37.1096C285.901 37.0924 286.001 37.1001 286.125 37.1498C286.273 37.2092 286.422 37.2724 286.666 37.2418C286.931 37.2073 287.212 37.2035 287.48 37.1747C287.728 37.1479 287.857 37.2322 288.014 37.282C288.204 37.3413 288.415 37.2743 288.588 37.3088C288.77 37.3432 288.898 37.4275 289.109 37.4428C289.415 37.3911 289.609 37.4868 289.841 37.55C290.023 37.5979 290.237 37.5557 290.432 37.5347C290.651 37.5117 290.833 37.5328 290.986 37.6017C291.159 37.6802 291.354 37.663 291.552 37.6457C292.015 37.6074 292.031 37.6017 292.3 37.707C292.494 37.7836 292.68 37.7491 292.875 37.7395C293.044 37.7912 293.21 37.8467 293.387 37.8927C293.433 37.9042 293.52 37.885 293.59 37.8793C293.792 37.864 293.999 37.8487 294.202 37.8334C294.338 37.8238 294.483 37.7951 294.607 37.8066C294.731 37.82 294.834 37.8755 294.946 37.9119C295.057 37.9482 295.173 37.9846 295.28 38.0229C295.446 38.0803 295.603 38.1282 295.834 38.0995C296.033 38.0746 296.239 38.0669 296.446 38.0497C296.706 38.0286 296.698 38.0344 297.182 38.1493C297.442 38.2124 297.711 38.1359 297.975 38.1282C298.108 38.1244 298.236 38.1454 298.327 38.201C298.364 38.2239 298.352 38.2622 298.364 38.2948C297.682 38.3465 296.996 38.3905 296.322 38.4537C296.062 38.4786 295.925 38.4096 295.785 38.3522C295.553 38.2603 295.247 38.3943 295.028 38.2756C294.896 38.2048 294.706 38.1646 294.478 38.199C294.346 38.2182 294.206 38.2163 294.069 38.2335C293.722 38.2756 293.404 38.2775 293.127 38.1454C293.032 38.0995 292.895 38.0746 292.796 38.0306C292.68 37.9827 292.569 37.9559 292.432 37.9655C291.816 38.0114 291.205 38.0574 290.593 38.1071C290.539 38.111 290.485 38.1397 290.44 38.1607C290.324 38.2143 290.361 38.2565 290.547 38.2909C290.609 38.3024 290.659 38.3273 290.717 38.3464C290.829 38.3828 290.932 38.4403 291.056 38.4537C291.18 38.4671 291.325 38.4403 291.461 38.4307C291.597 38.4211 291.742 38.3924 291.866 38.4039C291.99 38.4173 292.093 38.4728 292.209 38.5073C292.263 38.5245 292.329 38.5532 292.383 38.5513C292.656 38.5398 292.924 38.5188 293.197 38.5015C293.367 38.5532 293.511 38.6279 293.714 38.6451C293.842 38.6566 293.978 38.6356 294.111 38.6394C294.168 38.6413 294.243 38.67 294.272 38.6949C294.288 38.7102 294.235 38.7485 294.193 38.7677C294.036 38.8404 293.821 38.827 293.627 38.85C293.416 38.8749 293.226 38.8672 293.065 38.7926C292.957 38.7428 292.837 38.716 292.705 38.7256C292.362 38.7504 292.023 38.7792 291.68 38.8002C291.622 38.8041 291.552 38.7868 291.498 38.7734C291.064 38.6566 291.064 38.6528 290.758 38.6777C290.308 38.7141 290.308 38.714 290.006 38.6126C289.948 38.5934 289.886 38.5571 289.836 38.559C289.357 38.5896 288.882 38.6202 288.406 38.6643C288.249 38.6777 288.142 38.6777 288.026 38.6279C287.927 38.5858 287.811 38.5379 287.687 38.5264C287.559 38.5149 287.418 38.5437 287.282 38.5532C287.146 38.5628 287.001 38.5877 286.881 38.5724C286.757 38.5571 286.65 38.5035 286.542 38.4652C286.43 38.425 286.311 38.4269 286.158 38.4422C285.686 38.4862 285.682 38.4805 285.215 38.3618C285.161 38.3484 285.091 38.3331 285.033 38.3369C284.69 38.3599 284.351 38.3886 284.008 38.4116C283.876 38.4211 283.748 38.3962 283.657 38.3407C283.62 38.3177 283.632 38.2794 283.607 38.2048C283.578 38.1875 283.611 38.2182 283.62 38.2469C283.682 38.2431 283.756 38.2469 283.802 38.2316C283.917 38.1952 283.975 38.1473 283.946 38.1071C283.93 38.0861 283.851 38.0593 283.802 38.0593C283.711 38.0593 283.632 38.1014 283.607 38.2048C283.347 38.268 283.07 38.2814 282.801 38.312C282.644 38.3311 282.545 38.3216 282.421 38.2718C282.272 38.2105 282.119 38.1512 281.875 38.1818C281.611 38.2163 281.33 38.222 281.057 38.2488C280.743 38.2795 280.606 38.1071 280.342 38.111C280.069 38.1148 279.796 38.1473 279.523 38.1703C279.284 38.1895 279.284 38.1895 278.788 38.065C278.606 38.0191 278.391 38.0861 278.213 38.0382C278.093 38.0076 277.99 37.9616 277.874 37.9291C277.824 37.9157 277.746 37.9157 277.684 37.9195C277.341 37.9425 276.994 37.9578 276.663 37.9999C276.287 38.0497 276.002 37.9961 275.733 37.8831C275.394 37.9042 275.051 37.9157 274.716 37.9521C274.472 37.9789 274.332 37.9157 274.166 37.864C274.108 37.8468 274.059 37.818 273.997 37.8104C273.935 37.8027 273.86 37.818 273.794 37.8238C273.521 37.8448 273.24 37.8544 272.976 37.8889C272.649 37.9329 272.525 37.7759 272.273 37.7568C272.104 37.8506 272.013 37.9789 271.678 37.9884C271.405 37.9961 271.132 38.0267 270.859 38.0478C270.723 38.0574 270.587 38.0689 270.45 38.0784C270.231 38.0957 270.128 38.1703 270.173 38.2852C270.198 38.3484 270.219 38.4116 270.239 38.4747C270.281 38.5877 270.177 38.6834 270.004 38.6968C269.524 38.7332 269.049 38.7715 268.569 38.804C268.441 38.8136 268.317 38.7811 268.214 38.7294C268.106 38.6777 267.987 38.6547 267.854 38.6643C267.375 38.7006 266.899 38.739 266.42 38.7715C266.366 38.7753 266.296 38.7562 266.242 38.7409C266.126 38.7064 266.015 38.6662 265.903 38.6298C265.63 38.6471 265.362 38.6585 265.093 38.6815C264.659 38.716 264.659 38.7179 264.341 38.6126C264.283 38.5934 264.225 38.5571 264.171 38.559C263.965 38.5666 263.762 38.5858 263.555 38.603C262.948 38.6528 262.948 38.6528 262.77 38.5954C262.609 38.5417 262.464 38.4767 262.22 38.5073C261.956 38.5418 261.675 38.5532 261.402 38.5724C261.199 38.5858 260.997 38.6011 260.794 38.6049C260.74 38.6068 260.683 38.5705 260.625 38.5513C260.459 38.492 260.298 38.4441 260.071 38.4767C259.939 38.4958 259.798 38.4996 259.662 38.5092C259.306 38.536 259.306 38.536 258.723 38.4211C258.665 38.4096 258.595 38.3962 258.537 38.402C258.058 38.4364 257.582 38.4747 257.103 38.5073C257.045 38.5111 256.975 38.4996 256.917 38.49C256.264 38.379 256.264 38.379 255.569 38.4326C255.305 38.4518 255.297 38.4594 255.02 38.3579C254.896 38.3139 254.792 38.2928 254.648 38.3063C254.102 38.3522 253.552 38.3828 253.011 38.4365C252.767 38.4594 252.626 38.402 252.461 38.3503C252.403 38.3331 252.341 38.2948 252.292 38.2967C251.746 38.3331 251.2 38.3771 250.655 38.4135C250.605 38.4173 250.543 38.379 250.485 38.3618C250.373 38.3273 250.266 38.2756 250.142 38.2641C250.014 38.2526 249.873 38.2814 249.733 38.2909C249.39 38.3158 249.39 38.3139 248.993 38.201C248.939 38.1856 248.869 38.1646 248.815 38.1684C248.269 38.2067 247.72 38.2393 247.178 38.2948C246.868 38.3254 246.657 38.2699 246.438 38.1895C246.393 38.1722 246.314 38.1646 246.256 38.1684C245.641 38.2124 245.029 38.2622 244.413 38.3063C244.285 38.3158 244.161 38.2833 244.057 38.2335C243.892 38.155 243.698 38.1646 243.491 38.1818C243.016 38.222 243.012 38.2201 242.731 38.1282C242.673 38.1091 242.623 38.0842 242.561 38.0746C242.503 38.065 242.429 38.0708 242.367 38.0746C242.094 38.0937 241.821 38.1148 241.548 38.1359C241.276 38.1569 240.999 38.1684 240.73 38.201C240.399 38.2412 240.242 38.1167 240.011 38.0593C239.672 38.0842 239.324 38.0995 238.99 38.1397C238.733 38.1703 238.614 38.0861 238.444 38.042C238.386 38.0267 238.324 37.9942 238.27 37.998C237.655 38.0401 237.039 38.0861 236.427 38.1378C236.278 38.1493 236.179 38.1339 236.055 38.088C235.778 37.9846 235.766 37.9884 235.303 38.0267C235.1 38.044 234.906 38.0593 234.732 37.9808C234.579 37.9099 234.393 37.8927 234.174 37.9157C233.905 37.9444 233.628 37.9597 233.356 37.9789C233.083 37.9999 232.81 38.0286 232.537 38.0382C232.318 38.0478 232.186 37.9578 232.012 37.9119C231.959 37.8985 231.884 37.8965 231.822 37.9004C231.549 37.9176 231.268 37.931 231.004 37.9635C230.681 38.0037 230.504 37.8985 230.276 37.8372C230.227 37.8238 230.144 37.8314 230.082 37.8372C229.602 37.8717 229.127 37.9099 228.647 37.9463C228.478 37.8946 228.304 37.8449 228.135 37.7932C227.862 37.8123 227.589 37.8334 227.316 37.8525C227.11 37.8678 226.899 37.8736 226.705 37.9023C226.453 37.9406 226.329 37.8506 226.159 37.8066C226.101 37.7912 226.039 37.7587 225.986 37.7625C225.642 37.7836 225.299 37.8066 224.96 37.8391C224.638 37.8717 224.51 37.6993 224.245 37.7012C223.972 37.7032 223.691 37.7281 223.427 37.7625C223.121 37.8027 222.906 37.7415 222.687 37.6591C222.641 37.6419 222.563 37.6323 222.505 37.6362C222.162 37.6591 221.823 37.6878 221.48 37.7108C221.422 37.7147 221.352 37.7051 221.294 37.6936C220.641 37.5806 220.641 37.5787 220.356 37.6017C220.153 37.617 219.946 37.6362 219.74 37.6457C219.682 37.6496 219.612 37.6323 219.558 37.617C219.128 37.5002 219.128 37.4983 218.818 37.5213C218.545 37.5423 218.272 37.5634 217.999 37.5845C217.83 37.5328 217.656 37.483 217.487 37.4313C217.148 37.4562 216.801 37.4753 216.466 37.5098C216.309 37.5251 216.206 37.5194 216.086 37.4715C215.937 37.4141 215.788 37.3471 215.54 37.3796C215.275 37.4141 214.994 37.4179 214.726 37.4466C214.403 37.4811 214.271 37.3069 214.011 37.3088C213.738 37.3107 213.457 37.3356 213.192 37.37C212.886 37.4102 212.671 37.349 212.452 37.2667C212.407 37.2494 212.328 37.2399 212.27 37.2437C211.518 37.2992 210.77 37.3547 210.018 37.4141C209.555 37.4504 209.555 37.4524 208.674 37.3471C208.612 37.3394 208.546 37.3317 208.484 37.3356C208.211 37.3528 207.93 37.3662 207.666 37.3987C207.343 37.439 207.165 37.3356 206.938 37.2724C206.888 37.259 206.81 37.2666 206.744 37.2705C206.537 37.2839 206.335 37.3011 206.128 37.3164C205.855 37.3375 205.582 37.3585 205.309 37.3796C205.14 37.3298 204.966 37.2781 204.797 37.2283C204.458 37.2532 204.111 37.2666 203.776 37.3069C203.52 37.3375 203.4 37.2571 203.23 37.2111C203.172 37.1958 203.11 37.1633 203.057 37.1652C202.441 37.2073 201.825 37.2513 201.213 37.3049C200.961 37.3279 200.845 37.2417 200.676 37.1977C200.618 37.1843 200.552 37.1594 200.498 37.1633C200.089 37.1901 199.68 37.2226 199.27 37.2552C199.039 37.2743 199.039 37.2743 198.535 37.1556C198.477 37.1422 198.411 37.1288 198.353 37.1326C197.055 37.2283 195.761 37.3298 194.463 37.4256C194.331 37.4351 194.211 37.4064 194.108 37.3547C194 37.303 193.88 37.2762 193.748 37.2858C193.202 37.326 192.653 37.3624 192.111 37.4122C191.888 37.4332 191.71 37.4083 191.557 37.3413C191.441 37.2915 191.334 37.2724 191.189 37.2839C190.916 37.3069 190.644 37.326 190.371 37.3471C190.098 37.3681 189.825 37.3892 189.552 37.4102C189.28 37.4313 189.003 37.4428 188.734 37.4753C188.403 37.5155 188.242 37.3968 188.015 37.3375C187.606 37.3662 187.196 37.3949 186.791 37.4256C186.245 37.4658 185.7 37.5098 185.154 37.5481C185.105 37.5519 185.043 37.5175 184.985 37.5002C184.815 37.4524 184.691 37.3854 184.439 37.4064C183.216 37.5079 181.984 37.594 180.756 37.6936C180.5 37.7147 180.388 37.6323 180.215 37.5883C180.157 37.5749 180.091 37.5481 180.037 37.5519C179.355 37.5998 178.673 37.6534 177.991 37.7051C177.714 37.7261 177.714 37.7261 177.251 37.6074C177.197 37.594 177.127 37.5768 177.069 37.5806C176.18 37.6457 175.296 37.7147 174.407 37.7817C174.275 37.7912 174.155 37.7644 174.047 37.7127C173.944 37.661 173.82 37.6323 173.692 37.6419C172.873 37.7032 172.051 37.7625 171.237 37.8295C171.018 37.8487 170.836 37.8314 170.679 37.7625C170.567 37.7127 170.455 37.6917 170.315 37.7032C169.087 37.797 167.859 37.887 166.632 37.9865C166.396 38.0057 166.231 37.9693 166.082 37.9061C165.962 37.8563 165.859 37.8468 165.71 37.8544C165.553 37.864 165.458 37.885 165.371 37.9425C165.26 38.0171 165.189 38.111 164.925 38.1167C164.652 38.1225 164.375 38.1454 164.106 38.178C163.85 38.2105 163.73 38.1244 163.569 38.0727C163.449 38.0363 163.337 38.0306 163.184 38.0478C163.044 38.0631 162.957 38.0956 162.874 38.1569C162.693 38.2871 162.676 38.2871 162.453 38.2048C162.333 38.1607 162.225 38.1263 162.093 38.1339C161.548 38.1722 161.002 38.2144 160.456 38.2584C160.142 38.2833 160.138 38.2871 159.902 38.1914C159.787 38.1435 159.675 38.1205 159.539 38.132C158.038 38.2469 156.538 38.3579 155.037 38.4786C154.806 38.4977 154.649 38.4575 154.483 38.4001C154.43 38.3809 154.376 38.3541 154.314 38.3464C154.252 38.3388 154.182 38.3465 154.115 38.3503C153.024 38.4326 151.929 38.5111 150.842 38.603C150.594 38.6241 150.461 38.5628 150.292 38.513C150.234 38.4958 150.184 38.469 150.122 38.4613C150.06 38.4556 149.986 38.469 149.92 38.4747C148.829 38.5571 147.733 38.6356 146.646 38.7275C146.386 38.7485 146.274 38.6681 146.105 38.626C146.047 38.6107 145.985 38.5819 145.931 38.5858C145.588 38.6068 145.249 38.6356 144.906 38.6604C144.087 38.7236 143.269 38.783 142.45 38.8481C142.136 38.873 142 38.7026 141.735 38.7102C141.392 38.7198 141.053 38.7581 140.71 38.7849C140.437 38.806 140.165 38.8251 139.892 38.8481C139.623 38.8691 139.623 38.8691 138.954 38.7581C138.896 38.7485 138.825 38.7351 138.768 38.7389C137.813 38.8098 136.854 38.8806 135.903 38.9572C135.684 38.9744 135.502 38.9649 135.345 38.894C135.233 38.8443 135.118 38.8194 134.981 38.8308C133.547 38.94 132.117 39.0491 130.682 39.1563C130.629 39.1602 130.558 39.141 130.505 39.1257C130.389 39.0912 130.277 39.051 130.166 39.0147C130.083 39.0587 129.975 39.0989 129.922 39.1487C129.847 39.2157 129.748 39.2348 129.591 39.2463C129.434 39.2578 129.335 39.254 129.211 39.2042C129.062 39.1429 128.909 39.095 128.665 39.1142C127.165 39.2348 125.664 39.344 124.164 39.4627C123.916 39.4818 123.8 39.3975 123.626 39.3535C123.568 39.3401 123.502 39.3191 123.449 39.3229C122.833 39.3669 122.221 39.4148 121.605 39.4607C119.898 39.5909 118.191 39.7154 116.488 39.8532C116.178 39.8781 115.967 39.8302 115.748 39.7479C115.702 39.7307 115.624 39.7211 115.566 39.7249C113.177 39.9049 110.788 40.0868 108.402 40.2687C108.274 40.2783 108.15 40.2476 108.047 40.1978C107.939 40.1461 107.82 40.1213 107.687 40.1308C106.596 40.2132 105.505 40.2955 104.414 40.3797C104.141 40.4008 104.137 40.4027 103.856 40.3108C103.798 40.2916 103.736 40.2553 103.69 40.2591C103.595 40.2687 103.504 40.3165 103.438 40.3816C103.372 40.4506 103.269 40.4697 103.116 40.4831C102.959 40.4965 102.855 40.4908 102.735 40.4448C102.582 40.3874 102.442 40.3319 102.194 40.351C99.0565 40.5961 95.9191 40.8316 92.7817 41.0747C92.5296 41.0938 92.4138 41.0135 92.2402 40.9694C92.1823 40.956 92.1245 40.9369 92.0625 40.933C91.9964 40.9292 91.9261 40.9407 91.86 40.9464C86.7426 41.3351 81.6253 41.7257 76.508 42.1143C76.2021 42.1373 76.2062 42.1373 75.8714 42.3134C75.8301 42.3345 75.7763 42.3632 75.7184 42.367C74.1518 42.4896 72.5811 42.6083 71.0103 42.727C70.3283 42.7787 69.6463 42.8323 68.9642 42.8821C68.7204 42.8993 68.7204 42.8993 68.1375 43.1061C68.0879 43.1233 68.03 43.1463 67.9721 43.1501C65.244 43.3588 62.5158 43.5675 59.7835 43.7723C59.5686 43.7877 59.395 43.8221 59.2958 43.914C59.2255 43.9791 59.1346 44.0174 58.9982 44.0289C57.0885 44.1744 55.1789 44.3218 53.265 44.4635C53.0377 44.4807 52.9012 44.5343 52.7896 44.6148C52.7524 44.6416 52.7193 44.6722 52.6656 44.6913C52.616 44.7085 52.5416 44.7143 52.4796 44.72C50.8427 44.8445 49.2059 44.9728 47.5648 45.0915C47.321 45.1087 47.2217 45.1795 47.1018 45.2542C47.0605 45.2791 47.0315 45.3136 46.9778 45.3308C46.9241 45.3461 46.8455 45.3461 46.7794 45.3499C45.4153 45.4533 44.0513 45.5586 42.6872 45.662C42.4227 45.6524 42.3648 45.7635 42.2366 45.8305C42.1912 45.8535 42.1582 45.8841 42.1044 45.8994C42.0466 45.9147 41.9721 45.9128 41.9018 45.9166C40.8105 45.999 39.7193 46.0871 38.6239 46.1636C38.3718 46.1809 38.3221 46.2785 38.1857 46.3455C38.1403 46.3666 38.0948 46.3991 38.0411 46.4049C37.3591 46.4604 36.6771 46.5121 35.995 46.5619C35.7677 46.5791 35.7677 46.5772 35.3667 46.7667C35.3212 46.7878 35.2675 46.8108 35.2096 46.8165C34.1886 46.8969 33.1635 46.9735 32.1384 47.052C32.0061 47.0616 31.9152 47.1075 31.8491 47.1726C31.7829 47.2377 31.6879 47.2798 31.5556 47.2894C30.7371 47.3526 29.9186 47.4177 29.1002 47.4751C28.8728 47.4904 28.7241 47.5383 28.6249 47.6244C28.5505 47.6895 28.4595 47.7221 28.3148 47.7336C27.4964 47.7948 26.678 47.8619 25.8554 47.9155C25.6157 47.9308 25.4916 47.9959 25.3924 48.0763C25.3139 48.1414 25.2229 48.1644 25.07 48.1758C23.5695 48.2869 22.0649 48.3979 20.5686 48.5205C20.3164 48.5415 20.1883 48.4745 20.0229 48.4266C19.7873 48.3596 19.5683 48.2869 19.5683 48.1375C19.5683 48.1146 19.498 48.0878 19.4484 48.0686C19.0805 47.925 19.0805 47.925 19.0226 47.7719C18.9896 47.6781 18.9524 47.5823 18.9234 47.4866C18.8697 47.3296 18.7374 47.2894 18.3571 47.3181C18.2207 47.3277 18.0843 47.3411 17.9479 47.3487C17.7453 47.3621 17.5924 47.299 17.5552 47.1841C17.5345 47.1209 17.5098 47.0577 17.4891 46.9945C17.6958 46.9792 17.6916 46.9773 18.0553 46.7457C18.2083 46.648 18.2083 46.648 17.9149 46.5504C17.8033 46.514 17.6958 46.4738 17.5759 46.4393C17.5221 46.424 17.4519 46.4144 17.394 46.4183C17.0509 46.4412 16.712 46.468 16.3731 46.4948C15.8274 46.537 15.8274 46.537 15.2735 46.3417C15.228 46.3264 15.1577 46.2976 15.166 46.2823C15.2115 46.2115 15.323 46.1809 15.4636 46.1732C15.6703 46.1617 15.8728 46.1426 16.0753 46.1272C16.2118 46.1177 16.3482 46.1062 16.4846 46.0966C16.6127 46.0239 16.745 45.953 16.8649 45.8784C17.0551 45.7635 17.055 45.7597 16.7946 45.6792C16.6292 45.6256 16.4515 45.5778 16.282 45.528C16.0795 45.5433 15.8728 45.5605 15.6703 45.5739C15.414 45.5912 15.3106 45.5548 15.2445 45.4303C15.1866 45.3212 15.2569 45.2274 15.4553 45.2044C15.6579 45.1815 15.8481 45.1661 15.9514 45.0685C16.0506 44.9747 16.2242 44.9383 16.4392 44.9306C16.5756 44.9249 16.712 44.9115 16.8484 44.9C17.0261 44.8847 17.1212 44.7871 17.084 44.6779C17.0633 44.6071 17.022 44.5477 16.8608 44.5324C16.1457 44.4654 16.1374 44.4673 15.7819 44.3371C15.7488 44.3256 15.7241 44.2912 15.7365 44.274C15.7571 44.2452 15.8026 44.2031 15.8522 44.1974C16.3276 44.1553 16.8029 44.117 17.2783 44.0882C17.4354 44.0787 17.5511 44.0653 17.6048 43.9944C17.6792 43.8968 17.6462 43.8068 17.5015 43.7398C17.456 43.7187 17.3816 43.6919 17.332 43.6938C16.7863 43.7283 16.2449 43.7723 15.6992 43.8068C15.6496 43.8106 15.5587 43.7781 15.5381 43.7532C15.4967 43.7073 15.5587 43.646 15.7034 43.6249C15.8935 43.5962 16.0878 43.5943 16.2159 43.4986C16.3937 43.3626 16.6127 43.2382 16.8111 43.108C16.8442 43.085 16.898 43.041 16.8856 43.0371C16.7823 42.995 16.6624 42.9625 16.5549 42.9223C16.373 42.8553 16.373 42.7615 16.4143 42.6715C16.4474 42.5987 16.5714 42.57 16.7243 42.57C16.7905 42.57 16.8731 42.57 16.9269 42.5528C17.0674 42.5106 17.1129 42.457 17.0426 42.4168C17.0013 42.3938 16.9269 42.3613 16.8773 42.3651C15.9928 42.4283 15.104 42.4896 14.2235 42.5681C13.9631 42.591 13.8433 42.5183 13.6862 42.4666C13.5664 42.4264 13.4547 42.4111 13.3059 42.4398C13.1653 42.4666 13.029 42.4513 12.9422 42.3881C12.8719 42.3364 12.9959 42.2924 13.3307 42.2426C13.3927 42.233 13.463 42.2273 13.5084 42.2081C13.9879 42.0014 13.9879 41.9995 14.3186 41.9726C14.641 41.9478 14.6411 41.9458 14.8106 41.8348C14.8891 41.7831 14.9758 41.7314 15.0502 41.6778C15.0792 41.6567 15.1288 41.6184 15.1123 41.607C15.0214 41.5476 14.8973 41.5342 14.7526 41.5476C14.4302 41.5802 14.05 41.5534 13.8805 41.7352C13.8144 41.8042 13.711 41.8233 13.5622 41.8348C12.0659 41.9458 10.5695 42.0646 9.06899 42.1718C8.82511 42.189 8.71357 42.2598 8.6185 42.3383C8.53583 42.4034 8.44487 42.4226 8.2878 42.4341C8.13072 42.4456 8.00665 42.4513 7.91572 42.3881C7.86198 42.3498 7.90746 42.2962 8.03147 42.2426C8.20921 42.166 8.17612 42.0703 8.11826 41.9803C8.07692 41.921 7.94878 41.8788 7.81238 41.8827C7.60983 41.8903 7.41561 41.9114 7.24613 41.8348C7.14693 41.7908 7.0229 41.7601 6.91129 41.7218C6.69634 41.6433 6.48139 41.5629 6.17964 41.6146C5.97297 41.5955 5.82829 41.5266 5.66295 41.4729C5.386 41.3849 5.3612 41.3715 5.55961 41.2777C5.78282 41.1724 5.60918 41.0345 5.73319 40.9311C5.86546 40.8201 6.0474 40.7224 6.20861 40.6191C6.24994 40.5923 6.28716 40.5674 6.3285 40.5406C6.23342 40.5023 6.14664 40.4544 6.03503 40.4276C5.89035 40.3931 5.81595 40.351 5.82421 40.2323C5.79528 40.2151 5.80759 40.2591 5.84066 40.2706C5.87786 40.2821 5.96887 40.2725 6.01434 40.2591C6.13008 40.2227 6.18789 40.1749 6.15895 40.1347C6.14242 40.1136 6.06394 40.0868 6.01434 40.0868C5.9234 40.0868 5.84488 40.1289 5.82008 40.2323C5.35712 40.3108 4.87755 40.3491 4.39806 40.3797C4.34845 40.3836 4.28649 40.3453 4.22862 40.3261C4.03847 40.261 4.03845 40.2629 3.48042 40.2438C3.42255 40.2419 3.34405 40.2151 3.31512 40.1883C3.19525 40.0715 3.19941 39.9432 3.14154 39.8188C3.24901 39.7383 3.3564 39.6599 3.46801 39.5814C3.69122 39.4224 3.98063 39.2827 4.15424 39.1085C4.11704 39.0147 4.06743 38.9208 4.24931 38.8443C4.766 38.7485 4.7619 38.7485 4.90244 38.6566C5.30339 38.3962 5.70019 38.1339 6.11768 37.8774C6.22929 37.8104 6.2293 37.774 6.03089 37.7453C5.96889 37.7376 5.90266 37.7357 5.83653 37.7395C5.62985 37.7529 5.42317 37.7874 5.22063 37.7797C5.01809 37.774 4.86928 37.6898 4.70394 37.6381C4.53446 37.5845 4.36499 37.5289 4.19552 37.4734C4.00124 37.4792 3.807 37.5328 3.61272 37.4466C3.46391 37.3796 3.27792 37.3317 3.10844 37.2762C3.23658 37.1307 3.47636 37.0197 3.66237 36.8914C3.83185 36.7746 3.83589 36.7765 4.29058 36.6865C4.50553 36.6444 4.57993 36.4281 4.39806 36.3649C4.17898 36.2883 3.94755 36.2175 3.72434 36.1447C3.53006 36.1504 3.33169 36.2022 3.14568 36.116C3.001 36.0509 2.83563 36.0069 2.59588 36.0317C2.1908 36.0739 1.77745 36.0949 1.36823 36.1294C1.22769 36.1409 1.0747 36.1332 1.0127 36.0681C0.971365 36.0222 1.09125 35.959 1.22765 35.9456C1.43433 35.9265 1.62032 35.9035 1.72366 35.8078C1.82286 35.712 2.00472 35.6833 2.21967 35.6699C2.27754 35.6661 2.34372 35.6431 2.37266 35.6201C2.52146 35.5091 2.68682 35.4133 3.0051 35.4172C3.13738 35.3789 3.2076 35.331 3.16627 35.2851C3.14146 35.2602 3.0547 35.2276 3.0051 35.2315C2.66202 35.2506 2.31894 35.2698 1.98413 35.3042C1.82705 35.3195 1.70711 35.3234 1.60791 35.2659C1.53764 35.2276 1.57484 35.1759 1.70711 35.1204C1.82285 35.0725 1.85595 35.017 1.84769 34.9519C1.82702 34.8007 1.70299 34.7566 1.30617 34.7662C1.02095 34.7739 0.950677 34.749 0.888674 34.6188C0.87214 34.5882 0.830877 34.546 0.859811 34.525C1.03755 34.3948 1.1533 34.234 1.48812 34.1727C1.62039 34.1497 1.76088 34.1497 1.84355 34.1C1.92622 34.0502 2.00066 33.9927 2.08746 33.9449C2.19494 33.8874 2.26927 33.8338 2.21967 33.7975C2.13699 33.7324 2.00477 33.7266 1.85182 33.7496C1.71955 33.7687 1.57901 33.7706 1.44261 33.7821C1.19873 33.8032 1.00036 33.7534 0.971426 33.6692C0.892888 33.4471 0.810193 33.2269 0.739922 33.0048C0.731655 32.978 0.752266 32.9436 0.785335 32.9206C0.901074 32.8402 1.02513 32.7636 1.145 32.6851C1.28554 32.5951 1.50879 32.6123 1.69894 32.5951C1.96762 32.5702 1.96752 32.5721 2.32714 32.3883C2.46768 32.3156 2.71158 32.3443 2.85625 32.2792C2.90172 32.2581 2.97199 32.2237 2.95959 32.2045C2.94305 32.1796 2.86043 32.1605 2.79842 32.149C2.74055 32.1375 2.6703 32.1318 2.6083 32.1375C1.85599 32.1931 1.10784 32.2524 0.35553 32.306C0.22739 32.3156 0.086845 32.2735 0.0413759 32.2141C-0.00409319 32.1586 0.00826711 32.0916 0 32.0284C0.119873 31.9499 0.256228 31.8771 0.359567 31.7929C0.438104 31.7278 0.529059 31.6991 0.686134 31.6953C0.892811 31.6895 1.09538 31.6665 1.32685 31.6493C1.75674 31.3698 2.17834 31.0769 2.6413 30.7973C2.82731 30.6844 2.78191 30.5695 2.81911 30.4489C2.85631 30.3378 3.13325 30.3551 3.31926 30.3225C3.46806 30.2957 3.5176 30.2344 3.45973 30.1923C3.42666 30.1674 3.3523 30.1387 3.29443 30.1387C3.15802 30.1387 3.02162 30.1559 2.88521 30.1655C2.74881 30.1751 2.59174 30.1694 2.48013 30.2019C2.37266 30.2325 2.30235 30.2976 2.23208 30.3531C2.15354 30.4144 2.05028 30.4355 1.8932 30.4393C1.69066 30.4431 1.48812 30.4604 1.28558 30.4738C1.06237 30.3991 0.83084 30.3264 0.615896 30.2479C0.57456 30.2325 0.566248 30.1885 0.570382 30.1598C0.578649 30.0851 0.516662 30.0392 0.380255 30.0028C0.264515 29.9722 0.169435 29.9281 0.0619629 29.8898C0.144634 29.8381 0.235604 29.7883 0.301741 29.7328C0.446416 29.616 0.628312 29.5318 0.942462 29.5356C1.06647 29.461 1.16565 29.3691 1.32685 29.3174C1.4798 29.2676 1.74022 29.3174 1.85596 29.2044C1.91383 29.1489 2.00068 29.0857 2.11229 29.0627C2.29003 29.0264 2.52151 29.0455 2.62485 28.9383C2.68685 28.877 2.77775 28.8215 2.89763 28.8062C3.03403 28.7889 3.17454 28.7851 3.27374 28.7488C3.32748 28.7296 3.38536 28.699 3.38536 28.6722C3.38536 28.6549 3.30275 28.6281 3.24488 28.6166C3.19114 28.6032 3.12079 28.5937 3.05879 28.5975C2.85211 28.609 2.64957 28.63 2.44289 28.6415C2.38502 28.6454 2.31891 28.632 2.2569 28.6205C2.07503 28.5898 2.0874 28.5516 2.23208 28.4826C2.37675 28.4156 2.48015 28.3295 2.60002 28.251C2.7323 28.2376 2.89761 28.2433 2.98855 28.2069C3.14149 28.1476 3.24894 28.0614 3.37294 27.9867C3.50935 27.9753 3.64988 27.9714 3.77802 27.9504C3.83176 27.9427 3.85658 27.9006 3.90205 27.8757C3.98472 27.8278 4.05505 27.7589 4.16665 27.7359C4.34853 27.7015 4.57174 27.7149 4.67921 27.6096C4.74121 27.5483 4.83625 27.4832 4.95199 27.4794C5.27441 27.4717 5.41082 27.3664 5.57616 27.2669C5.70017 27.1922 5.96472 27.2305 6.10113 27.1558C6.19207 27.108 6.25824 27.0486 6.34918 27.0027C6.38638 26.9835 6.46489 26.9739 6.5269 26.9682C6.86585 26.9395 7.20892 26.9184 7.54787 26.8878C7.60161 26.882 7.65125 26.8533 7.69259 26.8304C7.77939 26.7806 7.83307 26.7116 7.94054 26.6791C8.04801 26.6466 8.20093 26.6466 8.33321 26.637C8.75896 26.6083 8.79206 26.6159 8.98634 26.4532C9.14342 26.3211 9.52789 26.4149 9.65603 26.2694C9.73043 26.1851 9.86678 26.1162 10.1107 26.1066C10.4537 26.0932 10.7927 26.0569 11.1358 26.032C11.4417 26.009 11.4375 26.009 11.7682 25.8309C11.917 25.7505 12.1361 25.762 12.3304 25.7467C12.5371 25.7314 12.7272 25.7084 12.8264 25.6127C12.9256 25.5189 13.1075 25.4882 13.3183 25.4748C13.5126 25.4614 13.7317 25.471 13.8846 25.3944C14.2567 25.2106 14.2525 25.2087 14.513 25.1896C14.9222 25.1589 15.3314 25.1283 15.7406 25.0958C16.0134 25.0747 16.2986 25.0709 16.5549 25.0287C16.7409 24.9981 16.8236 24.8909 16.9434 24.8162C17.2824 24.7875 17.6213 24.7588 17.9603 24.732C18.4356 24.6937 18.9151 24.6592 19.3946 24.6229C19.6013 24.5501 19.6303 24.3893 19.9775 24.3816C20.1842 24.3778 20.3867 24.3529 20.5934 24.3376C20.9365 24.3108 21.2754 24.2763 21.6185 24.2629C21.8789 24.2533 21.9243 24.15 22.0607 24.0849C22.1062 24.0619 22.1476 24.0293 22.2013 24.0236C22.7387 23.97 23.2925 23.9585 23.8175 23.88C23.8712 23.8724 23.9208 23.8321 23.9332 23.8034C23.9415 23.7881 23.8712 23.7594 23.8258 23.746C23.772 23.7307 23.7018 23.7154 23.6439 23.7192C21.9368 23.8475 20.2296 23.9777 18.5225 24.1059C18.2827 24.1251 18.2827 24.1232 17.6999 24.3338C17.6503 24.351 17.5924 24.3701 17.5304 24.3759C17.2576 24.3989 16.9806 24.4123 16.7119 24.441C16.4929 24.464 16.311 24.441 16.154 24.372C16.0424 24.3223 15.9266 24.307 15.786 24.3108C15.6289 24.3165 15.5257 24.3376 15.4347 24.3893C15.3149 24.4601 15.2528 24.552 15.0007 24.5712C13.8392 24.6535 12.6776 24.7454 11.5202 24.8335C11.359 24.8067 11.2804 24.7665 11.3218 24.7186C11.3466 24.6899 11.3962 24.6516 11.4458 24.6478C11.9211 24.6075 12.4006 24.5731 12.876 24.5348C12.9421 24.5291 13.033 24.5329 13.0702 24.5137C13.2521 24.4276 13.3183 24.2878 13.6614 24.2782C13.8598 24.2725 14.0623 24.2438 14.2525 24.217C14.3062 24.2093 14.3558 24.1691 14.3682 24.1404C14.3724 24.1251 14.3062 24.0963 14.2566 24.0829C14.0747 24.0274 13.864 24.0944 13.6821 24.0562C13.6201 24.0428 13.5332 24.0236 13.5208 24.0006C13.5126 23.9796 13.5828 23.9451 13.6325 23.924C13.6779 23.9049 13.7399 23.8877 13.8019 23.8819C14.3475 23.8379 14.8932 23.7919 15.4389 23.7575C15.6621 23.7441 15.8191 23.6962 15.9183 23.6081C15.9927 23.543 16.0837 23.5086 16.2242 23.499C17.1791 23.4282 18.1339 23.3497 19.0929 23.2846C19.3326 23.2693 19.4567 23.2061 19.5559 23.1238C19.6344 23.0587 19.7254 23.0357 19.8783 23.0242C21.2465 22.9246 22.6064 22.8136 23.9746 22.7179C24.2268 22.7006 24.3012 22.6183 24.4293 22.5475C24.4748 22.5226 24.5037 22.492 24.5615 22.4766C24.6194 22.4613 24.6938 22.4632 24.7641 22.4594C25.8553 22.3771 26.9467 22.289 28.0421 22.2124C28.2983 22.1952 28.3479 22.0995 28.4801 22.0325C28.5256 22.0114 28.567 21.9769 28.6207 21.9712C29.4392 21.9061 30.2576 21.8448 31.076 21.7817C31.6217 21.7395 32.1673 21.6974 32.7129 21.6572C32.9816 21.6381 32.9816 21.6361 33.3453 21.4542C33.3867 21.4332 33.4446 21.4083 33.4983 21.4026C35.0691 21.28 36.6357 21.1633 38.2064 21.0426C38.3387 21.0331 38.4337 20.989 38.4999 20.9239C38.566 20.8588 38.6612 20.8148 38.7893 20.8052C40.017 20.7095 41.2446 20.6157 42.4764 20.5257C42.6996 20.5104 42.8567 20.4644 42.9559 20.3783C43.0303 20.3132 43.1212 20.2787 43.2617 20.2691C44.4894 20.1772 45.7171 20.0796 46.9489 19.9915C47.1845 19.9743 47.3002 19.9092 47.416 19.8326C47.4573 19.8058 47.4904 19.7618 47.54 19.7579C48.1518 19.7043 48.7594 19.6488 49.3753 19.6124C49.6316 19.5971 49.7184 19.5167 49.8217 19.4401C49.9044 19.3789 49.9995 19.3578 50.1566 19.3501C50.4997 19.3329 50.8386 19.3004 51.1734 19.2678C51.223 19.2621 51.285 19.22 51.2892 19.1932C51.2974 19.1434 51.2023 19.1089 51.0453 19.0917C49.4084 19.2161 47.7674 19.3406 46.1305 19.465C45.8618 19.4861 45.8618 19.4861 45.4981 19.668C45.4567 19.689 45.3988 19.7139 45.3409 19.7197C43.7702 19.8403 42.2036 19.959 40.6329 20.0796C40.5006 20.0892 40.4055 20.1332 40.3394 20.1983C40.2733 20.2634 40.1781 20.3074 40.05 20.317C38.5495 20.4319 37.049 20.5487 35.5444 20.6578C35.3212 20.6731 35.1642 20.7171 35.065 20.8052C34.9906 20.8703 34.8996 20.9048 34.7591 20.9144C33.3247 21.0216 31.8945 21.1345 30.456 21.2379C30.3113 21.2475 30.2039 21.1919 30.2122 21.1403C30.2163 21.1135 30.2782 21.0694 30.3278 21.0656C31.076 21.0024 31.8201 20.9373 32.5724 20.8895C32.8246 20.8741 32.8989 20.7899 33.0271 20.7191C33.0684 20.6942 33.1015 20.6616 33.1552 20.6482C33.2131 20.6329 33.2875 20.6348 33.3578 20.631C35.1311 20.4951 36.9044 20.3572 38.6818 20.2289C38.9381 20.2098 38.9876 20.116 39.1199 20.049C39.1654 20.026 39.2067 19.9915 39.2605 19.9877C39.8061 19.9418 40.3517 19.9015 40.8974 19.8613C41.8522 19.7886 42.807 19.7158 43.766 19.6431C44.043 19.622 44.043 19.622 44.3985 19.442C44.4398 19.421 44.4977 19.3942 44.5515 19.3904C47.0771 19.197 49.6027 19.0036 52.1283 18.8122C52.2606 18.8026 52.3556 18.7586 52.4218 18.6935C52.4879 18.6303 52.5829 18.5843 52.7111 18.5728C56.1254 18.3125 59.5356 18.0521 62.9499 17.7955C63.1731 17.7783 63.3302 17.7381 63.4294 17.6481C63.4996 17.583 63.5947 17.5485 63.7352 17.5371C67.4885 17.2518 71.2418 16.9665 74.9992 16.6793C77.5248 16.4879 80.0504 16.2926 82.576 16.105C82.8075 16.0877 82.9314 16.0284 83.0472 15.9499C83.0844 15.9231 83.1216 15.879 83.1712 15.8752C83.7127 15.8273 84.2542 15.7833 84.7957 15.7393C84.9652 15.791 85.1346 15.8408 85.3041 15.8925C85.4322 15.8197 85.5563 15.745 85.6845 15.6723C86.5029 15.6167 87.3089 15.5306 88.1356 15.5038C88.1894 15.5019 88.2472 15.5383 88.3051 15.5574C88.6895 15.678 88.9086 15.6684 89.1525 15.5076C89.2393 15.4502 89.3137 15.3985 89.4459 15.3889C89.8551 15.3545 90.2686 15.3315 90.6737 15.2913C90.8928 15.2702 91.0746 15.2894 91.2317 15.3583C91.3433 15.4081 91.459 15.4291 91.5955 15.4176C92.3478 15.3602 93.0959 15.3047 93.8482 15.2434C93.902 15.2396 93.9515 15.207 93.9928 15.184C94.0796 15.1343 94.1541 15.0807 94.2367 15.029C94.3484 15.0615 94.4724 15.0864 94.5633 15.1285C94.6791 15.1783 94.7865 15.1783 94.9436 15.1649C97.9445 14.9332 100.95 14.7073 103.951 14.4738C104.207 14.4546 104.319 14.535 104.492 14.5771C104.55 14.5925 104.608 14.6116 104.67 14.6154C104.736 14.6193 104.806 14.6078 104.872 14.602C107.125 14.4297 109.378 14.2593 111.631 14.087C111.928 14.064 111.928 14.064 112.371 14.1827C112.424 14.1981 112.495 14.2153 112.553 14.2095C113.578 14.1349 114.603 14.0545 115.624 13.9779C115.756 13.9683 115.868 13.9989 115.988 14.043C116.223 14.1291 116.24 14.1291 116.413 14.0028C116.496 13.9434 116.583 13.907 116.719 13.8898C116.868 13.8707 116.988 13.8764 117.104 13.9109C117.269 13.9587 117.389 14.0391 117.641 14.0181C118.732 13.9281 119.828 13.8534 120.915 13.7615C121.163 13.7405 121.295 13.8056 121.46 13.8534C121.518 13.8707 121.572 13.8975 121.634 13.9032C121.696 13.909 121.77 13.8955 121.837 13.8898C123.201 13.7864 124.569 13.685 125.929 13.5739C126.185 13.5529 126.297 13.6352 126.47 13.6773C126.528 13.6926 126.594 13.7194 126.648 13.7156C127.466 13.6562 128.289 13.593 129.107 13.5299C129.401 13.5069 129.401 13.5088 129.847 13.6256C129.901 13.6409 129.971 13.6562 130.029 13.6524C130.984 13.5816 131.943 13.5088 132.898 13.436C133.191 13.4131 133.191 13.4131 134.039 13.5126C134.101 13.5203 134.167 13.5318 134.229 13.528C135.32 13.4456 136.416 13.3652 137.507 13.2771C137.726 13.2599 137.908 13.2752 138.065 13.3442C138.176 13.3939 138.292 13.415 138.429 13.4035C139.656 13.3097 140.888 13.2197 142.112 13.1202C142.347 13.101 142.5 13.1431 142.665 13.1986C142.719 13.2178 142.773 13.2446 142.835 13.2523C142.897 13.2599 142.967 13.2523 143.033 13.2465C144.261 13.1527 145.493 13.0646 146.716 12.9632C146.964 12.9421 147.097 13.0072 147.262 13.0551C147.32 13.0723 147.382 13.1067 147.431 13.1048C147.911 13.0723 148.39 13.0436 148.866 12.9957C149.122 12.9689 149.234 13.057 149.407 13.0991C149.465 13.1125 149.531 13.1412 149.585 13.1374C150.61 13.0627 151.635 12.9842 152.656 12.9038C152.801 12.8923 152.908 12.9095 153.024 12.9593C153.177 13.0263 153.355 13.0531 153.578 13.0321C154.053 12.988 154.533 12.9574 155.012 12.921C155.293 12.9 155.293 12.9 156.153 12.9995C156.215 13.0072 156.281 13.0187 156.343 13.0149C157.162 12.9536 157.984 12.8942 158.799 12.8272C159.018 12.8081 159.2 12.8253 159.357 12.8942C159.468 12.944 159.58 12.9651 159.72 12.9536C160.473 12.8962 161.221 12.8387 161.973 12.7813C162.246 12.7602 162.519 12.7238 162.792 12.7238C162.99 12.7258 163.135 12.8176 163.313 12.8636C163.362 12.877 163.445 12.8617 163.511 12.8579C164.466 12.7851 165.425 12.7181 166.376 12.6358C166.624 12.6147 166.756 12.6798 166.921 12.7277C166.979 12.7449 167.041 12.7794 167.091 12.7775C167.434 12.7564 167.773 12.7277 168.116 12.7028C168.525 12.6721 168.938 12.6492 169.343 12.6071C169.674 12.5726 169.798 12.7392 170.063 12.7449C170.265 12.7506 170.472 12.7181 170.674 12.7028C171.084 12.6721 171.493 12.6377 171.902 12.6109C172.047 12.6013 172.158 12.5707 172.204 12.5017C172.212 12.4883 172.142 12.4596 172.096 12.4424C171.547 12.2471 171.547 12.2471 170.993 12.2892C170.65 12.316 170.311 12.3428 169.968 12.3658C169.91 12.3696 169.844 12.3543 169.786 12.3428C169.62 12.3103 169.637 12.272 169.777 12.2031C169.918 12.1342 170.025 12.0499 170.145 11.9714C170.315 12.0212 170.48 12.071 170.65 12.1207C170.786 12.1112 170.922 12.0997 171.059 12.0901C171.741 12.0403 172.423 11.9887 173.105 11.9427C173.155 11.9389 173.217 11.9772 173.274 11.9963C173.44 12.0518 173.589 12.0997 173.828 12.0786C174.44 12.0231 175.056 11.9829 175.668 11.935C175.936 11.914 175.936 11.914 176.408 12.0327C176.461 12.0461 176.532 12.0614 176.59 12.0576C177.205 12.0135 177.817 11.9657 178.433 11.9197C178.565 11.9102 178.694 11.935 178.789 11.9906C178.826 12.0135 178.818 12.0518 178.975 12.3658C179.462 12.6205 179.797 12.5937 180.136 12.5707C180.281 12.5611 180.409 12.5515 180.504 12.5132C180.554 12.4922 180.616 12.4615 180.616 12.4367C180.616 12.4175 180.525 12.3869 180.467 12.383C180.058 12.3447 179.669 12.4252 179.268 12.4424C179.082 12.4501 178.921 12.383 178.888 12.2739C178.88 12.2433 178.867 12.2107 178.855 12.1801C178.842 12.1495 178.834 12.1169 178.822 12.0863C178.661 12.0767 178.565 12.1112 178.495 12.1763C178.437 12.2299 178.355 12.2911 178.243 12.3199C178.131 12.3505 177.978 12.3448 177.842 12.3543C177.71 12.3639 177.565 12.3888 177.441 12.3754C177.317 12.3601 177.218 12.3045 177.102 12.2701C177.048 12.2529 176.982 12.228 176.929 12.2318C176.453 12.2644 175.982 12.2969 175.511 12.339C175.263 12.362 175.139 12.2816 174.982 12.2318C174.858 12.1935 174.734 12.2031 174.713 12.2911C174.659 12.5017 174.849 12.5898 175.271 12.5496C175.618 12.5151 175.932 12.5094 176.205 12.6396C176.242 12.6568 176.329 12.6645 176.383 12.6607C176.722 12.6377 177.057 12.609 177.396 12.586C177.458 12.5822 177.524 12.5898 177.582 12.5975C178.425 12.7009 178.425 12.7028 178.71 12.6798C178.847 12.6683 178.979 12.6587 178.966 12.3677C179.227 12.0557 179.64 12.0346 180.041 11.9887C180.302 11.9599 180.413 12.0442 180.583 12.0882C180.64 12.1035 180.702 12.1342 180.756 12.1303C181.645 12.0671 182.529 12.0001 183.414 11.9293C183.563 11.9178 183.67 11.9293 183.786 11.9791C183.935 12.0422 184.1 12.0825 184.336 12.0595C184.807 12.0135 185.287 11.9848 185.766 11.9465C186.01 11.9274 186.01 11.9274 186.502 12.0461C186.556 12.0595 186.626 12.0748 186.684 12.071C187.163 12.0384 187.639 11.9982 188.114 11.9638C188.246 11.9542 188.366 11.981 188.469 12.0327C188.573 12.0844 188.697 12.1112 188.825 12.1016C189.304 12.0671 189.78 12.0289 190.255 11.9944C190.313 11.9906 190.383 12.004 190.437 12.0174C190.941 12.1361 190.941 12.1361 191.173 12.1169C191.512 12.0882 191.859 12.0748 192.194 12.0365C192.52 11.9982 192.69 12.1093 192.913 12.1705C193.525 12.1265 194.141 12.0901 194.748 12.0365C194.996 12.0135 195.129 12.0767 195.294 12.1265C195.352 12.1437 195.41 12.1801 195.463 12.1782C195.67 12.1705 195.873 12.1495 196.075 12.1342C196.278 12.1188 196.484 12.1035 196.687 12.0882C196.918 12.1437 197.071 12.2739 197.402 12.2299C197.6 12.2031 197.811 12.1973 198.014 12.182C198.216 12.1667 198.423 12.1514 198.626 12.1361C198.762 12.1265 198.902 12.1208 199.035 12.1035C199.279 12.0748 199.399 12.1686 199.572 12.2107C199.63 12.2241 199.696 12.2471 199.75 12.2433C200.159 12.2165 200.572 12.1935 200.973 12.1495C201.283 12.115 201.494 12.1725 201.713 12.2529C201.759 12.2701 201.837 12.2797 201.895 12.2758C202.375 12.2433 202.85 12.2031 203.325 12.1686C203.453 12.159 203.578 12.1897 203.681 12.2394C203.788 12.2911 203.908 12.316 204.04 12.3065C204.516 12.272 204.995 12.2337 205.471 12.1992C205.529 12.1954 205.599 12.2107 205.653 12.2261C206.116 12.3448 206.116 12.3467 206.388 12.3237C206.454 12.318 206.525 12.3141 206.591 12.3084C206.93 12.2816 207.281 12.272 207.612 12.2261C207.992 12.1744 208.269 12.2395 208.538 12.3486C208.877 12.3256 209.224 12.3122 209.555 12.2739C209.803 12.2452 209.935 12.318 210.1 12.3658C210.158 12.383 210.22 12.4175 210.27 12.4137C210.749 12.3811 211.229 12.3524 211.7 12.3046C211.956 12.2778 212.068 12.3639 212.241 12.4079C212.299 12.4232 212.361 12.4501 212.415 12.4462C212.688 12.4309 212.961 12.4079 213.234 12.3869C213.552 12.362 213.552 12.3639 213.973 12.4807C214.172 12.5362 214.37 12.4922 214.565 12.4788C214.771 12.4635 214.965 12.452 215.131 12.5305C215.234 12.5802 215.358 12.6109 215.486 12.6032C215.759 12.586 216.036 12.5688 216.305 12.54C216.52 12.5171 216.706 12.5324 216.863 12.6032C216.974 12.653 217.09 12.6779 217.227 12.6664C217.838 12.6205 218.454 12.5726 219.066 12.5285C219.12 12.5247 219.194 12.542 219.244 12.5592C219.359 12.5936 219.471 12.6319 219.583 12.6702C219.851 12.653 220.128 12.6454 220.393 12.6186C220.674 12.5917 220.93 12.5822 221.149 12.6875C221.195 12.7104 221.261 12.743 221.315 12.7411C221.521 12.7334 221.724 12.7143 221.926 12.6989C222.129 12.6836 222.336 12.6683 222.538 12.653C222.774 12.7009 222.923 12.8387 223.253 12.7947C223.452 12.7679 223.662 12.7621 223.865 12.7468C224.068 12.7315 224.274 12.7143 224.477 12.7009C224.543 12.697 224.617 12.6875 224.675 12.6951C224.737 12.7028 224.791 12.7296 224.845 12.7487C225.01 12.8042 225.163 12.8598 225.399 12.8272C225.597 12.8004 225.808 12.7947 226.01 12.7775C226.287 12.7564 226.287 12.7564 226.746 12.877C226.932 12.9268 227.143 12.8617 227.321 12.9038C227.441 12.9325 227.544 12.9804 227.66 13.0129C227.709 13.0263 227.788 13.0321 227.846 13.0282C228.118 13.011 228.395 12.9938 228.664 12.9651C228.883 12.9421 229.065 12.9651 229.218 13.034C229.33 13.0838 229.441 13.1048 229.582 13.0934C230.264 13.0398 230.946 12.9938 231.624 12.9344C231.855 12.9134 232.041 12.9459 232.169 13.0149C232.388 13.1336 232.698 12.9938 232.926 13.0895C233.066 13.1489 233.207 13.2178 233.463 13.1891C233.934 13.1393 234.414 13.1125 234.889 13.078C235.059 13.1297 235.228 13.1814 235.402 13.2331C235.675 13.2121 235.947 13.191 236.22 13.1718C236.423 13.1565 236.629 13.1393 236.832 13.1259C236.898 13.1221 236.968 13.1144 237.03 13.124C237.092 13.1335 237.142 13.1584 237.2 13.1776C237.485 13.2714 237.485 13.2733 237.956 13.235C238.159 13.2178 238.353 13.2063 238.523 13.2829C238.68 13.3537 238.866 13.3671 239.081 13.3461C239.486 13.3078 239.895 13.2791 240.308 13.2523C240.436 13.2427 240.556 13.2752 240.664 13.325C240.825 13.4035 241.023 13.3959 241.226 13.3748C241.495 13.348 241.759 13.3212 241.986 13.4284C242.032 13.4514 242.102 13.4839 242.152 13.482C242.491 13.4667 242.834 13.4552 243.165 13.4188C243.495 13.3824 243.656 13.5011 243.884 13.5586C244.223 13.5337 244.566 13.5088 244.905 13.4839C244.971 13.4782 245.049 13.4609 245.107 13.4705C245.351 13.5107 245.492 13.6543 245.827 13.6103C246.021 13.5854 246.232 13.5777 246.434 13.572C246.488 13.5701 246.558 13.6026 246.595 13.6275C246.616 13.6409 246.595 13.6773 246.571 13.6964C246.496 13.75 246.405 13.7998 246.339 13.8554C246.331 13.863 246.409 13.8975 246.455 13.9128C246.566 13.9472 246.695 13.9415 246.843 13.9262C246.972 13.9128 247.104 13.9396 247.195 13.997C247.232 14.02 247.22 14.0583 247.141 14.1847C247.141 14.2785 247.228 14.2363 247.257 14.1751C247.302 14.087 247.215 14.0583 247.05 14.1061C246.934 14.1406 246.877 14.1904 246.905 14.2306C246.922 14.2517 247 14.2785 247.141 14.1847C247.505 14.0698 247.778 14.0487 248.05 14.0277C248.121 14.0219 248.203 14.0028 248.253 14.0143C248.431 14.0602 248.596 14.1157 248.77 14.1674C248.968 14.1559 249.154 14.1272 249.348 14.2019C249.621 14.3072 249.634 14.2976 249.898 14.2765C250.035 14.2651 250.171 14.2555 250.307 14.2459C250.444 14.2364 250.551 14.2651 250.671 14.3091C250.915 14.3991 250.936 14.3991 251.097 14.2765C251.192 14.2019 251.258 14.177 251.378 14.2115C251.775 14.3282 251.779 14.3359 252.118 14.3014C252.399 14.2727 252.663 14.2651 252.87 14.3742C253.011 14.4508 253.056 14.4335 253.168 14.3531C253.465 14.1406 253.602 14.1444 254.16 14.2976C254.42 14.3704 254.689 14.2919 254.953 14.2823C255.177 14.2746 255.334 14.3206 255.35 14.4412C255.363 14.5159 255.4 14.5695 255.549 14.5944C255.607 14.6039 255.677 14.6173 255.735 14.6135C256.078 14.5905 256.417 14.5637 256.76 14.5369C256.933 14.5235 257.029 14.4336 256.995 14.3149C256.958 14.1885 257.024 14.1425 257.272 14.1061C257.421 14.0851 257.541 14.0889 257.661 14.1234C257.793 14.1617 257.756 14.1961 257.64 14.2651C257.363 14.4336 257.396 14.5369 257.752 14.6537C257.876 14.6939 257.975 14.7303 258.004 14.7897C258.021 14.8203 258.004 14.8605 258.041 14.8835C258.244 15.0117 258.525 15.0941 258.839 15.1553C259.141 15.1037 259.347 15.1898 259.579 15.2587C259.761 15.3123 259.976 15.2664 260.17 15.2472C260.389 15.2262 260.571 15.2415 260.728 15.3123C260.84 15.3621 260.955 15.3851 261.092 15.3755C261.365 15.3544 261.642 15.341 261.91 15.3104C262.142 15.2836 262.315 15.3219 262.46 15.387C262.642 15.4693 262.844 15.4138 263.035 15.4253C263.291 15.4387 263.419 15.6091 263.754 15.5631C263.952 15.5363 264.159 15.5268 264.366 15.5191C264.419 15.5172 264.485 15.5497 264.531 15.5727C264.75 15.678 265.006 15.6723 265.287 15.6416C265.482 15.6206 265.672 15.6014 265.862 15.6742C266.176 15.7967 266.523 15.9039 266.854 16.0169C266.899 16.105 266.866 16.2083 267.102 16.26C267.226 16.2868 267.342 16.3271 267.437 16.3711C267.553 16.4228 267.66 16.4362 267.809 16.4228C268.077 16.396 268.359 16.3902 268.623 16.3558C268.867 16.3251 269.02 16.3883 269.169 16.4477C269.289 16.4955 269.4 16.5185 269.545 16.484C269.694 16.4515 269.801 16.4726 269.921 16.5242C270.091 16.5951 270.103 16.5874 270.665 16.6085C270.723 16.6104 270.793 16.6391 270.826 16.664C270.843 16.6774 270.806 16.7157 270.777 16.7349C270.74 16.7578 270.682 16.7846 270.628 16.7904C270.016 16.8401 269.4 16.8842 268.788 16.934C268.726 16.9397 268.66 16.9531 268.615 16.9723C268.565 16.9933 268.503 17.022 268.503 17.0488C268.503 17.068 268.586 17.091 268.644 17.1044C268.826 17.1484 269.041 17.0814 269.218 17.1312C269.338 17.1637 269.437 17.2097 269.557 17.2403C269.607 17.2537 269.685 17.2518 269.747 17.248C269.954 17.2346 270.157 17.2154 270.363 17.2039C270.421 17.202 270.487 17.2212 270.541 17.2365C270.938 17.3514 270.938 17.3513 271.281 17.3265C271.417 17.3169 271.562 17.2882 271.69 17.2997C271.814 17.3111 271.922 17.3628 272.033 17.3954C272.265 17.4643 272.484 17.5313 272.5 17.6806C272.509 17.7381 272.645 17.7879 272.781 17.7917C272.914 17.7955 273.054 17.7745 273.191 17.763C273.513 17.74 273.513 17.74 273.931 17.8568C274.046 17.8893 274.17 17.8932 274.319 17.874C274.377 17.8664 274.447 17.874 274.509 17.8836C274.712 17.9123 274.712 17.9487 274.58 18.0176C274.394 18.1191 274.41 18.1287 274.931 18.2148C275.129 18.2474 275.282 18.3086 275.448 18.3622C275.716 18.4484 275.712 18.4484 275.534 18.5613C275.493 18.5862 275.456 18.613 275.415 18.6398C275.295 18.7145 275.2 18.7949 274.952 18.8026C274.679 18.8102 274.406 18.8409 274.133 18.8619C273.869 18.883 273.798 18.9289 273.823 19.0591C273.852 19.2161 273.906 19.2334 274.381 19.2314C274.518 19.2314 274.637 19.2468 274.741 19.2984C274.691 19.3597 274.6 19.4076 274.468 19.4191C274.129 19.4478 273.786 19.4727 273.447 19.4976C273.174 19.5186 272.901 19.5397 272.629 19.5607C272.459 19.5741 272.352 19.6737 272.397 19.7848C272.422 19.8479 272.443 19.9111 272.463 19.9743C272.509 20.1007 272.595 20.1332 272.872 20.1275C272.943 20.1256 273.009 20.1102 273.075 20.1141C273.344 20.1275 273.472 20.2864 273.794 20.2538C274.063 20.227 274.344 20.2213 274.609 20.1868C274.852 20.1562 274.989 20.2251 275.158 20.2768C275.216 20.294 275.278 20.3304 275.328 20.3285C275.671 20.3074 276.014 20.2864 276.349 20.25C276.506 20.2347 276.601 20.2462 276.725 20.2921C277.022 20.4032 277.031 20.3974 277.473 20.363C277.796 20.3362 277.8 20.34 278.213 20.4568C278.329 20.4893 278.453 20.4893 278.602 20.474C278.796 20.4548 278.998 20.4242 279.201 20.4529C279.263 20.4606 279.341 20.4836 279.362 20.5085C279.375 20.5257 279.317 20.5678 279.267 20.5812C278.903 20.6808 278.478 20.6635 278.081 20.7038C277.957 20.7152 277.833 20.6789 277.729 20.6272C277.622 20.5755 277.506 20.5544 277.366 20.564C277.093 20.5851 276.816 20.5984 276.547 20.6291C276.316 20.6559 276.154 20.6118 275.993 20.5525C275.939 20.5333 275.878 20.497 275.824 20.4989C275.212 20.5372 274.596 20.5755 273.989 20.6291C273.745 20.6521 273.604 20.5908 273.439 20.5391C273.381 20.5219 273.323 20.4855 273.269 20.4874C273.063 20.4951 272.86 20.5161 272.653 20.5314C271.901 20.5889 271.153 20.6463 270.401 20.6999C270.351 20.7037 270.289 20.6635 270.231 20.6463C270.119 20.6118 270.004 20.5793 269.888 20.5467C269.681 20.5621 269.479 20.5812 269.272 20.5927C269.123 20.6004 268.991 20.6272 268.97 20.6999C268.958 20.7478 269.094 20.7918 269.239 20.788C269.38 20.7842 269.52 20.7612 269.636 20.7861C270.21 20.9086 270.21 20.9105 270.57 20.8856C270.884 20.8627 270.851 20.8435 271.128 20.9488C271.248 20.9948 271.355 21.0216 271.492 21.0101C271.831 20.9833 272.174 20.9565 272.517 20.9335C272.571 20.9297 272.641 20.9488 272.695 20.9641C273.1 21.079 273.1 21.0828 273.435 21.0541C273.873 21.0196 273.889 21.0101 274.183 21.1269C274.385 21.2073 274.571 21.1518 274.766 21.1479C274.989 21.2226 275.233 21.2896 275.435 21.3739C275.675 21.4734 275.927 21.4562 276.2 21.4274C276.402 21.4064 276.601 21.3987 276.766 21.4772C276.923 21.55 277.113 21.5576 277.328 21.5385C277.523 21.5213 277.721 21.4849 277.924 21.527C277.977 21.5385 278.06 21.5672 278.056 21.5844C278.052 21.6113 277.998 21.6495 277.944 21.661C277.564 21.7395 277.147 21.7376 276.746 21.774C276.692 21.7797 276.622 21.7587 276.568 21.7433C276.452 21.7089 276.34 21.6687 276.229 21.6323C276.026 21.6438 275.82 21.6476 275.621 21.6706C275.468 21.6878 275.353 21.6859 275.241 21.64C275.138 21.5979 275.026 21.5462 274.902 21.5328C274.778 21.5194 274.633 21.5481 274.497 21.5596C274.361 21.571 274.203 21.5653 274.096 21.5959C273.989 21.6266 273.922 21.6936 273.852 21.7472C273.774 21.8065 273.666 21.8257 273.509 21.8314C273.364 21.8372 273.249 21.8295 273.141 21.7759C273.096 21.7529 273.034 21.7357 272.972 21.7204C272.914 21.707 272.848 21.6859 272.794 21.6897C272.178 21.7338 271.566 21.7817 270.95 21.8276C270.644 21.8506 270.649 21.8506 270.012 21.7376C269.954 21.728 269.884 21.7146 269.826 21.7185C269.483 21.7414 269.144 21.7682 268.801 21.795C268.454 21.8218 268.458 21.818 267.867 21.6974C267.759 21.6744 267.602 21.7051 267.474 21.7012C267.205 21.6917 267.073 21.5308 266.759 21.5615C266.49 21.5883 266.209 21.594 265.94 21.6285C265.697 21.6591 265.556 21.5921 265.391 21.5404C265.333 21.5232 265.271 21.4849 265.221 21.4887C264.605 21.5308 263.994 21.5787 263.175 21.5844C262.973 21.5844 263.063 21.6247 263.196 21.6381C263.386 21.6591 263.448 21.6189 263.345 21.5423C263.27 21.4887 263.163 21.4619 263.076 21.4753C263.03 21.483 262.973 21.5194 263.175 21.5844C263.39 21.6572 263.378 21.6974 263.415 21.7204C263.506 21.7759 263.634 21.7989 263.766 21.7912C263.973 21.7778 264.175 21.7587 264.382 21.7472C264.44 21.7434 264.51 21.7568 264.564 21.7721C265.019 21.8908 265.023 21.8984 265.506 21.8525C265.659 21.8391 265.771 21.8391 265.891 21.8755C266.056 21.9252 266.176 22.0095 266.428 21.9827C266.763 21.9463 267.106 21.9253 267.449 21.9042C267.503 21.9004 267.561 21.9348 267.623 21.9501C267.792 21.9961 267.916 22.0822 268.168 22.0459C268.363 22.0171 268.574 22.0095 268.78 22.0037C268.834 22.0018 268.917 22.0325 268.941 22.0573C268.991 22.1014 268.929 22.1531 268.788 22.1895C268.731 22.2048 268.652 22.2009 268.586 22.2067C268.313 22.2277 268.04 22.2507 267.767 22.2679C267.623 22.2775 267.486 22.3062 267.47 22.3771C267.457 22.4249 267.606 22.4671 267.747 22.4632C267.953 22.4575 268.16 22.4422 268.359 22.4173C268.71 22.3752 269.016 22.3866 269.301 22.5073C269.504 22.5915 269.491 22.5609 269.706 22.8098C269.76 22.873 269.921 22.8787 270.062 22.8749C270.401 22.8653 270.558 22.894 270.529 22.9534C270.491 23.0261 270.372 23.0491 270.219 23.0587C269.946 23.074 269.673 23.0989 269.4 23.1199C269.334 23.1257 269.26 23.1372 269.198 23.1333C269.136 23.1295 269.078 23.1065 269.024 23.0893C268.908 23.0529 268.809 22.9974 268.685 22.984C268.561 22.9706 268.416 22.9993 268.28 23.0108C268.144 23.0204 267.999 23.0491 267.875 23.0357C267.751 23.0223 267.648 22.9649 267.536 22.9304C267.482 22.9132 267.416 22.8863 267.362 22.8883C267.09 22.9036 266.817 22.9285 266.544 22.9476C266.209 22.9725 266.209 22.9725 265.804 22.8538C265.688 22.8193 265.568 22.8213 265.416 22.8366C265.085 22.8672 265.081 22.8615 264.477 22.7504C264.419 22.7389 264.349 22.7255 264.291 22.7313C263.675 22.7753 263.063 22.8232 262.452 22.8691C261.927 22.9093 261.927 22.9093 261.637 23.1008C261.422 23.2425 261.418 23.2425 261.629 23.3076C261.799 23.3612 261.952 23.4397 262.138 23.4684C262.311 23.4952 262.526 23.409 262.716 23.4971C262.811 23.5411 262.935 23.589 263.055 23.5967C263.245 23.6062 263.448 23.5507 263.63 23.6349C263.721 23.6771 263.857 23.7211 263.973 23.723C264.175 23.7269 264.382 23.6962 264.585 23.6828C264.647 23.679 264.717 23.679 264.775 23.6886C264.837 23.7 264.891 23.723 264.944 23.7422C265.11 23.8073 265.287 23.8379 265.502 23.8053C265.854 23.7517 266.168 23.7785 266.441 23.9011C266.478 23.9183 266.569 23.9202 266.627 23.9126C266.775 23.8934 266.904 23.8915 267.015 23.9279C267.061 23.9432 267.127 23.97 267.118 23.9872C267.106 24.0159 267.056 24.0542 267.003 24.0638C266.614 24.1289 266.197 24.1366 265.796 24.171C265.742 24.1749 265.676 24.15 265.622 24.1327C265.506 24.0983 265.407 24.0408 265.283 24.0274C265.159 24.014 265.015 24.0389 264.878 24.0485C264.742 24.0581 264.597 24.0868 264.473 24.0753C264.349 24.0619 264.233 24.014 264.134 23.9719C264.018 23.924 263.907 23.9183 263.754 23.9375C263.555 23.9623 263.349 23.9662 263.146 23.9796C263.035 23.9432 262.923 23.903 262.807 23.8685C262.754 23.8513 262.687 23.8302 262.63 23.8321C262.357 23.8475 262.084 23.8704 261.811 23.8915C261.538 23.9125 261.538 23.9126 261.075 23.7939C261.022 23.7805 260.951 23.7651 260.893 23.769C260.55 23.7919 260.211 23.8206 259.868 23.8436C259.736 23.8532 259.616 23.8264 259.509 23.7747C259.405 23.723 259.281 23.6943 259.153 23.7039C258.608 23.7441 258.062 23.7824 257.516 23.8302C257.297 23.8494 257.111 23.8321 256.962 23.7632C256.789 23.6847 256.594 23.7039 256.392 23.7192C255.933 23.7575 255.929 23.7556 255.635 23.6579C255.578 23.6388 255.52 23.6024 255.466 23.6043C254.991 23.633 254.511 23.6598 254.04 23.7058C253.792 23.7307 253.66 23.6637 253.494 23.6139C253.436 23.5967 253.374 23.5603 253.325 23.5641C252.982 23.5852 252.639 23.6043 252.304 23.6426C251.969 23.6809 251.841 23.5028 251.589 23.5048C251.246 23.5067 250.907 23.5507 250.568 23.5775C250.295 23.5986 250.022 23.6196 249.749 23.6407C249.476 23.6617 249.204 23.679 248.931 23.7039C248.786 23.7173 248.679 23.7 248.559 23.6522C248.406 23.589 248.224 23.5392 248.059 23.4818C247.807 23.3995 247.807 23.3995 247.501 23.4224C247.435 23.4282 247.364 23.432 247.298 23.4377C246.798 23.4799 246.798 23.476 246.161 23.3554C246.132 23.3497 246.058 23.3707 246.029 23.3861C245.942 23.4358 245.864 23.4894 245.785 23.5411C245.674 23.5105 245.537 23.4933 245.463 23.4492C245.252 23.3248 244.921 23.4952 244.706 23.3726C244.628 23.3267 244.491 23.2865 244.367 23.275C244.239 23.2635 244.095 23.2903 243.962 23.3018C243.619 23.3305 243.619 23.3286 243.326 23.499C243.177 23.5833 242.962 23.5679 242.768 23.5871C242.565 23.6081 242.371 23.6196 242.201 23.5411C242.048 23.4703 241.863 23.4531 241.643 23.476C241.375 23.5048 241.098 23.522 240.825 23.5392C240.767 23.543 240.697 23.5335 240.639 23.522C240.007 23.409 240.006 23.4071 239.701 23.432C239.564 23.4435 239.424 23.4473 239.291 23.4645C239.068 23.4952 238.899 23.455 238.738 23.3937C238.684 23.3746 238.622 23.3382 238.568 23.3401C238.295 23.3497 238.027 23.3669 237.758 23.3841C237.551 23.3975 237.345 23.4052 237.146 23.432C236.815 23.476 236.654 23.3516 236.427 23.2941C236.088 23.319 235.745 23.3363 235.406 23.3707C235.249 23.386 235.146 23.3803 235.026 23.3344C234.873 23.2769 234.732 23.2118 234.484 23.2406C234.153 23.2788 233.806 23.2922 233.467 23.3152C233.24 23.2559 233.075 23.1352 232.748 23.1793C232.55 23.2061 232.339 23.2118 232.136 23.2271C231.863 23.2482 231.591 23.2674 231.318 23.2903C231.024 23.3133 231.028 23.3076 230.578 23.1946C230.318 23.1276 230.049 23.2023 229.784 23.2137C229.578 23.2233 229.474 23.3114 229.524 23.4243C229.573 23.5373 229.462 23.6254 229.272 23.6407C228.796 23.6771 228.317 23.7153 227.841 23.7479C227.784 23.7517 227.713 23.7383 227.66 23.7249C227.151 23.6043 227.151 23.6062 226.924 23.6235C226.585 23.6522 226.238 23.6675 225.903 23.7039C225.671 23.7288 225.502 23.6886 225.353 23.6235C225.237 23.5737 225.13 23.5622 224.981 23.5737C223.344 23.702 221.707 23.8207 220.075 23.9528C219.831 23.9719 219.69 23.9164 219.525 23.8647C219.467 23.8475 219.413 23.8111 219.355 23.8111C219.219 23.8111 219.082 23.8283 218.946 23.8398C218.334 23.8858 217.723 23.9413 217.107 23.9757C216.846 23.9911 216.776 24.0791 216.664 24.1519C216.578 24.2074 216.478 24.2304 216.325 24.238C216.177 24.2457 216.069 24.2361 215.953 24.1863C215.805 24.1212 215.635 24.081 215.404 24.1078C215.135 24.1385 214.862 24.1519 214.585 24.1729C214.445 24.1825 214.337 24.217 214.292 24.2859C214.283 24.2974 214.37 24.3261 214.42 24.3433C214.585 24.4008 214.742 24.4678 214.928 24.508C215.118 24.5482 215.325 24.5022 215.523 24.4907C215.594 24.4869 215.66 24.4754 215.726 24.4774C215.788 24.4793 215.862 24.4888 215.908 24.5061C216.123 24.5922 216.35 24.6516 216.648 24.5999C216.904 24.6248 217.036 24.7837 217.363 24.7416C217.561 24.7167 217.768 24.7052 217.975 24.6956C218.028 24.6937 218.086 24.7282 218.144 24.7454C218.31 24.7933 218.442 24.8698 218.69 24.8373C218.954 24.8028 219.235 24.7971 219.504 24.7703C219.653 24.755 219.76 24.7684 219.876 24.8182C220.025 24.8813 220.194 24.9292 220.426 24.8985C220.624 24.8717 220.835 24.866 221.038 24.8488C221.302 24.8277 221.302 24.8296 221.773 24.9483C221.827 24.9617 221.897 24.977 221.955 24.9732C222.298 24.9502 222.637 24.9215 222.98 24.8985C223.113 24.889 223.241 24.9139 223.332 24.9694C223.369 24.9924 223.357 25.0307 223.369 25.0632C222.687 25.1149 222.005 25.1589 221.327 25.2221C221.071 25.247 220.955 25.1685 220.785 25.1245C220.728 25.1092 220.666 25.0766 220.612 25.0804C220.132 25.113 219.657 25.1474 219.182 25.1896C219.033 25.203 218.921 25.1953 218.81 25.1398C218.524 24.9924 218.177 25.0728 217.855 25.0938C217.607 25.1092 217.528 25.1685 217.557 25.2949C217.594 25.4442 217.743 25.4902 218.123 25.4634C218.26 25.4538 218.396 25.4404 218.533 25.4327C218.665 25.4251 218.785 25.4499 218.892 25.5016C218.996 25.5533 219.12 25.5801 219.248 25.5725C219.521 25.5552 219.798 25.538 220.062 25.5093C220.281 25.4863 220.463 25.5055 220.616 25.5763C220.785 25.6548 220.984 25.6376 221.182 25.6203C221.645 25.5821 221.649 25.584 221.939 25.6797C221.997 25.6989 222.055 25.7352 222.108 25.7333C222.584 25.7046 223.063 25.6797 223.53 25.6338C223.774 25.6108 223.915 25.672 224.076 25.7218C224.134 25.7391 224.192 25.7773 224.245 25.7735C224.588 25.7525 224.931 25.7314 225.266 25.695C225.423 25.6778 225.518 25.6893 225.647 25.7352C225.952 25.8482 225.961 25.8443 226.395 25.808C226.527 25.7965 226.672 25.7754 226.796 25.7907C226.92 25.8061 227.019 25.8616 227.135 25.8961C227.188 25.9114 227.254 25.9324 227.312 25.9286C227.585 25.9133 227.858 25.8903 228.131 25.8692C228.387 25.8482 228.387 25.8501 228.867 25.9688C229.061 26.0186 229.263 25.9765 229.458 25.9611C229.669 25.9439 229.859 25.9439 230.02 26.0186C230.181 26.0933 230.375 26.0894 230.582 26.0741C230.776 26.0588 230.975 26.0167 231.173 26.0684C231.628 26.1871 231.628 26.189 231.909 26.166C232.318 26.1334 232.723 26.1028 233.137 26.0741C233.19 26.0703 233.261 26.0932 233.314 26.1086C233.43 26.143 233.529 26.2005 233.653 26.2139C233.777 26.2292 233.922 26.2062 234.054 26.1947C234.48 26.1583 234.509 26.1449 234.794 26.2713C235.034 26.3747 235.332 26.2254 235.555 26.3441C235.683 26.4111 235.856 26.4647 236.096 26.4321C236.295 26.4053 236.501 26.3977 236.708 26.3823C237.034 26.3574 237.034 26.3594 237.448 26.4743C237.502 26.4896 237.572 26.5087 237.626 26.5049C237.898 26.4896 238.175 26.4762 238.44 26.4417C238.75 26.4015 238.948 26.4743 239.18 26.5451C239.362 26.6006 239.577 26.5547 239.771 26.5355C239.982 26.5164 240.172 26.5221 240.329 26.5968C240.494 26.6733 240.689 26.6638 240.895 26.6485C241.09 26.6351 241.288 26.591 241.486 26.6446C241.912 26.7633 241.912 26.7633 242.222 26.7404C242.495 26.7193 242.768 26.6963 243.041 26.681C243.094 26.6772 243.16 26.7021 243.214 26.7193C243.33 26.7538 243.429 26.8112 243.553 26.8246C243.677 26.838 243.822 26.8131 243.958 26.8036C244.095 26.794 244.239 26.7653 244.363 26.7767C244.487 26.7882 244.603 26.8361 244.702 26.8782C244.818 26.928 244.925 26.9337 245.083 26.9146C245.281 26.8897 245.488 26.884 245.69 26.8706C245.802 26.9069 245.917 26.9433 246.025 26.9835C246.137 27.0256 246.256 27.0218 246.409 27.0084C246.918 26.9625 246.922 26.9682 247.348 27.0869C247.542 27.1405 247.745 27.0965 247.939 27.0831C248.146 27.0678 248.34 27.0601 248.501 27.1367C248.658 27.2094 248.852 27.219 249.059 27.196C249.191 27.1807 249.332 27.1712 249.468 27.1654C249.53 27.1635 249.605 27.1712 249.65 27.1865C249.869 27.2669 250.084 27.3396 250.386 27.2879C250.65 27.3033 250.783 27.4603 251.101 27.4296C251.37 27.4028 251.651 27.3971 251.915 27.3626C252.159 27.332 252.333 27.3856 252.457 27.4526C252.68 27.5713 252.994 27.4105 253.217 27.5273C253.346 27.5943 253.511 27.6479 253.759 27.6192C254.032 27.5885 254.118 27.6287 254.197 27.7493C254.242 27.8183 254.234 27.8738 254.152 27.9274C254.069 27.9829 253.978 27.9734 253.846 27.9102C253.693 27.8393 253.511 27.8259 253.292 27.8412C253.077 27.8565 252.945 27.757 252.767 27.7187C252.589 27.6785 252.378 27.7455 252.192 27.6938C251.754 27.5732 251.754 27.5732 251.457 27.5962C251.254 27.6115 251.043 27.6192 250.845 27.646C250.609 27.6785 250.456 27.6192 250.295 27.5655C250.237 27.5464 250.179 27.51 250.13 27.5119C249.654 27.5407 249.175 27.5675 248.704 27.6153C248.455 27.6402 248.323 27.5713 248.158 27.5234C248.1 27.5062 248.038 27.4717 247.988 27.4756C247.579 27.5024 247.174 27.5368 246.765 27.5694C246.686 27.6211 246.6 27.6708 246.525 27.7264C246.447 27.7838 246.339 27.8087 246.182 27.8068C245.922 27.8068 245.665 27.8872 245.405 27.7857C245.136 27.6823 245.116 27.6881 244.855 27.713C244.525 27.7455 244.173 27.7379 243.863 27.8125C243.809 27.8259 243.752 27.8623 243.752 27.8891C243.747 27.9063 243.834 27.9312 243.888 27.9465C244.07 27.9925 244.281 27.9255 244.462 27.9734C244.582 28.004 244.682 28.0499 244.801 28.0825C244.851 28.0959 244.925 28.094 244.992 28.0921C245.062 28.0901 245.128 28.0767 245.194 28.0787C245.256 28.0806 245.322 28.092 245.372 28.1093C245.599 28.182 245.839 28.2491 246.042 28.3352C246.24 28.4194 246.426 28.362 246.624 28.3582C247.418 28.4922 247.418 28.4941 247.951 28.452C248.084 28.4424 248.22 28.4309 248.356 28.4328C248.414 28.4328 248.468 28.4673 248.526 28.4864C248.691 28.5439 248.848 28.5956 249.08 28.5649C249.278 28.5381 249.489 28.5324 249.691 28.5152C249.964 28.4941 249.964 28.4941 250.427 28.6147C250.543 28.6454 250.667 28.6415 250.816 28.6262C250.944 28.6128 251.076 28.6415 251.167 28.6971C251.204 28.72 251.192 28.7583 251.204 28.7909C250.795 28.8215 250.382 28.8426 249.985 28.8885C249.729 28.9172 249.613 28.8349 249.443 28.7909C249.386 28.7756 249.324 28.743 249.27 28.7468C248.865 28.7756 248.46 28.8081 248.055 28.8464C248.005 28.8502 247.943 28.8942 247.939 28.9211C247.931 28.9708 248.034 29.0187 248.183 29.0168C248.381 29.0149 248.575 28.9823 248.753 29.0608C248.902 29.1297 249.088 29.1604 249.307 29.1298C249.439 29.1125 249.58 29.1125 249.712 29.0972C250.064 29.0512 250.382 29.0608 250.646 29.191C250.849 29.2255 251.047 29.1929 251.242 29.1757C251.386 29.1623 251.527 29.1489 251.63 29.1853C251.849 29.2618 252.064 29.3384 252.366 29.2867C252.692 29.3403 252.94 29.4533 253.213 29.5452C253.341 29.5892 253.441 29.6141 253.589 29.5854C253.651 29.5739 253.726 29.5739 253.792 29.5682C253.928 29.5586 254.073 29.5299 254.197 29.5414C254.321 29.5548 254.424 29.6103 254.536 29.6448C254.59 29.662 254.652 29.6907 254.705 29.6888C254.912 29.6792 255.115 29.6601 255.317 29.6448C255.52 29.6314 255.722 29.618 255.925 29.6046C256.094 29.6543 256.268 29.7041 256.437 29.7539C256.71 29.7328 256.983 29.7118 257.252 29.6926C257.553 29.6697 257.553 29.6716 257.987 29.7903C258.182 29.8439 258.388 29.8094 258.574 29.7845C258.884 29.7443 259.091 29.8171 259.31 29.8937C259.356 29.909 259.438 29.9185 259.492 29.9109C259.707 29.8841 259.893 29.9051 260.05 29.976C260.162 30.0258 260.273 30.0487 260.41 30.0392C260.885 30.0028 261.36 29.9645 261.836 29.9319C261.894 29.9281 261.96 29.9454 262.014 29.9607C262.435 30.0775 262.439 30.0832 262.749 30.0526C263.026 30.0258 263.283 30.0143 263.502 30.1196C263.547 30.1425 263.617 30.1751 263.667 30.1732C264.006 30.154 264.349 30.133 264.684 30.1004C264.837 30.0851 264.944 30.0909 265.064 30.1349C265.217 30.1904 265.354 30.2574 265.606 30.2325C266.304 30.1617 266.308 30.1732 267.135 30.3053C267.193 30.3148 267.271 30.2995 267.338 30.2919C267.478 30.2727 267.581 30.2995 267.705 30.3436C267.982 30.4431 267.991 30.4374 268.255 30.4163C268.458 30.3991 268.669 30.3953 268.867 30.3666C269.173 30.3244 269.375 30.3991 269.603 30.4699C269.785 30.5255 269.995 30.4795 270.19 30.4623C270.401 30.4431 270.591 30.4489 270.748 30.5216C270.855 30.5714 270.971 30.5982 271.107 30.5887C271.583 30.5542 272.058 30.5159 272.534 30.4814C272.591 30.4776 272.662 30.4929 272.715 30.5063C273.187 30.625 273.187 30.6308 273.654 30.5867C273.802 30.5733 273.926 30.5695 274.038 30.6097C274.146 30.648 274.261 30.6844 274.373 30.7207C274.575 30.7073 274.782 30.7035 274.981 30.6805C275.133 30.6633 275.241 30.671 275.361 30.7112C275.518 30.7629 275.65 30.8528 275.898 30.8088C276.026 30.7877 276.175 30.7935 276.303 30.7744C276.456 30.7495 276.56 30.7648 276.679 30.8146C276.828 30.8739 276.981 30.9352 277.221 30.9045C277.485 30.8701 277.767 30.8643 278.035 30.8375C278.184 30.8222 278.287 30.8375 278.407 30.8873C278.556 30.9505 278.726 30.9907 278.957 30.9658C279.428 30.918 279.432 30.9275 279.891 31.0481C280.007 31.0788 280.131 31.0749 280.28 31.0596C280.408 31.0462 280.54 31.0749 280.631 31.1305C280.718 31.1917 280.71 31.23 280.718 31.2626ZM243.884 13.9951C243.747 14.0047 243.611 14.0162 243.413 13.8496C243.4 13.8209 243.408 13.7864 243.38 13.7615C243.313 13.7098 243.21 13.6735 243.086 13.6677C242.863 13.6601 242.594 13.7252 242.598 13.7749C242.602 13.8171 242.673 13.8534 242.809 13.8879C242.867 13.9013 242.912 13.9243 242.966 13.9396C243.123 13.9836 243.247 14.0698 243.475 14.0258C243.433 13.907 243.454 13.9664 243.475 14.0258C243.454 14.0985 243.516 14.1502 243.665 14.1713C243.706 14.177 243.768 14.1732 243.801 14.1617C243.929 14.1196 243.95 14.0621 243.855 13.9109C243.838 13.9358 243.851 13.9798 243.888 13.9913C243.925 14.0028 244.016 13.9932 244.062 13.9798C244.177 13.9434 244.235 13.8956 244.206 13.8554C244.19 13.8343 244.111 13.8075 244.062 13.8075C243.975 13.8075 243.896 13.8496 243.884 13.9951ZM277.308 36.1983C277.006 36.2347 276.659 36.2213 276.357 36.296C276.303 36.3094 276.25 36.3438 276.245 36.3706C276.241 36.3879 276.324 36.4128 276.374 36.4262C276.485 36.4568 276.609 36.4472 276.754 36.4376C276.973 36.4242 277.101 36.5123 277.271 36.5563C277.324 36.5697 277.395 36.5793 277.452 36.5755C277.787 36.5525 278.118 36.5276 278.453 36.5008C278.511 36.4951 278.573 36.4817 278.622 36.4644C278.788 36.4089 278.771 36.3726 278.61 36.3304C278.432 36.2845 278.292 36.2079 278.11 36.1715C277.849 36.1198 277.585 36.1887 277.308 36.1983ZM253.833 37.596C253.631 37.6113 253.432 37.6266 253.23 37.6419C253.164 37.6476 253.093 37.6496 253.031 37.6572C252.903 37.6706 252.808 37.7108 252.746 37.774C252.841 37.8238 252.957 37.8525 253.085 37.8468C253.288 37.8353 253.486 37.8104 253.689 37.8046C253.908 37.797 254.036 37.8831 254.205 37.9272C254.259 37.9406 254.325 37.9425 254.387 37.9444C254.693 37.9521 254.879 37.8525 254.821 37.7127C254.78 37.6036 254.623 37.5385 254.433 37.5519C254.234 37.5653 254.032 37.5806 253.833 37.596ZM278.721 33.3686C278.771 33.336 278.825 33.3131 278.85 33.2844C278.924 33.1867 278.895 33.1139 278.759 33.0374C278.593 32.9436 278.391 33.0067 278.205 33.0163C278.159 33.0182 278.11 33.0584 278.085 33.0833C278.068 33.1005 278.068 33.1369 278.093 33.1465C278.296 33.2231 278.511 33.2939 278.721 33.3686ZM242.863 27.713C242.664 27.7283 242.462 27.7398 242.263 27.7608C242.214 27.7666 242.168 27.803 242.139 27.8278C242.086 27.8738 242.144 27.937 242.313 27.9427C242.507 27.9504 242.71 27.9178 242.912 27.9025C243.169 27.8834 243.322 27.8125 243.227 27.7513C243.136 27.6919 243.012 27.6804 242.863 27.713ZM25.2766 23.6215C25.4089 23.612 25.5453 23.6043 25.6776 23.5909C25.8016 23.5775 25.8967 23.5354 25.9587 23.4722C25.8554 23.4224 25.7396 23.3956 25.6115 23.4014C25.4089 23.4129 25.2105 23.4282 25.0121 23.4473C24.8881 23.4588 24.7683 23.5009 24.7394 23.566C24.7104 23.6158 24.9873 23.6445 25.2766 23.6215ZM225.382 23.3267C225.436 23.3439 225.489 23.3784 225.543 23.3784C225.675 23.3784 225.812 23.3669 225.936 23.3478C225.99 23.3401 226.031 23.3056 226.056 23.2788C226.072 23.2616 226.068 23.231 226.043 23.2157C225.924 23.1238 225.444 23.1563 225.365 23.2616C225.357 23.2808 225.378 23.3056 225.382 23.3267ZM212.341 12.8425C212.353 12.8732 212.357 12.9038 212.374 12.9344C212.407 12.9919 212.498 13.034 212.63 13.0627C212.733 13.0149 212.787 12.9613 212.783 12.9038C212.779 12.8732 212.766 12.8425 212.75 12.8119C212.717 12.7545 212.626 12.7124 212.494 12.6836C212.39 12.7296 212.341 12.7832 212.341 12.8425ZM288.274 37.9291C288.237 37.954 288.2 37.9789 288.158 38.0018C288.27 38.0574 288.373 38.0746 288.452 38.044C288.501 38.0248 288.53 37.9961 288.568 37.9712C288.456 37.9157 288.357 37.9004 288.274 37.9291ZM285.703 38.1895C285.757 38.2067 285.806 38.2297 285.864 38.2412C285.959 38.2603 286.046 38.2278 286.112 38.1588C286.058 38.1416 286.009 38.1186 285.951 38.1071C285.856 38.088 285.769 38.1205 285.703 38.1895ZM287.332 37.8391C287.303 37.8851 287.361 37.9233 287.513 37.9559C287.551 37.931 287.6 37.908 287.625 37.8812C287.666 37.8372 287.596 37.797 287.447 37.7664C287.406 37.7893 287.369 37.8142 287.332 37.8391ZM278.606 35.7752C278.577 35.8212 278.635 35.8594 278.788 35.892C278.825 35.8671 278.874 35.8441 278.899 35.8173C278.94 35.7733 278.87 35.7331 278.721 35.7024C278.68 35.7254 278.643 35.7503 278.606 35.7752ZM266.718 22.2277C266.68 22.2526 266.643 22.2775 266.602 22.3005C266.713 22.356 266.817 22.3732 266.895 22.3426C266.945 22.3235 266.974 22.2947 267.011 22.2699C266.899 22.2143 266.8 22.199 266.718 22.2277ZM255.33 15.0405C255.429 15.0539 255.512 15.0271 255.582 14.9562C255.528 14.939 255.478 14.916 255.421 14.9045C255.325 14.8854 255.239 14.9179 255.173 14.9869C255.226 15.006 255.28 15.0232 255.33 15.0405ZM249.282 14.5905C249.245 14.6154 249.208 14.6403 249.167 14.6633C249.278 14.7188 249.381 14.736 249.46 14.7054C249.51 14.6863 249.539 14.6575 249.576 14.6327C249.464 14.5771 249.365 14.5637 249.282 14.5905ZM208.273 12.8406C208.236 12.8655 208.199 12.8904 208.158 12.9134C208.269 12.9689 208.372 12.9861 208.451 12.9555C208.501 12.9363 208.53 12.9076 208.567 12.8827C208.455 12.8272 208.356 12.8138 208.273 12.8406ZM4.07977 28.4175C4.02603 28.4003 3.97234 28.3831 3.92274 28.3639C3.80287 28.4156 3.76568 28.4635 3.83181 28.4999C3.87315 28.5228 3.9351 28.5362 3.98884 28.5535C4.11285 28.5018 4.14177 28.4558 4.07977 28.4175Z" fill="#FFE492"/>
<path d="M23.6386 9.51918C23.1632 9.55556 22.692 9.60149 22.2167 9.62447C21.9645 9.63595 21.8737 9.71828 21.7703 9.79487C21.6876 9.85613 21.5926 9.87527 21.4396 9.88676C20.1499 9.98057 18.8644 10.0801 17.5788 10.1778C17.4176 10.1529 17.3391 10.1127 17.3763 10.0648C17.397 10.0361 17.4466 9.9959 17.4962 9.99207C18.3766 9.92123 19.2529 9.84847 20.1375 9.79295C20.3896 9.77763 20.4599 9.69339 20.5881 9.62447C20.6294 9.60149 20.6625 9.56703 20.7162 9.55363C20.77 9.53831 20.8485 9.54023 20.9188 9.5364C22.3407 9.42727 23.7627 9.32007 25.1846 9.21094C25.3458 9.23583 25.4244 9.27603 25.3872 9.32389C25.3665 9.35261 25.3169 9.39282 25.2673 9.39664C24.7217 9.43685 24.1801 9.47706 23.6386 9.51918Z" fill="#FFE492"/>
<path d="M283.211 19.7144C282.996 19.7374 282.723 19.7699 282.5 19.6589C282.392 19.6053 282.276 19.5881 282.136 19.5996C281.933 19.6187 281.727 19.634 281.52 19.6455C281.466 19.6474 281.396 19.6264 281.342 19.6091C281.227 19.5747 281.127 19.5172 281.003 19.5019C280.879 19.4866 280.73 19.5287 280.602 19.5191C280.433 19.5057 280.363 19.4541 280.408 19.4062C280.433 19.3794 280.482 19.3411 280.536 19.3354C281.301 19.2645 281.305 19.2645 281.52 19.3334C281.685 19.387 281.838 19.4464 282.074 19.4138C282.272 19.387 282.483 19.3813 282.686 19.3641C282.967 19.3411 282.967 19.343 283.421 19.4636C283.537 19.4942 283.661 19.4923 283.81 19.4751C283.938 19.4617 284.062 19.4923 284.165 19.544C284.099 19.6091 284.004 19.6512 283.876 19.6627C283.669 19.6819 283.467 19.6953 283.211 19.7144Z" fill="#FFE492"/>
<path d="M276.469 19.1245C276.99 19.0842 277.515 19.0498 278.035 19.0039C278.25 18.9847 278.42 19.0058 278.569 19.0709C278.73 19.1417 278.912 19.136 279.11 19.1226C279.234 19.1149 279.354 19.1455 279.437 19.1991C279.47 19.2202 279.461 19.2585 279.474 19.2891C279.019 19.3236 278.56 19.3599 278.102 19.3906C278.048 19.3944 277.982 19.3753 277.932 19.36C277.82 19.3274 277.725 19.27 277.605 19.2585C277.349 19.2317 277.093 19.2834 276.833 19.2929C276.709 19.2968 276.589 19.2681 276.506 19.2164C276.473 19.1915 276.481 19.1551 276.469 19.1245Z" fill="#FFE492"/>
<path d="M87.162 2.66349C87.7035 2.62137 88.2449 2.58118 88.7864 2.53906C88.9476 2.56587 89.022 2.60415 88.989 2.65202C88.9683 2.68073 88.9187 2.72094 88.8691 2.72477C87.7861 2.81093 86.7032 2.89324 85.6243 2.97557C85.4631 2.94876 85.3887 2.91048 85.4218 2.86261C85.4424 2.83389 85.4921 2.79369 85.5417 2.78986C86.079 2.74582 86.6205 2.70561 87.162 2.66349Z" fill="#FFE492"/>
<path d="M3.86977 13.3021C3.62589 13.3059 3.36966 13.3768 3.09685 13.3232C3.04311 13.3136 2.96869 13.283 2.97282 13.2657C2.98109 13.237 3.0307 13.2006 3.08444 13.1891C3.32005 13.1413 3.61356 13.1355 3.73343 13.0015C3.7913 12.9326 3.89877 12.9096 4.04345 12.8962C4.19639 12.8809 4.30383 12.8866 4.4237 12.9268C4.58078 12.9785 4.71307 13.0743 4.96108 13.0245C4.97349 13.0551 5.00235 13.0896 4.98995 13.1183C4.97755 13.147 4.9239 13.1738 4.8743 13.1949C4.82883 13.214 4.76676 13.2313 4.70889 13.237C4.43608 13.26 4.16325 13.2791 3.86977 13.3021Z" fill="#FFE492"/>
<path d="M219.523 12.9176C219.726 12.9023 219.937 12.8947 220.135 12.8679C220.292 12.8468 220.391 12.8602 220.515 12.9061C220.726 12.9866 220.739 12.9789 221.255 12.9904C221.313 12.9923 221.383 13.021 221.417 13.0459C221.437 13.0593 221.408 13.0957 221.383 13.1149C221.346 13.1397 221.292 13.1723 221.243 13.1723C220.916 13.178 220.586 13.291 220.267 13.1608C220.106 13.0957 219.928 13.0651 219.709 13.0938C219.577 13.111 219.437 13.1187 219.3 13.1263C219.168 13.134 219.031 13.1129 218.949 13.0555C218.829 12.9712 218.899 12.9387 219.114 12.9445C219.251 12.9483 219.387 12.9272 219.523 12.9176Z" fill="#FFE492"/>
<path d="M294.085 26.1148C294.345 26.0956 294.606 26.0727 294.87 26.0573C294.924 26.0535 294.99 26.0746 295.04 26.088C295.238 26.1454 295.209 26.243 295.218 26.3292C295.222 26.4192 294.763 26.4919 294.569 26.4307C294.354 26.3617 294.159 26.2833 293.862 26.3254C293.746 26.3407 293.61 26.3062 293.535 26.2507C293.424 26.1703 293.486 26.1377 293.696 26.1435C293.82 26.1473 293.953 26.1263 294.085 26.1148Z" fill="#FFE492"/>
<path d="M162.248 0.055549C162.516 0.0344888 162.785 0.00195707 163.054 4.25065e-05C163.211 -0.00187206 163.289 0.0612964 163.252 0.107246C163.231 0.135964 163.182 0.176171 163.132 0.18C162.595 0.22595 162.057 0.264248 161.52 0.306368C161.363 0.279564 161.284 0.239365 161.322 0.193415C161.342 0.164697 161.392 0.126405 161.442 0.120661C161.71 0.0938571 161.979 0.0766092 162.248 0.055549Z" fill="#FFE492"/>
<path d="M288.859 19.8826C289.119 19.8635 289.384 19.8348 289.644 19.8252C289.781 19.8214 289.888 19.8654 289.905 19.9152C289.913 19.9381 289.847 19.9783 289.793 19.9879C289.421 20.053 289.02 20.0607 288.631 20.0932C288.507 20.1028 288.375 20.0722 288.301 20.0186C288.189 19.9362 288.251 19.9056 288.462 19.9114C288.594 19.9133 288.727 19.8922 288.859 19.8826Z" fill="#FFE492"/>
<path d="M225.968 13.176C226.1 13.1664 226.236 13.1415 226.364 13.1491C226.501 13.1587 226.588 13.2142 226.629 13.2698C226.675 13.3329 226.67 13.3923 226.629 13.4459C226.563 13.5378 226.497 13.534 226.344 13.4727C226.108 13.377 226.092 13.3885 225.625 13.3923C225.571 13.3923 225.505 13.3636 225.463 13.3387C225.401 13.3004 225.434 13.2411 225.579 13.2066C225.687 13.1817 225.835 13.1855 225.968 13.176Z" fill="#FFE492"/>
<path d="M279.491 19.2544C279.686 19.2391 279.88 19.2142 280.074 19.2142C280.21 19.2123 280.318 19.2563 280.33 19.3042C280.334 19.3271 280.272 19.3654 280.223 19.3769C279.987 19.4286 279.723 19.4324 279.466 19.4497C279.347 19.4573 279.214 19.4267 279.14 19.3731C279.028 19.2927 279.094 19.2563 279.297 19.2678C279.359 19.2716 279.425 19.2601 279.491 19.2544Z" fill="#FFE492"/>
<path d="M248.222 16.9057C247.933 16.9287 247.66 16.9 247.681 16.8502C247.71 16.7851 247.83 16.743 247.954 16.7315C248.152 16.7124 248.35 16.697 248.553 16.6856C248.681 16.6779 248.797 16.7066 248.9 16.7564C248.838 16.8177 248.743 16.8617 248.619 16.8751C248.491 16.8885 248.355 16.8962 248.222 16.9057Z" fill="#FFE492"/>
<path d="M246.776 16.6606C246.971 16.6453 247.165 16.6204 247.359 16.6204C247.496 16.6185 247.603 16.6625 247.616 16.7104C247.62 16.7334 247.558 16.7717 247.508 16.7832C247.272 16.8348 247.008 16.8387 246.752 16.8559C246.632 16.8636 246.499 16.8329 246.425 16.7793C246.313 16.6989 246.38 16.6625 246.582 16.674C246.644 16.6779 246.71 16.6664 246.776 16.6606Z" fill="#FFE492"/>
<path d="M223.222 13.1609C223.416 13.1455 223.61 13.1206 223.805 13.1187C223.941 13.1168 224.048 13.1609 224.061 13.2087C224.065 13.2317 224.003 13.2681 223.953 13.2815C223.718 13.3332 223.453 13.337 223.197 13.3542C223.077 13.3619 222.945 13.3312 222.87 13.2776C222.759 13.1972 222.825 13.1608 223.027 13.1723C223.089 13.1762 223.156 13.1647 223.222 13.1609Z" fill="#FFE492"/>
<path d="M222.029 13.0474C222.236 13.032 222.302 13.0225 222.368 13.0225C222.492 13.0225 222.62 13.0454 222.694 13.101C222.806 13.1814 222.74 13.2044 222.537 13.2082C222.277 13.212 222.021 13.2522 221.76 13.2599C221.624 13.2637 221.516 13.2178 221.508 13.1699C221.504 13.1469 221.566 13.1067 221.615 13.099C221.789 13.0703 221.979 13.0531 222.029 13.0474Z" fill="#FFE492"/>
<path d="M245.661 1.78414C245.529 1.79372 245.389 1.82052 245.265 1.81095C245.099 1.79755 245.033 1.74586 245.074 1.698C245.099 1.67119 245.145 1.6329 245.194 1.62716C245.459 1.60036 245.728 1.58311 245.992 1.56396C246.149 1.59268 246.219 1.63289 246.178 1.68075C246.153 1.70755 246.108 1.74393 246.058 1.75159C245.93 1.77073 245.794 1.77457 245.661 1.78414Z" fill="#FFE492"/>
<path d="M84.5809 2.88926C84.709 2.88735 84.8247 2.91224 84.9239 2.9601C84.8619 3.02137 84.771 3.06157 84.647 3.0788C84.585 3.08646 84.5147 3.0922 84.4486 3.09411C84.3204 3.09794 84.2047 3.07114 84.1055 3.02327C84.1675 2.96201 84.2625 2.9218 84.3824 2.90457C84.4444 2.89691 84.5148 2.89501 84.5809 2.88926Z" fill="#FFE492"/>
<path d="M286.938 19.8754C286.933 19.8199 287.186 19.7567 287.413 19.7586C287.533 19.7605 287.657 19.7873 287.727 19.839C287.834 19.9175 287.772 19.9481 287.57 19.9424C287.446 19.9385 287.314 19.9711 287.19 19.9654C287.049 19.9634 286.966 19.9213 286.938 19.8754Z" fill="#FFE492"/>
<path d="M226.759 13.4073C226.754 13.3863 226.734 13.3614 226.746 13.3422C226.825 13.2369 227.3 13.2044 227.424 13.2963C227.445 13.3135 227.453 13.3422 227.436 13.3595C227.412 13.3863 227.366 13.4207 227.317 13.4284C227.188 13.4475 227.056 13.4571 226.924 13.459C226.866 13.459 226.812 13.4265 226.759 13.4073Z" fill="#FFE492"/>
<path d="M6.04122 12.9958C5.55346 13.036 5.5452 13.0321 5.632 12.9364C5.71054 12.8503 5.85524 12.7986 6.06605 12.7986C6.12805 12.7986 6.19416 12.7947 6.2479 12.8024C6.30577 12.812 6.38849 12.8311 6.40089 12.8541C6.42569 12.8981 6.35536 12.946 6.23135 12.9785C6.17761 12.9938 6.10736 12.99 6.04122 12.9958Z" fill="#FFE492"/>
<path d="M91.0353 2.61887C90.8907 2.65141 90.7667 2.63993 90.6758 2.57867C90.5848 2.5174 90.7295 2.44464 90.9816 2.42741C91.0478 2.42358 91.118 2.40828 91.18 2.41593C91.242 2.42168 91.3041 2.44463 91.3413 2.46761C91.4074 2.5059 91.3661 2.55761 91.2338 2.60164C91.1801 2.61887 91.1015 2.61504 91.0353 2.61887Z" fill="#FFE492"/>
<path d="M286.946 19.7317C286.983 19.7068 287.021 19.6819 287.062 19.6589C287.215 19.6915 287.281 19.7298 287.24 19.7738C287.215 19.8006 287.165 19.8236 287.128 19.8485C286.975 19.8159 286.913 19.7757 286.946 19.7317Z" fill="#FFE492"/>
<path d="M12.1328 34.7916C12.1328 34.7686 12.1907 34.7323 12.2362 34.7246C12.323 34.7112 12.4304 34.738 12.5048 34.7916C12.6081 34.8682 12.5462 34.9084 12.356 34.8873C12.2238 34.872 12.1328 34.8337 12.1328 34.7916Z" fill="#FFE492"/>
<path d="M228.303 11.6256C228.357 11.6429 228.41 11.6601 228.46 11.6793C228.39 11.7501 228.303 11.7807 228.212 11.7616C228.154 11.7501 228.105 11.7271 228.051 11.7099C228.121 11.639 228.204 11.6122 228.303 11.6256Z" fill="#FFE492"/>
<path d="M226.854 11.5391C226.936 11.5104 227.036 11.5257 227.151 11.5812C227.114 11.6061 227.081 11.6348 227.036 11.654C226.957 11.6846 226.854 11.6693 226.742 11.6118C226.775 11.5889 226.812 11.564 226.854 11.5391Z" fill="#FFE492"/>
<path d="M225.686 11.6239C225.739 11.6411 225.793 11.6583 225.843 11.6775C225.773 11.7483 225.69 11.779 225.595 11.7598C225.537 11.7483 225.487 11.7253 225.434 11.7081C225.504 11.6373 225.586 11.6086 225.686 11.6239Z" fill="#FFE492"/>
<path d="M225.715 11.5224C225.777 11.5607 225.744 11.6066 225.624 11.6583C225.57 11.6411 225.508 11.6277 225.467 11.6047C225.401 11.5683 225.434 11.5204 225.558 11.4688C225.608 11.4879 225.661 11.5051 225.715 11.5224Z" fill="#FFE492"/>
</svg>
